<svg xmlns="http://www.w3.org/2000/svg" xmlns:xlink="http://www.w3.org/1999/xlink" width="500" zoomAndPan="magnify" viewBox="0 0 375 374.999991" height="500" preserveAspectRatio="xMidYMid meet" version="1.0"><defs><clipPath id="9d1c4a82e6"><path d="M 141.496094 243.589844 L 165.496094 243.589844 L 165.496094 267.589844 L 141.496094 267.589844 Z M 141.496094 243.589844 " clip-rule="nonzero"/></clipPath><clipPath id="3c29211a20"><path d="M 0 0 L 375 0 L 375 75 L 0 75 Z M 0 0 " clip-rule="nonzero"/></clipPath><clipPath id="fe5ba3daec"><path d="M 411.742188 384.191406 L -63.382812 384.191406 C -82.128906 384.191406 -97.320312 369 -97.320312 350.253906 L -97.320312 -124.871094 C -97.320312 -143.621094 -82.128906 -158.808594 -63.382812 -158.808594 L 411.742188 -158.808594 C 430.492188 -158.808594 445.679688 -143.621094 445.679688 -124.871094 L 445.679688 350.253906 C 445.679688 369.003906 430.492188 384.191406 411.742188 384.191406 Z M 411.742188 384.191406 " clip-rule="nonzero"/></clipPath><clipPath id="c438bba607"><path d="M 0 0 L 375 0 L 375 10 L 0 10 Z M 0 0 " clip-rule="nonzero"/></clipPath><clipPath id="6251c059d1"><path d="M 411.742188 384.191406 L -63.382812 384.191406 C -82.128906 384.191406 -97.320312 369 -97.320312 350.253906 L -97.320312 -124.871094 C -97.320312 -143.621094 -82.128906 -158.808594 -63.382812 -158.808594 L 411.742188 -158.808594 C 430.492188 -158.808594 445.679688 -143.621094 445.679688 -124.871094 L 445.679688 350.253906 C 445.679688 369.003906 430.492188 384.191406 411.742188 384.191406 Z M 411.742188 384.191406 " clip-rule="nonzero"/></clipPath><clipPath id="716bf90d5e"><path d="M 0 0 L 47 0 L 47 9.1875 L 0 9.1875 Z M 0 0 " clip-rule="nonzero"/></clipPath><clipPath id="28726a2fab"><path d="M 411.742188 384.191406 L -63.382812 384.191406 C -82.128906 384.191406 -97.320312 369 -97.320312 350.253906 L -97.320312 -124.871094 C -97.320312 -143.621094 -82.128906 -158.808594 -63.382812 -158.808594 L 411.742188 -158.808594 C 430.492188 -158.808594 445.679688 -143.621094 445.679688 -124.871094 L 445.679688 350.253906 C 445.679688 369.003906 430.492188 384.191406 411.742188 384.191406 Z M 411.742188 384.191406 " clip-rule="nonzero"/></clipPath><clipPath id="00a8552055"><path d="M -106.4375 9.1875 L -23.097656 9.1875 C -21.046875 9.1875 -19.371094 7.515625 -19.371094 5.464844 L -19.371094 -44.824219 C -19.371094 -46.875 -17.699219 -48.550781 -15.648438 -48.550781 L 72.53125 -48.550781 C 74.582031 -48.550781 76.257812 -46.875 76.257812 -44.824219 L 76.257812 -11.921875 C 76.257812 -9.871094 77.929688 -8.199219 79.980469 -8.199219 L 140.441406 -8.199219 C 142.492188 -8.199219 144.164062 -9.871094 144.164062 -11.921875 L 144.164062 -44.824219 C 144.164062 -46.875 145.835938 -48.550781 147.886719 -48.550781 L 229.671875 -48.550781 C 231.722656 -48.550781 233.394531 -46.875 233.394531 -44.824219 L 233.394531 -21.761719 C 233.394531 -19.710938 235.070312 -18.039062 237.117188 -18.039062 L 300.53125 -18.039062 C 302.582031 -18.039062 304.253906 -19.710938 304.253906 -21.761719 L 304.253906 -49.417969 C 304.253906 -51.46875 305.929688 -53.140625 307.980469 -53.140625 L 377.789062 -53.140625 C 379.839844 -53.140625 381.511719 -51.46875 381.511719 -49.417969 L 381.511719 4.644531 C 381.511719 6.695312 383.1875 8.367188 385.238281 8.367188 L 446.746094 8.367188 C 448.648438 8.367188 450.242188 6.941406 450.453125 5.054688 L 456.621094 -49.992188 C 456.636719 -50.125 456.636719 -50.269531 456.636719 -50.402344 L 456.636719 -166.535156 C 456.636719 -168.585938 454.964844 -170.257812 452.914062 -170.257812 L -102.832031 -170.257812 C -104.847656 -170.257812 -106.503906 -168.632812 -106.554688 -166.617188 L -110.164062 5.382812 C -110.210938 7.464844 -108.523438 9.1875 -106.4375 9.1875 Z M -106.4375 9.1875 " clip-rule="nonzero"/></clipPath><clipPath id="a99c71d382"><path d="M 331 0 L 375 0 L 375 9.1875 L 331 9.1875 Z M 331 0 " clip-rule="nonzero"/></clipPath><clipPath id="fbd1bfe904"><path d="M 411.742188 384.191406 L -63.382812 384.191406 C -82.128906 384.191406 -97.320312 369 -97.320312 350.253906 L -97.320312 -124.871094 C -97.320312 -143.621094 -82.128906 -158.808594 -63.382812 -158.808594 L 411.742188 -158.808594 C 430.492188 -158.808594 445.679688 -143.621094 445.679688 -124.871094 L 445.679688 350.253906 C 445.679688 369.003906 430.492188 384.191406 411.742188 384.191406 Z M 411.742188 384.191406 " clip-rule="nonzero"/></clipPath><clipPath id="0e6c23f4c7"><path d="M -106.4375 9.1875 L -23.097656 9.1875 C -21.046875 9.1875 -19.371094 7.515625 -19.371094 5.464844 L -19.371094 -44.824219 C -19.371094 -46.875 -17.699219 -48.550781 -15.648438 -48.550781 L 72.53125 -48.550781 C 74.582031 -48.550781 76.257812 -46.875 76.257812 -44.824219 L 76.257812 -11.921875 C 76.257812 -9.871094 77.929688 -8.199219 79.980469 -8.199219 L 140.441406 -8.199219 C 142.492188 -8.199219 144.164062 -9.871094 144.164062 -11.921875 L 144.164062 -44.824219 C 144.164062 -46.875 145.835938 -48.550781 147.886719 -48.550781 L 229.671875 -48.550781 C 231.722656 -48.550781 233.394531 -46.875 233.394531 -44.824219 L 233.394531 -21.761719 C 233.394531 -19.710938 235.070312 -18.039062 237.117188 -18.039062 L 300.53125 -18.039062 C 302.582031 -18.039062 304.253906 -19.710938 304.253906 -21.761719 L 304.253906 -49.417969 C 304.253906 -51.46875 305.929688 -53.140625 307.980469 -53.140625 L 377.789062 -53.140625 C 379.839844 -53.140625 381.511719 -51.46875 381.511719 -49.417969 L 381.511719 4.644531 C 381.511719 6.695312 383.1875 8.367188 385.238281 8.367188 L 446.746094 8.367188 C 448.648438 8.367188 450.242188 6.941406 450.453125 5.054688 L 456.621094 -49.992188 C 456.636719 -50.125 456.636719 -50.269531 456.636719 -50.402344 L 456.636719 -166.535156 C 456.636719 -168.585938 454.964844 -170.257812 452.914062 -170.257812 L -102.832031 -170.257812 C -104.847656 -170.257812 -106.503906 -168.632812 -106.554688 -166.617188 L -110.164062 5.382812 C -110.210938 7.464844 -108.523438 9.1875 -106.4375 9.1875 Z M -106.4375 9.1875 " clip-rule="nonzero"/></clipPath><clipPath id="5a8bab72d0"><path d="M 10 194 L 72 194 L 72 256 L 10 256 Z M 10 194 " clip-rule="nonzero"/></clipPath><clipPath id="5315e9d509"><path d="M 411.742188 384.191406 L -63.382812 384.191406 C -82.128906 384.191406 -97.320312 369 -97.320312 350.253906 L -97.320312 -124.871094 C -97.320312 -143.621094 -82.128906 -158.808594 -63.382812 -158.808594 L 411.742188 -158.808594 C 430.492188 -158.808594 445.679688 -143.621094 445.679688 -124.871094 L 445.679688 350.253906 C 445.679688 369.003906 430.492188 384.191406 411.742188 384.191406 Z M 411.742188 384.191406 " clip-rule="nonzero"/></clipPath><clipPath id="cc52ff19a9"><path d="M 170 120 L 233 120 L 233 183 L 170 183 Z M 170 120 " clip-rule="nonzero"/></clipPath><clipPath id="4548e07af4"><path d="M 411.742188 384.191406 L -63.382812 384.191406 C -82.128906 384.191406 -97.320312 369 -97.320312 350.253906 L -97.320312 -124.871094 C -97.320312 -143.621094 -82.128906 -158.808594 -63.382812 -158.808594 L 411.742188 -158.808594 C 430.492188 -158.808594 445.679688 -143.621094 445.679688 -124.871094 L 445.679688 350.253906 C 445.679688 369.003906 430.492188 384.191406 411.742188 384.191406 Z M 411.742188 384.191406 " clip-rule="nonzero"/></clipPath><clipPath id="e126283cef"><path d="M 302 233 L 365 233 L 365 295 L 302 295 Z M 302 233 " clip-rule="nonzero"/></clipPath><clipPath id="089bf8294a"><path d="M 411.742188 384.191406 L -63.382812 384.191406 C -82.128906 384.191406 -97.320312 369 -97.320312 350.253906 L -97.320312 -124.871094 C -97.320312 -143.621094 -82.128906 -158.808594 -63.382812 -158.808594 L 411.742188 -158.808594 C 430.492188 -158.808594 445.679688 -143.621094 445.679688 -124.871094 L 445.679688 350.253906 C 445.679688 369.003906 430.492188 384.191406 411.742188 384.191406 Z M 411.742188 384.191406 " clip-rule="nonzero"/></clipPath></defs><g clip-path="url(#9d1c4a82e6)"><path fill="#696969" d="M 165.542969 255.613281 C 165.542969 256.402344 165.46875 257.1875 165.3125 257.960938 C 165.160156 258.734375 164.929688 259.488281 164.628906 260.214844 C 164.328125 260.945312 163.957031 261.636719 163.519531 262.292969 C 163.078125 262.949219 162.582031 263.558594 162.023438 264.117188 C 161.464844 264.675781 160.855469 265.171875 160.199219 265.613281 C 159.542969 266.050781 158.851562 266.421875 158.121094 266.722656 C 157.394531 267.023438 156.640625 267.253906 155.867188 267.40625 C 155.09375 267.5625 154.308594 267.636719 153.519531 267.636719 C 152.730469 267.636719 151.949219 267.5625 151.175781 267.40625 C 150.402344 267.253906 149.648438 267.023438 148.917969 266.722656 C 148.191406 266.421875 147.496094 266.050781 146.839844 265.613281 C 146.183594 265.171875 145.578125 264.675781 145.019531 264.117188 C 144.460938 263.558594 143.960938 262.949219 143.523438 262.292969 C 143.085938 261.636719 142.714844 260.945312 142.414062 260.214844 C 142.109375 259.488281 141.882812 258.734375 141.726562 257.960938 C 141.574219 257.1875 141.496094 256.402344 141.496094 255.613281 C 141.496094 254.824219 141.574219 254.042969 141.726562 253.269531 C 141.882812 252.496094 142.109375 251.742188 142.414062 251.011719 C 142.714844 250.285156 143.085938 249.589844 143.523438 248.933594 C 143.960938 248.277344 144.460938 247.671875 145.019531 247.113281 C 145.578125 246.554688 146.183594 246.054688 146.839844 245.617188 C 147.496094 245.179688 148.191406 244.808594 148.917969 244.507812 C 149.648438 244.203125 150.402344 243.976562 151.175781 243.824219 C 151.949219 243.667969 152.730469 243.589844 153.519531 243.589844 C 154.308594 243.589844 155.09375 243.667969 155.867188 243.824219 C 156.640625 243.976562 157.394531 244.203125 158.121094 244.507812 C 158.851562 244.808594 159.542969 245.179688 160.199219 245.617188 C 160.855469 246.054688 161.464844 246.554688 162.023438 247.113281 C 162.582031 247.671875 163.078125 248.277344 163.519531 248.933594 C 163.957031 249.589844 164.328125 250.285156 164.628906 251.011719 C 164.929688 251.742188 165.160156 252.496094 165.3125 253.269531 C 165.46875 254.042969 165.542969 254.824219 165.542969 255.613281 Z M 165.542969 255.613281 " fill-opacity="1" fill-rule="nonzero"/></g><path fill="#874c2b" d="M 411.742188 384.191406 L -63.382812 384.191406 C -82.128906 384.191406 -97.320312 369 -97.320312 350.253906 L -97.320312 -124.871094 C -97.320312 -143.621094 -82.128906 -158.808594 -63.382812 -158.808594 L 411.742188 -158.808594 C 430.492188 -158.808594 445.679688 -143.621094 445.679688 -124.871094 L 445.679688 350.253906 C 445.679688 369 430.492188 384.191406 411.742188 384.191406 Z M 411.742188 384.191406 " fill-opacity="1" fill-rule="nonzero"/><g clip-path="url(#3c29211a20)"><g clip-path="url(#fe5ba3daec)"><path fill="#7d4024" d="M -105.453125 74.964844 L 2.328125 74.964844 C 4.378906 74.964844 6.050781 73.292969 6.050781 71.242188 L 6.050781 20.949219 C 6.050781 18.898438 7.726562 17.226562 9.773438 17.226562 L 62.363281 17.226562 C 64.414062 17.226562 66.085938 18.898438 66.085938 20.949219 L 66.085938 53.855469 C 66.085938 55.90625 67.757812 57.578125 69.808594 57.578125 L 162.257812 57.578125 C 164.304688 57.578125 165.980469 55.90625 165.980469 53.855469 L 165.980469 20.949219 C 165.980469 18.898438 167.652344 17.226562 169.703125 17.226562 L 209.824219 17.226562 C 211.875 17.226562 213.546875 18.898438 213.546875 20.949219 L 213.546875 44.011719 C 213.546875 46.0625 215.222656 47.734375 217.269531 47.734375 L 315.128906 47.734375 C 317.179688 47.734375 318.855469 46.0625 318.855469 44.011719 L 318.855469 16.355469 C 318.855469 14.308594 320.527344 12.632812 322.578125 12.632812 L 352.367188 12.632812 C 354.414062 12.632812 356.089844 14.308594 356.089844 16.355469 L 356.089844 70.421875 C 356.089844 72.472656 357.761719 74.144531 359.8125 74.144531 L 447.730469 74.144531 C 449.632812 74.144531 451.226562 72.71875 451.4375 70.832031 L 457.605469 15.78125 C 457.621094 15.652344 457.621094 15.503906 457.621094 15.371094 L 457.621094 -100.757812 C 457.621094 -102.808594 455.949219 -104.484375 453.898438 -104.484375 L -101.847656 -104.484375 C -103.863281 -104.484375 -105.519531 -102.859375 -105.570312 -100.839844 L -109.179688 71.160156 C -109.226562 73.242188 -107.539062 74.964844 -105.453125 74.964844 Z M -105.453125 74.964844 " fill-opacity="1" fill-rule="nonzero"/></g></g><g clip-path="url(#c438bba607)"><g clip-path="url(#6251c059d1)"><path fill="#48a831" d="M -106.4375 9.1875 L -23.097656 9.1875 C -21.046875 9.1875 -19.371094 7.515625 -19.371094 5.464844 L -19.371094 -44.824219 C -19.371094 -46.875 -17.699219 -48.550781 -15.648438 -48.550781 L 72.53125 -48.550781 C 74.582031 -48.550781 76.257812 -46.875 76.257812 -44.824219 L 76.257812 -11.921875 C 76.257812 -9.871094 77.929688 -8.199219 79.980469 -8.199219 L 140.441406 -8.199219 C 142.492188 -8.199219 144.164062 -9.871094 144.164062 -11.921875 L 144.164062 -44.824219 C 144.164062 -46.875 145.835938 -48.550781 147.886719 -48.550781 L 229.671875 -48.550781 C 231.722656 -48.550781 233.394531 -46.875 233.394531 -44.824219 L 233.394531 -21.761719 C 233.394531 -19.710938 235.070312 -18.039062 237.117188 -18.039062 L 300.53125 -18.039062 C 302.582031 -18.039062 304.253906 -19.710938 304.253906 -21.761719 L 304.253906 -49.417969 C 304.253906 -51.46875 305.929688 -53.140625 307.980469 -53.140625 L 377.789062 -53.140625 C 379.839844 -53.140625 381.511719 -51.46875 381.511719 -49.417969 L 381.511719 4.644531 C 381.511719 6.695312 383.1875 8.367188 385.238281 8.367188 L 446.746094 8.367188 C 448.648438 8.367188 450.242188 6.941406 450.453125 5.054688 L 456.621094 -49.992188 C 456.636719 -50.125 456.636719 -50.269531 456.636719 -50.402344 L 456.636719 -166.535156 C 456.636719 -168.585938 454.964844 -170.257812 452.914062 -170.257812 L -102.832031 -170.257812 C -104.847656 -170.257812 -106.503906 -168.632812 -106.554688 -166.617188 L -110.164062 5.382812 C -110.210938 7.464844 -108.523438 9.1875 -106.4375 9.1875 Z M -106.4375 9.1875 " fill-opacity="1" fill-rule="nonzero"/></g></g><g clip-path="url(#716bf90d5e)"><g clip-path="url(#28726a2fab)"><g clip-path="url(#00a8552055)"><path fill="#60bd3f" d="M 44.5 17.71875 L -69.46875 17.71875 C -70.796875 17.71875 -71.863281 16.636719 -71.863281 15.324219 L -71.863281 -98.644531 C -71.863281 -99.972656 -70.777344 -101.039062 -69.46875 -101.039062 L 44.484375 -101.039062 C 45.8125 -101.039062 46.878906 -99.957031 46.878906 -98.644531 L 46.878906 15.308594 C 46.894531 16.636719 45.8125 17.71875 44.5 17.71875 Z M 44.5 17.71875 " fill-opacity="1" fill-rule="nonzero"/></g></g></g><g clip-path="url(#a99c71d382)"><g clip-path="url(#fbd1bfe904)"><g clip-path="url(#0e6c23f4c7)"><path fill="#60bd3f" d="M 448.011719 22.3125 L 334.058594 22.3125 C 332.730469 22.3125 331.664062 21.230469 331.664062 19.917969 L 331.664062 -94.050781 C 331.664062 -95.378906 332.746094 -96.445312 334.058594 -96.445312 L 448.011719 -96.445312 C 449.339844 -96.445312 450.40625 -95.363281 450.40625 -94.050781 L 450.40625 19.898438 C 450.40625 21.230469 449.324219 22.3125 448.011719 22.3125 Z M 448.011719 22.3125 " fill-opacity="1" fill-rule="nonzero"/></g></g></g><g clip-path="url(#5a8bab72d0)"><g clip-path="url(#5315e9d509)"><path fill="#7d4024" d="M 67.613281 255.722656 L 14.367188 255.722656 C 12.039062 255.722656 10.152344 253.835938 10.152344 251.507812 L 10.152344 198.265625 C 10.152344 195.933594 12.039062 194.050781 14.367188 194.050781 L 67.613281 194.050781 C 69.941406 194.050781 71.828125 195.933594 71.828125 198.265625 L 71.828125 251.507812 C 71.828125 253.835938 69.941406 255.722656 67.613281 255.722656 Z M 67.613281 255.722656 " fill-opacity="1" fill-rule="nonzero"/></g></g><g clip-path="url(#cc52ff19a9)"><g clip-path="url(#4548e07af4)"><path fill="#7d4024" d="M 227.867188 182.238281 L 174.625 182.238281 C 172.292969 182.238281 170.410156 180.351562 170.410156 178.023438 L 170.410156 124.78125 C 170.410156 122.449219 172.292969 120.5625 174.625 120.5625 L 227.867188 120.5625 C 230.195312 120.5625 232.082031 122.449219 232.082031 124.78125 L 232.082031 178.023438 C 232.082031 180.351562 230.195312 182.238281 227.867188 182.238281 Z M 227.867188 182.238281 " fill-opacity="1" fill-rule="nonzero"/></g></g><g clip-path="url(#e126283cef)"><g clip-path="url(#089bf8294a)"><path fill="#7d4024" d="M 360.402344 294.761719 L 307.160156 294.761719 C 304.828125 294.761719 302.945312 292.875 302.945312 290.546875 L 302.945312 237.304688 C 302.945312 234.972656 304.828125 233.089844 307.160156 233.089844 L 360.402344 233.089844 C 362.730469 233.089844 364.617188 234.972656 364.617188 237.304688 L 364.617188 290.546875 C 364.617188 292.875 362.730469 294.761719 360.402344 294.761719 Z M 360.402344 294.761719 " fill-opacity="1" fill-rule="nonzero"/></g></g></svg>