<svg xmlns="http://www.w3.org/2000/svg" xmlns:xlink="http://www.w3.org/1999/xlink" width="500" zoomAndPan="magnify" viewBox="0 0 375 374.999991" height="500" preserveAspectRatio="xMidYMid meet" version="1.0"><defs><clipPath id="7709d64f0c"><path d="M 73 107.132812 L 305 107.132812 L 305 244 L 73 244 Z M 73 107.132812 " clip-rule="nonzero"/></clipPath><clipPath id="5c718d2b26"><path d="M 37.5 107.132812 L 327.75 107.132812 L 327.75 255.632812 L 37.5 255.632812 Z M 37.5 107.132812 " clip-rule="nonzero"/></clipPath></defs><g clip-path="url(#7709d64f0c)"><path fill="#f0f9ff" d="M 298.132812 214.015625 L 298.132812 219.945312 L 304.054688 219.945312 L 304.054688 214.015625 Z M 298.132812 219.945312 L 298.132812 225.878906 L 304.054688 225.878906 L 304.054688 219.945312 Z M 298.132812 225.878906 L 298.132812 231.8125 L 304.054688 231.8125 L 304.054688 225.878906 Z M 292.210938 208.082031 L 292.210938 214.015625 L 298.132812 214.015625 L 298.132812 208.082031 Z M 292.210938 214.015625 L 292.210938 219.945312 L 298.132812 219.945312 L 298.132812 214.015625 Z M 292.210938 219.945312 L 292.210938 225.878906 L 298.132812 225.878906 L 298.132812 219.945312 Z M 286.285156 202.15625 L 286.285156 208.082031 L 292.210938 208.082031 L 292.210938 202.15625 Z M 286.285156 208.082031 L 286.285156 214.015625 L 292.210938 214.015625 L 292.210938 208.082031 Z M 286.285156 214.015625 L 286.285156 219.945312 L 292.210938 219.945312 L 292.210938 214.015625 Z M 286.285156 219.945312 L 286.285156 225.878906 L 292.210938 225.878906 L 292.210938 219.945312 Z M 280.359375 202.15625 L 280.359375 208.082031 L 286.285156 208.082031 L 286.285156 202.15625 Z M 280.359375 208.082031 L 280.359375 214.015625 L 286.285156 214.015625 L 286.285156 208.082031 Z M 280.359375 214.015625 L 280.359375 219.945312 L 286.285156 219.945312 L 286.285156 214.015625 Z M 280.359375 219.945312 L 280.359375 225.878906 L 286.285156 225.878906 L 286.285156 219.945312 Z M 280.359375 225.878906 L 280.359375 231.8125 L 286.285156 231.8125 L 286.285156 225.878906 Z M 274.4375 178.425781 L 274.4375 184.359375 L 280.359375 184.359375 L 280.359375 178.425781 Z M 274.4375 184.359375 L 274.4375 190.289062 L 280.359375 190.289062 L 280.359375 184.359375 Z M 274.4375 202.15625 L 274.4375 208.082031 L 280.359375 208.082031 L 280.359375 202.15625 Z M 274.4375 208.082031 L 274.4375 214.015625 L 280.359375 214.015625 L 280.359375 208.082031 Z M 274.4375 214.015625 L 274.4375 219.945312 L 280.359375 219.945312 L 280.359375 214.015625 Z M 274.4375 219.945312 L 274.4375 225.878906 L 280.359375 225.878906 L 280.359375 219.945312 Z M 274.4375 225.878906 L 274.4375 231.8125 L 280.359375 231.8125 L 280.359375 225.878906 Z M 274.4375 231.8125 L 274.4375 237.742188 L 280.359375 237.742188 L 280.359375 231.8125 Z M 268.515625 130.972656 L 268.515625 136.90625 L 274.4375 136.90625 L 274.4375 130.972656 Z M 268.515625 136.90625 L 268.515625 142.835938 L 274.4375 142.835938 L 274.4375 136.90625 Z M 268.515625 142.835938 L 268.515625 148.765625 L 274.4375 148.765625 L 274.4375 142.835938 Z M 268.515625 148.765625 L 268.515625 154.699219 L 274.4375 154.699219 L 274.4375 148.765625 Z M 268.515625 172.492188 L 268.515625 178.425781 L 274.4375 178.425781 L 274.4375 172.492188 Z M 268.515625 178.425781 L 268.515625 184.359375 L 274.4375 184.359375 L 274.4375 178.425781 Z M 268.515625 184.359375 L 268.515625 190.289062 L 274.4375 190.289062 L 274.4375 184.359375 Z M 268.515625 202.15625 L 268.515625 208.082031 L 274.4375 208.082031 L 274.4375 202.15625 Z M 268.515625 208.082031 L 268.515625 214.015625 L 274.4375 214.015625 L 274.4375 208.082031 Z M 268.515625 214.015625 L 268.515625 219.945312 L 274.4375 219.945312 L 274.4375 214.015625 Z M 268.515625 219.945312 L 268.515625 225.878906 L 274.4375 225.878906 L 274.4375 219.945312 Z M 268.515625 225.878906 L 268.515625 231.8125 L 274.4375 231.8125 L 274.4375 225.878906 Z M 268.515625 231.8125 L 268.515625 237.742188 L 274.4375 237.742188 L 274.4375 231.8125 Z M 268.515625 237.742188 L 268.515625 243.675781 L 274.4375 243.675781 L 274.4375 237.742188 Z M 262.59375 119.109375 L 262.59375 125.039062 L 268.515625 125.039062 L 268.515625 119.109375 Z M 262.59375 125.039062 L 262.59375 130.972656 L 268.515625 130.972656 L 268.515625 125.039062 Z M 262.59375 130.972656 L 262.59375 136.90625 L 268.515625 136.90625 L 268.515625 130.972656 Z M 262.59375 136.90625 L 262.59375 142.835938 L 268.515625 142.835938 L 268.515625 136.90625 Z M 262.59375 142.835938 L 262.59375 148.765625 L 268.515625 148.765625 L 268.515625 142.835938 Z M 262.59375 148.765625 L 262.59375 154.699219 L 268.515625 154.699219 L 268.515625 148.765625 Z M 262.59375 154.699219 L 262.59375 160.628906 L 268.515625 160.628906 L 268.515625 154.699219 Z M 262.59375 172.492188 L 262.59375 178.425781 L 268.515625 178.425781 L 268.515625 172.492188 Z M 262.59375 178.425781 L 262.59375 184.359375 L 268.515625 184.359375 L 268.515625 178.425781 Z M 262.59375 184.359375 L 262.59375 190.289062 L 268.515625 190.289062 L 268.515625 184.359375 Z M 262.59375 190.289062 L 262.59375 196.222656 L 268.515625 196.222656 L 268.515625 190.289062 Z M 262.59375 208.082031 L 262.59375 214.015625 L 268.515625 214.015625 L 268.515625 208.082031 Z M 262.59375 214.015625 L 262.59375 219.945312 L 268.515625 219.945312 L 268.515625 214.015625 Z M 262.59375 219.945312 L 262.59375 225.878906 L 268.515625 225.878906 L 268.515625 219.945312 Z M 262.59375 225.878906 L 262.59375 231.8125 L 268.515625 231.8125 L 268.515625 225.878906 Z M 262.59375 231.8125 L 262.59375 237.742188 L 268.515625 237.742188 L 268.515625 231.8125 Z M 262.59375 237.742188 L 262.59375 243.675781 L 268.515625 243.675781 L 268.515625 237.742188 Z M 256.667969 119.109375 L 256.667969 125.039062 L 262.59375 125.039062 L 262.59375 119.109375 Z M 256.667969 125.039062 L 256.667969 130.972656 L 262.59375 130.972656 L 262.59375 125.039062 Z M 256.667969 130.972656 L 256.667969 136.90625 L 262.59375 136.90625 L 262.59375 130.972656 Z M 256.667969 136.90625 L 256.667969 142.835938 L 262.59375 142.835938 L 262.59375 136.90625 Z M 256.667969 142.835938 L 256.667969 148.765625 L 262.59375 148.765625 L 262.59375 142.835938 Z M 256.667969 148.765625 L 256.667969 154.699219 L 262.59375 154.699219 L 262.59375 148.765625 Z M 256.667969 154.699219 L 256.667969 160.628906 L 262.59375 160.628906 L 262.59375 154.699219 Z M 256.667969 160.628906 L 256.667969 166.5625 L 262.59375 166.5625 L 262.59375 160.628906 Z M 256.667969 166.5625 L 256.667969 172.492188 L 262.59375 172.492188 L 262.59375 166.5625 Z M 256.667969 172.492188 L 256.667969 178.425781 L 262.59375 178.425781 L 262.59375 172.492188 Z M 256.667969 178.425781 L 256.667969 184.359375 L 262.59375 184.359375 L 262.59375 178.425781 Z M 256.667969 184.359375 L 256.667969 190.289062 L 262.59375 190.289062 L 262.59375 184.359375 Z M 256.667969 190.289062 L 256.667969 196.222656 L 262.59375 196.222656 L 262.59375 190.289062 Z M 256.667969 208.082031 L 256.667969 214.015625 L 262.59375 214.015625 L 262.59375 208.082031 Z M 256.667969 214.015625 L 256.667969 219.945312 L 262.59375 219.945312 L 262.59375 214.015625 Z M 256.667969 219.945312 L 256.667969 225.878906 L 262.59375 225.878906 L 262.59375 219.945312 Z M 256.667969 225.878906 L 256.667969 231.8125 L 262.59375 231.8125 L 262.59375 225.878906 Z M 256.667969 231.8125 L 256.667969 237.742188 L 262.59375 237.742188 L 262.59375 231.8125 Z M 256.667969 237.742188 L 256.667969 243.675781 L 262.59375 243.675781 L 262.59375 237.742188 Z M 250.742188 113.175781 L 250.742188 119.109375 L 256.667969 119.109375 L 256.667969 113.175781 Z M 250.742188 119.109375 L 250.742188 125.039062 L 256.667969 125.039062 L 256.667969 119.109375 Z M 250.742188 125.039062 L 250.742188 130.972656 L 256.667969 130.972656 L 256.667969 125.039062 Z M 250.742188 130.972656 L 250.742188 136.90625 L 256.667969 136.90625 L 256.667969 130.972656 Z M 250.742188 136.90625 L 250.742188 142.835938 L 256.667969 142.835938 L 256.667969 136.90625 Z M 250.742188 142.835938 L 250.742188 148.765625 L 256.667969 148.765625 L 256.667969 142.835938 Z M 250.742188 148.765625 L 250.742188 154.699219 L 256.667969 154.699219 L 256.667969 148.765625 Z M 250.742188 154.699219 L 250.742188 160.628906 L 256.667969 160.628906 L 256.667969 154.699219 Z M 250.742188 160.628906 L 250.742188 166.5625 L 256.667969 166.5625 L 256.667969 160.628906 Z M 250.742188 166.5625 L 250.742188 172.492188 L 256.667969 172.492188 L 256.667969 166.5625 Z M 250.742188 172.492188 L 250.742188 178.425781 L 256.667969 178.425781 L 256.667969 172.492188 Z M 250.742188 178.425781 L 250.742188 184.359375 L 256.667969 184.359375 L 256.667969 178.425781 Z M 250.742188 184.359375 L 250.742188 190.289062 L 256.667969 190.289062 L 256.667969 184.359375 Z M 250.742188 190.289062 L 250.742188 196.222656 L 256.667969 196.222656 L 256.667969 190.289062 Z M 250.742188 196.222656 L 250.742188 202.15625 L 256.667969 202.15625 L 256.667969 196.222656 Z M 250.742188 208.082031 L 250.742188 214.015625 L 256.667969 214.015625 L 256.667969 208.082031 Z M 250.742188 214.015625 L 250.742188 219.945312 L 256.667969 219.945312 L 256.667969 214.015625 Z M 250.742188 219.945312 L 250.742188 225.878906 L 256.667969 225.878906 L 256.667969 219.945312 Z M 250.742188 225.878906 L 250.742188 231.8125 L 256.667969 231.8125 L 256.667969 225.878906 Z M 250.742188 231.8125 L 250.742188 237.742188 L 256.667969 237.742188 L 256.667969 231.8125 Z M 250.742188 237.742188 L 250.742188 243.675781 L 256.667969 243.675781 L 256.667969 237.742188 Z M 244.820312 113.175781 L 244.820312 119.109375 L 250.742188 119.109375 L 250.742188 113.175781 Z M 244.820312 119.109375 L 244.820312 125.039062 L 250.742188 125.039062 L 250.742188 119.109375 Z M 244.820312 125.039062 L 244.820312 130.972656 L 250.742188 130.972656 L 250.742188 125.039062 Z M 244.820312 130.972656 L 244.820312 136.90625 L 250.742188 136.90625 L 250.742188 130.972656 Z M 244.820312 136.90625 L 244.820312 142.835938 L 250.742188 142.835938 L 250.742188 136.90625 Z M 244.820312 142.835938 L 244.820312 148.765625 L 250.742188 148.765625 L 250.742188 142.835938 Z M 244.820312 148.765625 L 244.820312 154.699219 L 250.742188 154.699219 L 250.742188 148.765625 Z M 244.820312 154.699219 L 244.820312 160.628906 L 250.742188 160.628906 L 250.742188 154.699219 Z M 244.820312 160.628906 L 244.820312 166.5625 L 250.742188 166.5625 L 250.742188 160.628906 Z M 244.820312 166.5625 L 244.820312 172.492188 L 250.742188 172.492188 L 250.742188 166.5625 Z M 244.820312 172.492188 L 244.820312 178.425781 L 250.742188 178.425781 L 250.742188 172.492188 Z M 244.820312 178.425781 L 244.820312 184.359375 L 250.742188 184.359375 L 250.742188 178.425781 Z M 244.820312 184.359375 L 244.820312 190.289062 L 250.742188 190.289062 L 250.742188 184.359375 Z M 244.820312 190.289062 L 244.820312 196.222656 L 250.742188 196.222656 L 250.742188 190.289062 Z M 244.820312 196.222656 L 244.820312 202.15625 L 250.742188 202.15625 L 250.742188 196.222656 Z M 244.820312 208.082031 L 244.820312 214.015625 L 250.742188 214.015625 L 250.742188 208.082031 Z M 244.820312 214.015625 L 244.820312 219.945312 L 250.742188 219.945312 L 250.742188 214.015625 Z M 244.820312 219.945312 L 244.820312 225.878906 L 250.742188 225.878906 L 250.742188 219.945312 Z M 244.820312 225.878906 L 244.820312 231.8125 L 250.742188 231.8125 L 250.742188 225.878906 Z M 244.820312 231.8125 L 244.820312 237.742188 L 250.742188 237.742188 L 250.742188 231.8125 Z M 244.820312 237.742188 L 244.820312 243.675781 L 250.742188 243.675781 L 250.742188 237.742188 Z M 238.898438 107.246094 L 238.898438 113.175781 L 244.820312 113.175781 L 244.820312 107.246094 Z M 238.898438 113.175781 L 238.898438 119.109375 L 244.820312 119.109375 L 244.820312 113.175781 Z M 238.898438 119.109375 L 238.898438 125.039062 L 244.820312 125.039062 L 244.820312 119.109375 Z M 238.898438 125.039062 L 238.898438 130.972656 L 244.820312 130.972656 L 244.820312 125.039062 Z M 238.898438 130.972656 L 238.898438 136.90625 L 244.820312 136.90625 L 244.820312 130.972656 Z M 238.898438 136.90625 L 238.898438 142.835938 L 244.820312 142.835938 L 244.820312 136.90625 Z M 238.898438 142.835938 L 238.898438 148.765625 L 244.820312 148.765625 L 244.820312 142.835938 Z M 238.898438 148.765625 L 238.898438 154.699219 L 244.820312 154.699219 L 244.820312 148.765625 Z M 238.898438 154.699219 L 238.898438 160.628906 L 244.820312 160.628906 L 244.820312 154.699219 Z M 238.898438 160.628906 L 238.898438 166.5625 L 244.820312 166.5625 L 244.820312 160.628906 Z M 238.898438 166.5625 L 238.898438 172.492188 L 244.820312 172.492188 L 244.820312 166.5625 Z M 238.898438 172.492188 L 238.898438 178.425781 L 244.820312 178.425781 L 244.820312 172.492188 Z M 238.898438 178.425781 L 238.898438 184.359375 L 244.820312 184.359375 L 244.820312 178.425781 Z M 238.898438 184.359375 L 238.898438 190.289062 L 244.820312 190.289062 L 244.820312 184.359375 Z M 238.898438 190.289062 L 238.898438 196.222656 L 244.820312 196.222656 L 244.820312 190.289062 Z M 238.898438 196.222656 L 238.898438 202.15625 L 244.820312 202.15625 L 244.820312 196.222656 Z M 238.898438 202.15625 L 238.898438 208.082031 L 244.820312 208.082031 L 244.820312 202.15625 Z M 238.898438 208.082031 L 238.898438 214.015625 L 244.820312 214.015625 L 244.820312 208.082031 Z M 238.898438 214.015625 L 238.898438 219.945312 L 244.820312 219.945312 L 244.820312 214.015625 Z M 238.898438 219.945312 L 238.898438 225.878906 L 244.820312 225.878906 L 244.820312 219.945312 Z M 238.898438 225.878906 L 238.898438 231.8125 L 244.820312 231.8125 L 244.820312 225.878906 Z M 238.898438 231.8125 L 238.898438 237.742188 L 244.820312 237.742188 L 244.820312 231.8125 Z M 232.972656 107.246094 L 232.972656 113.175781 L 238.898438 113.175781 L 238.898438 107.246094 Z M 232.972656 113.175781 L 232.972656 119.109375 L 238.898438 119.109375 L 238.898438 113.175781 Z M 232.972656 119.109375 L 232.972656 125.039062 L 238.898438 125.039062 L 238.898438 119.109375 Z M 232.972656 125.039062 L 232.972656 130.972656 L 238.898438 130.972656 L 238.898438 125.039062 Z M 232.972656 130.972656 L 232.972656 136.90625 L 238.898438 136.90625 L 238.898438 130.972656 Z M 232.972656 136.90625 L 232.972656 142.835938 L 238.898438 142.835938 L 238.898438 136.90625 Z M 232.972656 142.835938 L 232.972656 148.765625 L 238.898438 148.765625 L 238.898438 142.835938 Z M 232.972656 148.765625 L 232.972656 154.699219 L 238.898438 154.699219 L 238.898438 148.765625 Z M 232.972656 154.699219 L 232.972656 160.628906 L 238.898438 160.628906 L 238.898438 154.699219 Z M 232.972656 160.628906 L 232.972656 166.5625 L 238.898438 166.5625 L 238.898438 160.628906 Z M 232.972656 178.425781 L 232.972656 184.359375 L 238.898438 184.359375 L 238.898438 178.425781 Z M 232.972656 184.359375 L 232.972656 190.289062 L 238.898438 190.289062 L 238.898438 184.359375 Z M 232.972656 190.289062 L 232.972656 196.222656 L 238.898438 196.222656 L 238.898438 190.289062 Z M 232.972656 196.222656 L 232.972656 202.15625 L 238.898438 202.15625 L 238.898438 196.222656 Z M 232.972656 202.15625 L 232.972656 208.082031 L 238.898438 208.082031 L 238.898438 202.15625 Z M 232.972656 208.082031 L 232.972656 214.015625 L 238.898438 214.015625 L 238.898438 208.082031 Z M 232.972656 219.945312 L 232.972656 225.878906 L 238.898438 225.878906 L 238.898438 219.945312 Z M 232.972656 225.878906 L 232.972656 231.8125 L 238.898438 231.8125 L 238.898438 225.878906 Z M 232.972656 231.8125 L 232.972656 237.742188 L 238.898438 237.742188 L 238.898438 231.8125 Z M 227.050781 113.175781 L 227.050781 119.109375 L 232.972656 119.109375 L 232.972656 113.175781 Z M 227.050781 119.109375 L 227.050781 125.039062 L 232.972656 125.039062 L 232.972656 119.109375 Z M 227.050781 125.039062 L 227.050781 130.972656 L 232.972656 130.972656 L 232.972656 125.039062 Z M 227.050781 130.972656 L 227.050781 136.90625 L 232.972656 136.90625 L 232.972656 130.972656 Z M 227.050781 136.90625 L 227.050781 142.835938 L 232.972656 142.835938 L 232.972656 136.90625 Z M 227.050781 142.835938 L 227.050781 148.765625 L 232.972656 148.765625 L 232.972656 142.835938 Z M 227.050781 148.765625 L 227.050781 154.699219 L 232.972656 154.699219 L 232.972656 148.765625 Z M 227.050781 154.699219 L 227.050781 160.628906 L 232.972656 160.628906 L 232.972656 154.699219 Z M 227.050781 172.492188 L 227.050781 178.425781 L 232.972656 178.425781 L 232.972656 172.492188 Z M 227.050781 178.425781 L 227.050781 184.359375 L 232.972656 184.359375 L 232.972656 178.425781 Z M 227.050781 184.359375 L 227.050781 190.289062 L 232.972656 190.289062 L 232.972656 184.359375 Z M 227.050781 190.289062 L 227.050781 196.222656 L 232.972656 196.222656 L 232.972656 190.289062 Z M 227.050781 196.222656 L 227.050781 202.15625 L 232.972656 202.15625 L 232.972656 196.222656 Z M 227.050781 202.15625 L 227.050781 208.082031 L 232.972656 208.082031 L 232.972656 202.15625 Z M 227.050781 208.082031 L 227.050781 214.015625 L 232.972656 214.015625 L 232.972656 208.082031 Z M 227.050781 225.878906 L 227.050781 231.8125 L 232.972656 231.8125 L 232.972656 225.878906 Z M 221.128906 113.175781 L 221.128906 119.109375 L 227.050781 119.109375 L 227.050781 113.175781 Z M 221.128906 119.109375 L 221.128906 125.039062 L 227.050781 125.039062 L 227.050781 119.109375 Z M 221.128906 125.039062 L 221.128906 130.972656 L 227.050781 130.972656 L 227.050781 125.039062 Z M 221.128906 130.972656 L 221.128906 136.90625 L 227.050781 136.90625 L 227.050781 130.972656 Z M 221.128906 136.90625 L 221.128906 142.835938 L 227.050781 142.835938 L 227.050781 136.90625 Z M 221.128906 142.835938 L 221.128906 148.765625 L 227.050781 148.765625 L 227.050781 142.835938 Z M 221.128906 148.765625 L 221.128906 154.699219 L 227.050781 154.699219 L 227.050781 148.765625 Z M 221.128906 154.699219 L 221.128906 160.628906 L 227.050781 160.628906 L 227.050781 154.699219 Z M 221.128906 166.5625 L 221.128906 172.492188 L 227.050781 172.492188 L 227.050781 166.5625 Z M 221.128906 172.492188 L 221.128906 178.425781 L 227.050781 178.425781 L 227.050781 172.492188 Z M 221.128906 178.425781 L 221.128906 184.359375 L 227.050781 184.359375 L 227.050781 178.425781 Z M 221.128906 184.359375 L 221.128906 190.289062 L 227.050781 190.289062 L 227.050781 184.359375 Z M 221.128906 190.289062 L 221.128906 196.222656 L 227.050781 196.222656 L 227.050781 190.289062 Z M 221.128906 196.222656 L 221.128906 202.15625 L 227.050781 202.15625 L 227.050781 196.222656 Z M 221.128906 202.15625 L 221.128906 208.082031 L 227.050781 208.082031 L 227.050781 202.15625 Z M 221.128906 208.082031 L 221.128906 214.015625 L 227.050781 214.015625 L 227.050781 208.082031 Z M 221.128906 214.015625 L 221.128906 219.945312 L 227.050781 219.945312 L 227.050781 214.015625 Z M 215.203125 113.175781 L 215.203125 119.109375 L 221.128906 119.109375 L 221.128906 113.175781 Z M 215.203125 119.109375 L 215.203125 125.039062 L 221.128906 125.039062 L 221.128906 119.109375 Z M 215.203125 125.039062 L 215.203125 130.972656 L 221.128906 130.972656 L 221.128906 125.039062 Z M 215.203125 130.972656 L 215.203125 136.90625 L 221.128906 136.90625 L 221.128906 130.972656 Z M 215.203125 136.90625 L 215.203125 142.835938 L 221.128906 142.835938 L 221.128906 136.90625 Z M 215.203125 142.835938 L 215.203125 148.765625 L 221.128906 148.765625 L 221.128906 142.835938 Z M 215.203125 148.765625 L 215.203125 154.699219 L 221.128906 154.699219 L 221.128906 148.765625 Z M 215.203125 154.699219 L 215.203125 160.628906 L 221.128906 160.628906 L 221.128906 154.699219 Z M 215.203125 172.492188 L 215.203125 178.425781 L 221.128906 178.425781 L 221.128906 172.492188 Z M 215.203125 178.425781 L 215.203125 184.359375 L 221.128906 184.359375 L 221.128906 178.425781 Z M 215.203125 184.359375 L 215.203125 190.289062 L 221.128906 190.289062 L 221.128906 184.359375 Z M 215.203125 190.289062 L 215.203125 196.222656 L 221.128906 196.222656 L 221.128906 190.289062 Z M 215.203125 196.222656 L 215.203125 202.15625 L 221.128906 202.15625 L 221.128906 196.222656 Z M 215.203125 202.15625 L 215.203125 208.082031 L 221.128906 208.082031 L 221.128906 202.15625 Z M 215.203125 208.082031 L 215.203125 214.015625 L 221.128906 214.015625 L 221.128906 208.082031 Z M 215.203125 214.015625 L 215.203125 219.945312 L 221.128906 219.945312 L 221.128906 214.015625 Z M 215.203125 219.945312 L 215.203125 225.878906 L 221.128906 225.878906 L 221.128906 219.945312 Z M 209.277344 119.109375 L 209.277344 125.039062 L 215.203125 125.039062 L 215.203125 119.109375 Z M 209.277344 125.039062 L 209.277344 130.972656 L 215.203125 130.972656 L 215.203125 125.039062 Z M 209.277344 130.972656 L 209.277344 136.90625 L 215.203125 136.90625 L 215.203125 130.972656 Z M 209.277344 136.90625 L 209.277344 142.835938 L 215.203125 142.835938 L 215.203125 136.90625 Z M 209.277344 142.835938 L 209.277344 148.765625 L 215.203125 148.765625 L 215.203125 142.835938 Z M 209.277344 148.765625 L 209.277344 154.699219 L 215.203125 154.699219 L 215.203125 148.765625 Z M 209.277344 154.699219 L 209.277344 160.628906 L 215.203125 160.628906 L 215.203125 154.699219 Z M 209.277344 172.492188 L 209.277344 178.425781 L 215.203125 178.425781 L 215.203125 172.492188 Z M 209.277344 178.425781 L 209.277344 184.359375 L 215.203125 184.359375 L 215.203125 178.425781 Z M 209.277344 184.359375 L 209.277344 190.289062 L 215.203125 190.289062 L 215.203125 184.359375 Z M 209.277344 190.289062 L 209.277344 196.222656 L 215.203125 196.222656 L 215.203125 190.289062 Z M 209.277344 196.222656 L 209.277344 202.15625 L 215.203125 202.15625 L 215.203125 196.222656 Z M 209.277344 202.15625 L 209.277344 208.082031 L 215.203125 208.082031 L 215.203125 202.15625 Z M 209.277344 208.082031 L 209.277344 214.015625 L 215.203125 214.015625 L 215.203125 208.082031 Z M 209.277344 214.015625 L 209.277344 219.945312 L 215.203125 219.945312 L 215.203125 214.015625 Z M 209.277344 219.945312 L 209.277344 225.878906 L 215.203125 225.878906 L 215.203125 219.945312 Z M 209.277344 225.878906 L 209.277344 231.8125 L 215.203125 231.8125 L 215.203125 225.878906 Z M 209.277344 231.8125 L 209.277344 237.742188 L 215.203125 237.742188 L 215.203125 231.8125 Z M 203.359375 119.109375 L 203.359375 125.039062 L 209.277344 125.039062 L 209.277344 119.109375 Z M 203.359375 125.039062 L 203.359375 130.972656 L 209.277344 130.972656 L 209.277344 125.039062 Z M 203.359375 130.972656 L 203.359375 136.90625 L 209.277344 136.90625 L 209.277344 130.972656 Z M 203.359375 136.90625 L 203.359375 142.835938 L 209.277344 142.835938 L 209.277344 136.90625 Z M 203.359375 142.835938 L 203.359375 148.765625 L 209.277344 148.765625 L 209.277344 142.835938 Z M 203.359375 148.765625 L 203.359375 154.699219 L 209.277344 154.699219 L 209.277344 148.765625 Z M 203.359375 154.699219 L 203.359375 160.628906 L 209.277344 160.628906 L 209.277344 154.699219 Z M 203.359375 172.492188 L 203.359375 178.425781 L 209.277344 178.425781 L 209.277344 172.492188 Z M 203.359375 178.425781 L 203.359375 184.359375 L 209.277344 184.359375 L 209.277344 178.425781 Z M 203.359375 184.359375 L 203.359375 190.289062 L 209.277344 190.289062 L 209.277344 184.359375 Z M 203.359375 190.289062 L 203.359375 196.222656 L 209.277344 196.222656 L 209.277344 190.289062 Z M 203.359375 196.222656 L 203.359375 202.15625 L 209.277344 202.15625 L 209.277344 196.222656 Z M 203.359375 202.15625 L 203.359375 208.082031 L 209.277344 208.082031 L 209.277344 202.15625 Z M 203.359375 208.082031 L 203.359375 214.015625 L 209.277344 214.015625 L 209.277344 208.082031 Z M 203.359375 214.015625 L 203.359375 219.945312 L 209.277344 219.945312 L 209.277344 214.015625 Z M 203.359375 219.945312 L 203.359375 225.878906 L 209.277344 225.878906 L 209.277344 219.945312 Z M 203.359375 225.878906 L 203.359375 231.8125 L 209.277344 231.8125 L 209.277344 225.878906 Z M 203.359375 231.8125 L 203.359375 237.742188 L 209.277344 237.742188 L 209.277344 231.8125 Z M 197.433594 125.039062 L 197.433594 130.972656 L 203.359375 130.972656 L 203.359375 125.039062 Z M 197.433594 130.972656 L 197.433594 136.90625 L 203.359375 136.90625 L 203.359375 130.972656 Z M 197.433594 136.90625 L 197.433594 142.835938 L 203.359375 142.835938 L 203.359375 136.90625 Z M 197.433594 142.835938 L 197.433594 148.765625 L 203.359375 148.765625 L 203.359375 142.835938 Z M 197.433594 148.765625 L 197.433594 154.699219 L 203.359375 154.699219 L 203.359375 148.765625 Z M 197.433594 154.699219 L 197.433594 160.628906 L 203.359375 160.628906 L 203.359375 154.699219 Z M 197.433594 160.628906 L 197.433594 166.5625 L 203.359375 166.5625 L 203.359375 160.628906 Z M 197.433594 178.425781 L 197.433594 184.359375 L 203.359375 184.359375 L 203.359375 178.425781 Z M 197.433594 184.359375 L 197.433594 190.289062 L 203.359375 190.289062 L 203.359375 184.359375 Z M 197.433594 190.289062 L 197.433594 196.222656 L 203.359375 196.222656 L 203.359375 190.289062 Z M 197.433594 196.222656 L 197.433594 202.15625 L 203.359375 202.15625 L 203.359375 196.222656 Z M 197.433594 202.15625 L 197.433594 208.082031 L 203.359375 208.082031 L 203.359375 202.15625 Z M 197.433594 208.082031 L 197.433594 214.015625 L 203.359375 214.015625 L 203.359375 208.082031 Z M 197.433594 219.945312 L 197.433594 225.878906 L 203.359375 225.878906 L 203.359375 219.945312 Z M 197.433594 225.878906 L 197.433594 231.8125 L 203.359375 231.8125 L 203.359375 225.878906 Z M 197.433594 231.8125 L 197.433594 237.742188 L 203.359375 237.742188 L 203.359375 231.8125 Z M 197.433594 237.742188 L 197.433594 243.675781 L 203.359375 243.675781 L 203.359375 237.742188 Z M 191.507812 125.039062 L 191.507812 130.972656 L 197.433594 130.972656 L 197.433594 125.039062 Z M 191.507812 130.972656 L 191.507812 136.90625 L 197.433594 136.90625 L 197.433594 130.972656 Z M 191.507812 136.90625 L 191.507812 142.835938 L 197.433594 142.835938 L 197.433594 136.90625 Z M 191.507812 142.835938 L 191.507812 148.765625 L 197.433594 148.765625 L 197.433594 142.835938 Z M 191.507812 148.765625 L 191.507812 154.699219 L 197.433594 154.699219 L 197.433594 148.765625 Z M 191.507812 154.699219 L 191.507812 160.628906 L 197.433594 160.628906 L 197.433594 154.699219 Z M 191.507812 160.628906 L 191.507812 166.5625 L 197.433594 166.5625 L 197.433594 160.628906 Z M 191.507812 178.425781 L 191.507812 184.359375 L 197.433594 184.359375 L 197.433594 178.425781 Z M 191.507812 184.359375 L 191.507812 190.289062 L 197.433594 190.289062 L 197.433594 184.359375 Z M 191.507812 190.289062 L 191.507812 196.222656 L 197.433594 196.222656 L 197.433594 190.289062 Z M 191.507812 196.222656 L 191.507812 202.15625 L 197.433594 202.15625 L 197.433594 196.222656 Z M 191.507812 202.15625 L 191.507812 208.082031 L 197.433594 208.082031 L 197.433594 202.15625 Z M 191.507812 214.015625 L 191.507812 219.945312 L 197.433594 219.945312 L 197.433594 214.015625 Z M 191.507812 219.945312 L 191.507812 225.878906 L 197.433594 225.878906 L 197.433594 219.945312 Z M 191.507812 225.878906 L 191.507812 231.8125 L 197.433594 231.8125 L 197.433594 225.878906 Z M 191.507812 231.8125 L 191.507812 237.742188 L 197.433594 237.742188 L 197.433594 231.8125 Z M 191.507812 237.742188 L 191.507812 243.675781 L 197.433594 243.675781 L 197.433594 237.742188 Z M 185.585938 125.039062 L 185.585938 130.972656 L 191.507812 130.972656 L 191.507812 125.039062 Z M 185.585938 130.972656 L 185.585938 136.90625 L 191.507812 136.90625 L 191.507812 130.972656 Z M 185.585938 136.90625 L 185.585938 142.835938 L 191.507812 142.835938 L 191.507812 136.90625 Z M 185.585938 142.835938 L 185.585938 148.765625 L 191.507812 148.765625 L 191.507812 142.835938 Z M 185.585938 148.765625 L 185.585938 154.699219 L 191.507812 154.699219 L 191.507812 148.765625 Z M 185.585938 154.699219 L 185.585938 160.628906 L 191.507812 160.628906 L 191.507812 154.699219 Z M 185.585938 160.628906 L 185.585938 166.5625 L 191.507812 166.5625 L 191.507812 160.628906 Z M 185.585938 166.5625 L 185.585938 172.492188 L 191.507812 172.492188 L 191.507812 166.5625 Z M 185.585938 190.289062 L 185.585938 196.222656 L 191.507812 196.222656 L 191.507812 190.289062 Z M 185.585938 196.222656 L 185.585938 202.15625 L 191.507812 202.15625 L 191.507812 196.222656 Z M 185.585938 208.082031 L 185.585938 214.015625 L 191.507812 214.015625 L 191.507812 208.082031 Z M 185.585938 214.015625 L 185.585938 219.945312 L 191.507812 219.945312 L 191.507812 214.015625 Z M 185.585938 219.945312 L 185.585938 225.878906 L 191.507812 225.878906 L 191.507812 219.945312 Z M 185.585938 225.878906 L 185.585938 231.8125 L 191.507812 231.8125 L 191.507812 225.878906 Z M 185.585938 231.8125 L 185.585938 237.742188 L 191.507812 237.742188 L 191.507812 231.8125 Z M 185.585938 237.742188 L 185.585938 243.675781 L 191.507812 243.675781 L 191.507812 237.742188 Z M 179.664062 130.972656 L 179.664062 136.90625 L 185.585938 136.90625 L 185.585938 130.972656 Z M 179.664062 136.90625 L 179.664062 142.835938 L 185.585938 142.835938 L 185.585938 136.90625 Z M 179.664062 142.835938 L 179.664062 148.765625 L 185.585938 148.765625 L 185.585938 142.835938 Z M 179.664062 148.765625 L 179.664062 154.699219 L 185.585938 154.699219 L 185.585938 148.765625 Z M 179.664062 154.699219 L 179.664062 160.628906 L 185.585938 160.628906 L 185.585938 154.699219 Z M 179.664062 160.628906 L 179.664062 166.5625 L 185.585938 166.5625 L 185.585938 160.628906 Z M 179.664062 166.5625 L 179.664062 172.492188 L 185.585938 172.492188 L 185.585938 166.5625 Z M 179.664062 208.082031 L 179.664062 214.015625 L 185.585938 214.015625 L 185.585938 208.082031 Z M 179.664062 214.015625 L 179.664062 219.945312 L 185.585938 219.945312 L 185.585938 214.015625 Z M 179.664062 219.945312 L 179.664062 225.878906 L 185.585938 225.878906 L 185.585938 219.945312 Z M 179.664062 225.878906 L 179.664062 231.8125 L 185.585938 231.8125 L 185.585938 225.878906 Z M 179.664062 231.8125 L 179.664062 237.742188 L 185.585938 237.742188 L 185.585938 231.8125 Z M 179.664062 237.742188 L 179.664062 243.675781 L 185.585938 243.675781 L 185.585938 237.742188 Z M 173.742188 136.90625 L 173.742188 142.835938 L 179.664062 142.835938 L 179.664062 136.90625 Z M 173.742188 142.835938 L 173.742188 148.765625 L 179.664062 148.765625 L 179.664062 142.835938 Z M 173.742188 148.765625 L 173.742188 154.699219 L 179.664062 154.699219 L 179.664062 148.765625 Z M 173.742188 154.699219 L 173.742188 160.628906 L 179.664062 160.628906 L 179.664062 154.699219 Z M 173.742188 160.628906 L 173.742188 166.5625 L 179.664062 166.5625 L 179.664062 160.628906 Z M 173.742188 166.5625 L 173.742188 172.492188 L 179.664062 172.492188 L 179.664062 166.5625 Z M 173.742188 172.492188 L 173.742188 178.425781 L 179.664062 178.425781 L 179.664062 172.492188 Z M 173.742188 178.425781 L 173.742188 184.359375 L 179.664062 184.359375 L 179.664062 178.425781 Z M 173.742188 208.082031 L 173.742188 214.015625 L 179.664062 214.015625 L 179.664062 208.082031 Z M 173.742188 214.015625 L 173.742188 219.945312 L 179.664062 219.945312 L 179.664062 214.015625 Z M 173.742188 219.945312 L 173.742188 225.878906 L 179.664062 225.878906 L 179.664062 219.945312 Z M 173.742188 225.878906 L 173.742188 231.8125 L 179.664062 231.8125 L 179.664062 225.878906 Z M 173.742188 231.8125 L 173.742188 237.742188 L 179.664062 237.742188 L 179.664062 231.8125 Z M 173.742188 237.742188 L 173.742188 243.675781 L 179.664062 243.675781 L 179.664062 237.742188 Z M 167.816406 142.835938 L 167.816406 148.765625 L 173.742188 148.765625 L 173.742188 142.835938 Z M 167.816406 148.765625 L 167.816406 154.699219 L 173.742188 154.699219 L 173.742188 148.765625 Z M 167.816406 166.5625 L 167.816406 172.492188 L 173.742188 172.492188 L 173.742188 166.5625 Z M 167.816406 172.492188 L 167.816406 178.425781 L 173.742188 178.425781 L 173.742188 172.492188 Z M 167.816406 178.425781 L 167.816406 184.359375 L 173.742188 184.359375 L 173.742188 178.425781 Z M 167.816406 184.359375 L 167.816406 190.289062 L 173.742188 190.289062 L 173.742188 184.359375 Z M 167.816406 190.289062 L 167.816406 196.222656 L 173.742188 196.222656 L 173.742188 190.289062 Z M 167.816406 208.082031 L 167.816406 214.015625 L 173.742188 214.015625 L 173.742188 208.082031 Z M 167.816406 214.015625 L 167.816406 219.945312 L 173.742188 219.945312 L 173.742188 214.015625 Z M 167.816406 219.945312 L 167.816406 225.878906 L 173.742188 225.878906 L 173.742188 219.945312 Z M 167.816406 225.878906 L 167.816406 231.8125 L 173.742188 231.8125 L 173.742188 225.878906 Z M 167.816406 231.8125 L 167.816406 237.742188 L 173.742188 237.742188 L 173.742188 231.8125 Z M 167.816406 237.742188 L 167.816406 243.675781 L 173.742188 243.675781 L 173.742188 237.742188 Z M 161.890625 154.699219 L 161.890625 160.628906 L 167.816406 160.628906 L 167.816406 154.699219 Z M 161.890625 160.628906 L 161.890625 166.5625 L 167.816406 166.5625 L 167.816406 160.628906 Z M 161.890625 166.5625 L 161.890625 172.492188 L 167.816406 172.492188 L 167.816406 166.5625 Z M 161.890625 172.492188 L 161.890625 178.425781 L 167.816406 178.425781 L 167.816406 172.492188 Z M 161.890625 178.425781 L 161.890625 184.359375 L 167.816406 184.359375 L 167.816406 178.425781 Z M 161.890625 184.359375 L 161.890625 190.289062 L 167.816406 190.289062 L 167.816406 184.359375 Z M 161.890625 190.289062 L 161.890625 196.222656 L 167.816406 196.222656 L 167.816406 190.289062 Z M 161.890625 208.082031 L 161.890625 214.015625 L 167.816406 214.015625 L 167.816406 208.082031 Z M 161.890625 214.015625 L 161.890625 219.945312 L 167.816406 219.945312 L 167.816406 214.015625 Z M 161.890625 219.945312 L 161.890625 225.878906 L 167.816406 225.878906 L 167.816406 219.945312 Z M 161.890625 225.878906 L 161.890625 231.8125 L 167.816406 231.8125 L 167.816406 225.878906 Z M 161.890625 231.8125 L 161.890625 237.742188 L 167.816406 237.742188 L 167.816406 231.8125 Z M 161.890625 237.742188 L 161.890625 243.675781 L 167.816406 243.675781 L 167.816406 237.742188 Z M 155.96875 154.699219 L 155.96875 160.628906 L 161.890625 160.628906 L 161.890625 154.699219 Z M 155.96875 160.628906 L 155.96875 166.5625 L 161.890625 166.5625 L 161.890625 160.628906 Z M 155.96875 166.5625 L 155.96875 172.492188 L 161.890625 172.492188 L 161.890625 166.5625 Z M 155.96875 172.492188 L 155.96875 178.425781 L 161.890625 178.425781 L 161.890625 172.492188 Z M 155.96875 178.425781 L 155.96875 184.359375 L 161.890625 184.359375 L 161.890625 178.425781 Z M 155.96875 184.359375 L 155.96875 190.289062 L 161.890625 190.289062 L 161.890625 184.359375 Z M 155.96875 190.289062 L 155.96875 196.222656 L 161.890625 196.222656 L 161.890625 190.289062 Z M 155.96875 214.015625 L 155.96875 219.945312 L 161.890625 219.945312 L 161.890625 214.015625 Z M 155.96875 219.945312 L 155.96875 225.878906 L 161.890625 225.878906 L 161.890625 219.945312 Z M 155.96875 225.878906 L 155.96875 231.8125 L 161.890625 231.8125 L 161.890625 225.878906 Z M 155.96875 231.8125 L 155.96875 237.742188 L 161.890625 237.742188 L 161.890625 231.8125 Z M 155.96875 237.742188 L 155.96875 243.675781 L 161.890625 243.675781 L 161.890625 237.742188 Z M 150.046875 154.699219 L 150.046875 160.628906 L 155.96875 160.628906 L 155.96875 154.699219 Z M 150.046875 160.628906 L 150.046875 166.5625 L 155.96875 166.5625 L 155.96875 160.628906 Z M 150.046875 166.5625 L 150.046875 172.492188 L 155.96875 172.492188 L 155.96875 166.5625 Z M 150.046875 172.492188 L 150.046875 178.425781 L 155.96875 178.425781 L 155.96875 172.492188 Z M 150.046875 178.425781 L 150.046875 184.359375 L 155.96875 184.359375 L 155.96875 178.425781 Z M 150.046875 184.359375 L 150.046875 190.289062 L 155.96875 190.289062 L 155.96875 184.359375 Z M 150.046875 190.289062 L 150.046875 196.222656 L 155.96875 196.222656 L 155.96875 190.289062 Z M 150.046875 196.222656 L 150.046875 202.15625 L 155.96875 202.15625 L 155.96875 196.222656 Z M 150.046875 214.015625 L 150.046875 219.945312 L 155.96875 219.945312 L 155.96875 214.015625 Z M 150.046875 219.945312 L 150.046875 225.878906 L 155.96875 225.878906 L 155.96875 219.945312 Z M 150.046875 225.878906 L 150.046875 231.8125 L 155.96875 231.8125 L 155.96875 225.878906 Z M 150.046875 231.8125 L 150.046875 237.742188 L 155.96875 237.742188 L 155.96875 231.8125 Z M 144.121094 154.699219 L 144.121094 160.628906 L 150.046875 160.628906 L 150.046875 154.699219 Z M 144.121094 160.628906 L 144.121094 166.5625 L 150.046875 166.5625 L 150.046875 160.628906 Z M 144.121094 166.5625 L 144.121094 172.492188 L 150.046875 172.492188 L 150.046875 166.5625 Z M 144.121094 172.492188 L 144.121094 178.425781 L 150.046875 178.425781 L 150.046875 172.492188 Z M 144.121094 178.425781 L 144.121094 184.359375 L 150.046875 184.359375 L 150.046875 178.425781 Z M 144.121094 184.359375 L 144.121094 190.289062 L 150.046875 190.289062 L 150.046875 184.359375 Z M 144.121094 190.289062 L 144.121094 196.222656 L 150.046875 196.222656 L 150.046875 190.289062 Z M 144.121094 196.222656 L 144.121094 202.15625 L 150.046875 202.15625 L 150.046875 196.222656 Z M 144.121094 202.15625 L 144.121094 208.082031 L 150.046875 208.082031 L 150.046875 202.15625 Z M 144.121094 219.945312 L 144.121094 225.878906 L 150.046875 225.878906 L 150.046875 219.945312 Z M 144.121094 225.878906 L 144.121094 231.8125 L 150.046875 231.8125 L 150.046875 225.878906 Z M 144.121094 231.8125 L 144.121094 237.742188 L 150.046875 237.742188 L 150.046875 231.8125 Z M 138.199219 154.699219 L 138.199219 160.628906 L 144.121094 160.628906 L 144.121094 154.699219 Z M 138.199219 160.628906 L 138.199219 166.5625 L 144.121094 166.5625 L 144.121094 160.628906 Z M 138.199219 166.5625 L 138.199219 172.492188 L 144.121094 172.492188 L 144.121094 166.5625 Z M 138.199219 172.492188 L 138.199219 178.425781 L 144.121094 178.425781 L 144.121094 172.492188 Z M 138.199219 178.425781 L 138.199219 184.359375 L 144.121094 184.359375 L 144.121094 178.425781 Z M 138.199219 184.359375 L 138.199219 190.289062 L 144.121094 190.289062 L 144.121094 184.359375 Z M 138.199219 190.289062 L 138.199219 196.222656 L 144.121094 196.222656 L 144.121094 190.289062 Z M 138.199219 196.222656 L 138.199219 202.15625 L 144.121094 202.15625 L 144.121094 196.222656 Z M 138.199219 202.15625 L 138.199219 208.082031 L 144.121094 208.082031 L 144.121094 202.15625 Z M 138.199219 225.878906 L 138.199219 231.8125 L 144.121094 231.8125 L 144.121094 225.878906 Z M 132.277344 160.628906 L 132.277344 166.5625 L 138.199219 166.5625 L 138.199219 160.628906 Z M 132.277344 166.5625 L 132.277344 172.492188 L 138.199219 172.492188 L 138.199219 166.5625 Z M 132.277344 172.492188 L 132.277344 178.425781 L 138.199219 178.425781 L 138.199219 172.492188 Z M 132.277344 178.425781 L 132.277344 184.359375 L 138.199219 184.359375 L 138.199219 178.425781 Z M 132.277344 184.359375 L 132.277344 190.289062 L 138.199219 190.289062 L 138.199219 184.359375 Z M 132.277344 190.289062 L 132.277344 196.222656 L 138.199219 196.222656 L 138.199219 190.289062 Z M 132.277344 196.222656 L 132.277344 202.15625 L 138.199219 202.15625 L 138.199219 196.222656 Z M 132.277344 202.15625 L 132.277344 208.082031 L 138.199219 208.082031 L 138.199219 202.15625 Z M 132.277344 208.082031 L 132.277344 214.015625 L 138.199219 214.015625 L 138.199219 208.082031 Z M 126.351562 166.5625 L 126.351562 172.492188 L 132.277344 172.492188 L 132.277344 166.5625 Z M 126.351562 172.492188 L 126.351562 178.425781 L 132.277344 178.425781 L 132.277344 172.492188 Z M 126.351562 178.425781 L 126.351562 184.359375 L 132.277344 184.359375 L 132.277344 178.425781 Z M 126.351562 184.359375 L 126.351562 190.289062 L 132.277344 190.289062 L 132.277344 184.359375 Z M 126.351562 190.289062 L 126.351562 196.222656 L 132.277344 196.222656 L 132.277344 190.289062 Z M 126.351562 196.222656 L 126.351562 202.15625 L 132.277344 202.15625 L 132.277344 196.222656 Z M 126.351562 202.15625 L 126.351562 208.082031 L 132.277344 208.082031 L 132.277344 202.15625 Z M 126.351562 208.082031 L 126.351562 214.015625 L 132.277344 214.015625 L 132.277344 208.082031 Z M 120.429688 178.425781 L 120.429688 184.359375 L 126.351562 184.359375 L 126.351562 178.425781 Z M 120.429688 184.359375 L 120.429688 190.289062 L 126.351562 190.289062 L 126.351562 184.359375 Z M 120.429688 190.289062 L 120.429688 196.222656 L 126.351562 196.222656 L 126.351562 190.289062 Z M 120.429688 196.222656 L 120.429688 202.15625 L 126.351562 202.15625 L 126.351562 196.222656 Z M 120.429688 202.15625 L 120.429688 208.082031 L 126.351562 208.082031 L 126.351562 202.15625 Z M 120.429688 208.082031 L 120.429688 214.015625 L 126.351562 214.015625 L 126.351562 208.082031 Z M 114.503906 184.359375 L 114.503906 190.289062 L 120.429688 190.289062 L 120.429688 184.359375 Z M 114.503906 190.289062 L 114.503906 196.222656 L 120.429688 196.222656 L 120.429688 190.289062 Z M 114.503906 196.222656 L 114.503906 202.15625 L 120.429688 202.15625 L 120.429688 196.222656 Z M 114.503906 202.15625 L 114.503906 208.082031 L 120.429688 208.082031 L 120.429688 202.15625 Z M 114.503906 208.082031 L 114.503906 214.015625 L 120.429688 214.015625 L 120.429688 208.082031 Z M 108.582031 196.222656 L 108.582031 202.15625 L 114.503906 202.15625 L 114.503906 196.222656 Z M 102.660156 219.945312 L 102.660156 225.878906 L 108.582031 225.878906 L 108.582031 219.945312 Z M 102.660156 225.878906 L 102.660156 231.8125 L 108.582031 231.8125 L 108.582031 225.878906 Z M 102.660156 231.8125 L 102.660156 237.742188 L 108.582031 237.742188 L 108.582031 231.8125 Z M 96.734375 184.359375 L 96.734375 190.289062 L 102.660156 190.289062 L 102.660156 184.359375 Z M 96.734375 208.082031 L 96.734375 214.015625 L 102.660156 214.015625 L 102.660156 208.082031 Z M 96.734375 214.015625 L 96.734375 219.945312 L 102.660156 219.945312 L 102.660156 214.015625 Z M 96.734375 219.945312 L 96.734375 225.878906 L 102.660156 225.878906 L 102.660156 219.945312 Z M 96.734375 225.878906 L 96.734375 231.8125 L 102.660156 231.8125 L 102.660156 225.878906 Z M 96.734375 231.8125 L 96.734375 237.742188 L 102.660156 237.742188 L 102.660156 231.8125 Z M 96.734375 237.742188 L 96.734375 243.675781 L 102.660156 243.675781 L 102.660156 237.742188 Z M 90.808594 184.359375 L 90.808594 190.289062 L 96.734375 190.289062 L 96.734375 184.359375 Z M 90.808594 190.289062 L 90.808594 196.222656 L 96.734375 196.222656 L 96.734375 190.289062 Z M 90.808594 196.222656 L 90.808594 202.15625 L 96.734375 202.15625 L 96.734375 196.222656 Z M 90.808594 202.15625 L 90.808594 208.082031 L 96.734375 208.082031 L 96.734375 202.15625 Z M 90.808594 208.082031 L 90.808594 214.015625 L 96.734375 214.015625 L 96.734375 208.082031 Z M 90.808594 214.015625 L 90.808594 219.945312 L 96.734375 219.945312 L 96.734375 214.015625 Z M 90.808594 219.945312 L 90.808594 225.878906 L 96.734375 225.878906 L 96.734375 219.945312 Z M 90.808594 225.878906 L 90.808594 231.8125 L 96.734375 231.8125 L 96.734375 225.878906 Z M 90.808594 231.8125 L 90.808594 237.742188 L 96.734375 237.742188 L 96.734375 231.8125 Z M 90.808594 237.742188 L 90.808594 243.675781 L 96.734375 243.675781 L 96.734375 237.742188 Z M 84.890625 190.289062 L 84.890625 196.222656 L 90.808594 196.222656 L 90.808594 190.289062 Z M 84.890625 196.222656 L 84.890625 202.15625 L 90.808594 202.15625 L 90.808594 196.222656 Z M 84.890625 202.15625 L 84.890625 208.082031 L 90.808594 208.082031 L 90.808594 202.15625 Z M 84.890625 208.082031 L 84.890625 214.015625 L 90.808594 214.015625 L 90.808594 208.082031 Z M 84.890625 214.015625 L 84.890625 219.945312 L 90.808594 219.945312 L 90.808594 214.015625 Z M 84.890625 219.945312 L 84.890625 225.878906 L 90.808594 225.878906 L 90.808594 219.945312 Z M 84.890625 225.878906 L 84.890625 231.8125 L 90.808594 231.8125 L 90.808594 225.878906 Z M 84.890625 231.8125 L 84.890625 237.742188 L 90.808594 237.742188 L 90.808594 231.8125 Z M 84.890625 237.742188 L 84.890625 243.675781 L 90.808594 243.675781 L 90.808594 237.742188 Z M 78.964844 190.289062 L 78.964844 196.222656 L 84.890625 196.222656 L 84.890625 190.289062 Z M 78.964844 196.222656 L 78.964844 202.15625 L 84.890625 202.15625 L 84.890625 196.222656 Z M 78.964844 202.15625 L 78.964844 208.082031 L 84.890625 208.082031 L 84.890625 202.15625 Z M 78.964844 208.082031 L 78.964844 214.015625 L 84.890625 214.015625 L 84.890625 208.082031 Z M 78.964844 214.015625 L 78.964844 219.945312 L 84.890625 219.945312 L 84.890625 214.015625 Z M 78.964844 219.945312 L 78.964844 225.878906 L 84.890625 225.878906 L 84.890625 219.945312 Z M 78.964844 225.878906 L 78.964844 231.8125 L 84.890625 231.8125 L 84.890625 225.878906 Z M 78.964844 231.8125 L 78.964844 237.742188 L 84.890625 237.742188 L 84.890625 231.8125 Z M 78.964844 237.742188 L 78.964844 243.675781 L 84.890625 243.675781 L 84.890625 237.742188 Z M 73.039062 196.222656 L 73.039062 202.15625 L 78.964844 202.15625 L 78.964844 196.222656 Z M 73.039062 202.15625 L 73.039062 208.082031 L 78.964844 208.082031 L 78.964844 202.15625 Z M 73.039062 208.082031 L 73.039062 214.015625 L 78.964844 214.015625 L 78.964844 208.082031 Z M 78.964844 231.8125 L 78.964844 237.742188 L 73.039062 237.742188 L 73.039062 231.8125 L 78.964844 231.8125 " fill-opacity="1" fill-rule="nonzero"/></g><g clip-path="url(#5c718d2b26)"><path fill="#bfe9ff" d="M 321.824219 225.878906 L 321.824219 231.8125 L 327.75 231.8125 L 327.75 225.878906 Z M 321.824219 231.8125 L 321.824219 237.742188 L 327.75 237.742188 L 327.75 231.8125 Z M 321.824219 237.742188 L 321.824219 243.675781 L 327.75 243.675781 L 327.75 237.742188 Z M 315.902344 219.945312 L 315.902344 225.878906 L 321.824219 225.878906 L 321.824219 219.945312 Z M 315.902344 225.878906 L 315.902344 231.8125 L 321.824219 231.8125 L 321.824219 225.878906 Z M 315.902344 231.8125 L 315.902344 237.742188 L 321.824219 237.742188 L 321.824219 231.8125 Z M 315.902344 237.742188 L 315.902344 243.675781 L 321.824219 243.675781 L 321.824219 237.742188 Z M 315.902344 243.675781 L 315.902344 249.605469 L 321.824219 249.605469 L 321.824219 243.675781 Z M 309.976562 208.082031 L 309.976562 214.015625 L 315.902344 214.015625 L 315.902344 208.082031 Z M 309.976562 214.015625 L 309.976562 219.945312 L 315.902344 219.945312 L 315.902344 214.015625 Z M 309.976562 219.945312 L 309.976562 225.878906 L 315.902344 225.878906 L 315.902344 219.945312 Z M 309.976562 225.878906 L 309.976562 231.8125 L 315.902344 231.8125 L 315.902344 225.878906 Z M 309.976562 231.8125 L 309.976562 237.742188 L 315.902344 237.742188 L 315.902344 231.8125 Z M 309.976562 237.742188 L 309.976562 243.675781 L 315.902344 243.675781 L 315.902344 237.742188 Z M 309.976562 243.675781 L 309.976562 249.605469 L 315.902344 249.605469 L 315.902344 243.675781 Z M 309.976562 249.605469 L 309.976562 255.539062 L 315.902344 255.539062 L 315.902344 249.605469 Z M 304.054688 208.082031 L 304.054688 214.015625 L 309.976562 214.015625 L 309.976562 208.082031 Z M 304.054688 214.015625 L 304.054688 219.945312 L 309.976562 219.945312 L 309.976562 214.015625 Z M 304.054688 219.945312 L 304.054688 225.878906 L 309.976562 225.878906 L 309.976562 219.945312 Z M 304.054688 225.878906 L 304.054688 231.8125 L 309.976562 231.8125 L 309.976562 225.878906 Z M 304.054688 231.8125 L 304.054688 237.742188 L 309.976562 237.742188 L 309.976562 231.8125 Z M 304.054688 237.742188 L 304.054688 243.675781 L 309.976562 243.675781 L 309.976562 237.742188 Z M 304.054688 243.675781 L 304.054688 249.605469 L 309.976562 249.605469 L 309.976562 243.675781 Z M 304.054688 249.605469 L 304.054688 255.539062 L 309.976562 255.539062 L 309.976562 249.605469 Z M 298.132812 196.222656 L 298.132812 202.15625 L 304.054688 202.15625 L 304.054688 196.222656 Z M 298.132812 202.15625 L 298.132812 208.082031 L 304.054688 208.082031 L 304.054688 202.15625 Z M 298.132812 208.082031 L 298.132812 214.015625 L 304.054688 214.015625 L 304.054688 208.082031 Z M 298.132812 231.8125 L 298.132812 237.742188 L 304.054688 237.742188 L 304.054688 231.8125 Z M 298.132812 237.742188 L 298.132812 243.675781 L 304.054688 243.675781 L 304.054688 237.742188 Z M 298.132812 243.675781 L 298.132812 249.605469 L 304.054688 249.605469 L 304.054688 243.675781 Z M 298.132812 249.605469 L 298.132812 255.539062 L 304.054688 255.539062 L 304.054688 249.605469 Z M 292.210938 196.222656 L 292.210938 202.15625 L 298.132812 202.15625 L 298.132812 196.222656 Z M 292.210938 202.15625 L 292.210938 208.082031 L 298.132812 208.082031 L 298.132812 202.15625 Z M 292.210938 225.878906 L 292.210938 231.8125 L 298.132812 231.8125 L 298.132812 225.878906 Z M 292.210938 231.8125 L 292.210938 237.742188 L 298.132812 237.742188 L 298.132812 231.8125 Z M 292.210938 237.742188 L 292.210938 243.675781 L 298.132812 243.675781 L 298.132812 237.742188 Z M 292.210938 243.675781 L 292.210938 249.605469 L 298.132812 249.605469 L 298.132812 243.675781 Z M 292.210938 249.605469 L 292.210938 255.539062 L 298.132812 255.539062 L 298.132812 249.605469 Z M 286.285156 190.289062 L 286.285156 196.222656 L 292.210938 196.222656 L 292.210938 190.289062 Z M 286.285156 196.222656 L 286.285156 202.15625 L 292.210938 202.15625 L 292.210938 196.222656 Z M 286.285156 225.878906 L 286.285156 231.8125 L 292.210938 231.8125 L 292.210938 225.878906 Z M 286.285156 231.8125 L 286.285156 237.742188 L 292.210938 237.742188 L 292.210938 231.8125 Z M 286.285156 237.742188 L 286.285156 243.675781 L 292.210938 243.675781 L 292.210938 237.742188 Z M 286.285156 243.675781 L 286.285156 249.605469 L 292.210938 249.605469 L 292.210938 243.675781 Z M 286.285156 249.605469 L 286.285156 255.539062 L 292.210938 255.539062 L 292.210938 249.605469 Z M 280.359375 190.289062 L 280.359375 196.222656 L 286.285156 196.222656 L 286.285156 190.289062 Z M 280.359375 196.222656 L 280.359375 202.15625 L 286.285156 202.15625 L 286.285156 196.222656 Z M 280.359375 231.8125 L 280.359375 237.742188 L 286.285156 237.742188 L 286.285156 231.8125 Z M 280.359375 237.742188 L 280.359375 243.675781 L 286.285156 243.675781 L 286.285156 237.742188 Z M 280.359375 243.675781 L 280.359375 249.605469 L 286.285156 249.605469 L 286.285156 243.675781 Z M 280.359375 249.605469 L 280.359375 255.539062 L 286.285156 255.539062 L 286.285156 249.605469 Z M 274.4375 142.835938 L 274.4375 148.765625 L 280.359375 148.765625 L 280.359375 142.835938 Z M 274.4375 148.765625 L 274.4375 154.699219 L 280.359375 154.699219 L 280.359375 148.765625 Z M 274.4375 190.289062 L 274.4375 196.222656 L 280.359375 196.222656 L 280.359375 190.289062 Z M 274.4375 196.222656 L 274.4375 202.15625 L 280.359375 202.15625 L 280.359375 196.222656 Z M 274.4375 237.742188 L 274.4375 243.675781 L 280.359375 243.675781 L 280.359375 237.742188 Z M 274.4375 243.675781 L 274.4375 249.605469 L 280.359375 249.605469 L 280.359375 243.675781 Z M 274.4375 249.605469 L 274.4375 255.539062 L 280.359375 255.539062 L 280.359375 249.605469 Z M 268.515625 154.699219 L 268.515625 160.628906 L 274.4375 160.628906 L 274.4375 154.699219 Z M 268.515625 190.289062 L 268.515625 196.222656 L 274.4375 196.222656 L 274.4375 190.289062 Z M 268.515625 196.222656 L 268.515625 202.15625 L 274.4375 202.15625 L 274.4375 196.222656 Z M 268.515625 243.675781 L 268.515625 249.605469 L 274.4375 249.605469 L 274.4375 243.675781 Z M 268.515625 249.605469 L 268.515625 255.539062 L 274.4375 255.539062 L 274.4375 249.605469 Z M 262.59375 160.628906 L 262.59375 166.5625 L 268.515625 166.5625 L 268.515625 160.628906 Z M 262.59375 166.5625 L 262.59375 172.492188 L 268.515625 172.492188 L 268.515625 166.5625 Z M 262.59375 196.222656 L 262.59375 202.15625 L 268.515625 202.15625 L 268.515625 196.222656 Z M 262.59375 202.15625 L 262.59375 208.082031 L 268.515625 208.082031 L 268.515625 202.15625 Z M 262.59375 243.675781 L 262.59375 249.605469 L 268.515625 249.605469 L 268.515625 243.675781 Z M 262.59375 249.605469 L 262.59375 255.539062 L 268.515625 255.539062 L 268.515625 249.605469 Z M 256.667969 196.222656 L 256.667969 202.15625 L 262.59375 202.15625 L 262.59375 196.222656 Z M 256.667969 202.15625 L 256.667969 208.082031 L 262.59375 208.082031 L 262.59375 202.15625 Z M 256.667969 243.675781 L 256.667969 249.605469 L 262.59375 249.605469 L 262.59375 243.675781 Z M 256.667969 249.605469 L 256.667969 255.539062 L 262.59375 255.539062 L 262.59375 249.605469 Z M 250.742188 202.15625 L 250.742188 208.082031 L 256.667969 208.082031 L 256.667969 202.15625 Z M 250.742188 243.675781 L 250.742188 249.605469 L 256.667969 249.605469 L 256.667969 243.675781 Z M 250.742188 249.605469 L 250.742188 255.539062 L 256.667969 255.539062 L 256.667969 249.605469 Z M 244.820312 202.15625 L 244.820312 208.082031 L 250.742188 208.082031 L 250.742188 202.15625 Z M 244.820312 243.675781 L 244.820312 249.605469 L 250.742188 249.605469 L 250.742188 243.675781 Z M 244.820312 249.605469 L 244.820312 255.539062 L 250.742188 255.539062 L 250.742188 249.605469 Z M 238.898438 237.742188 L 238.898438 243.675781 L 244.820312 243.675781 L 244.820312 237.742188 Z M 238.898438 243.675781 L 238.898438 249.605469 L 244.820312 249.605469 L 244.820312 243.675781 Z M 238.898438 249.605469 L 238.898438 255.539062 L 244.820312 255.539062 L 244.820312 249.605469 Z M 232.972656 166.5625 L 232.972656 172.492188 L 238.898438 172.492188 L 238.898438 166.5625 Z M 232.972656 172.492188 L 232.972656 178.425781 L 238.898438 178.425781 L 238.898438 172.492188 Z M 232.972656 214.015625 L 232.972656 219.945312 L 238.898438 219.945312 L 238.898438 214.015625 Z M 232.972656 237.742188 L 232.972656 243.675781 L 238.898438 243.675781 L 238.898438 237.742188 Z M 232.972656 243.675781 L 232.972656 249.605469 L 238.898438 249.605469 L 238.898438 243.675781 Z M 232.972656 249.605469 L 232.972656 255.539062 L 238.898438 255.539062 L 238.898438 249.605469 Z M 227.050781 107.246094 L 227.050781 113.175781 L 232.972656 113.175781 L 232.972656 107.246094 Z M 227.050781 160.628906 L 227.050781 166.5625 L 232.972656 166.5625 L 232.972656 160.628906 Z M 227.050781 166.5625 L 227.050781 172.492188 L 232.972656 172.492188 L 232.972656 166.5625 Z M 227.050781 214.015625 L 227.050781 219.945312 L 232.972656 219.945312 L 232.972656 214.015625 Z M 227.050781 219.945312 L 227.050781 225.878906 L 232.972656 225.878906 L 232.972656 219.945312 Z M 227.050781 231.8125 L 227.050781 237.742188 L 232.972656 237.742188 L 232.972656 231.8125 Z M 227.050781 237.742188 L 227.050781 243.675781 L 232.972656 243.675781 L 232.972656 237.742188 Z M 227.050781 243.675781 L 227.050781 249.605469 L 232.972656 249.605469 L 232.972656 243.675781 Z M 227.050781 249.605469 L 227.050781 255.539062 L 232.972656 255.539062 L 232.972656 249.605469 Z M 221.128906 107.246094 L 221.128906 113.175781 L 227.050781 113.175781 L 227.050781 107.246094 Z M 221.128906 160.628906 L 221.128906 166.5625 L 227.050781 166.5625 L 227.050781 160.628906 Z M 221.128906 219.945312 L 221.128906 225.878906 L 227.050781 225.878906 L 227.050781 219.945312 Z M 221.128906 225.878906 L 221.128906 231.8125 L 227.050781 231.8125 L 227.050781 225.878906 Z M 221.128906 231.8125 L 221.128906 237.742188 L 227.050781 237.742188 L 227.050781 231.8125 Z M 221.128906 237.742188 L 221.128906 243.675781 L 227.050781 243.675781 L 227.050781 237.742188 Z M 221.128906 243.675781 L 221.128906 249.605469 L 227.050781 249.605469 L 227.050781 243.675781 Z M 221.128906 249.605469 L 221.128906 255.539062 L 227.050781 255.539062 L 227.050781 249.605469 Z M 215.203125 107.246094 L 215.203125 113.175781 L 221.128906 113.175781 L 221.128906 107.246094 Z M 215.203125 160.628906 L 215.203125 166.5625 L 221.128906 166.5625 L 221.128906 160.628906 Z M 215.203125 166.5625 L 215.203125 172.492188 L 221.128906 172.492188 L 221.128906 166.5625 Z M 215.203125 225.878906 L 215.203125 231.8125 L 221.128906 231.8125 L 221.128906 225.878906 Z M 215.203125 231.8125 L 215.203125 237.742188 L 221.128906 237.742188 L 221.128906 231.8125 Z M 215.203125 237.742188 L 215.203125 243.675781 L 221.128906 243.675781 L 221.128906 237.742188 Z M 215.203125 243.675781 L 215.203125 249.605469 L 221.128906 249.605469 L 221.128906 243.675781 Z M 215.203125 249.605469 L 215.203125 255.539062 L 221.128906 255.539062 L 221.128906 249.605469 Z M 209.277344 107.246094 L 209.277344 113.175781 L 215.203125 113.175781 L 215.203125 107.246094 Z M 209.277344 113.175781 L 209.277344 119.109375 L 215.203125 119.109375 L 215.203125 113.175781 Z M 209.277344 160.628906 L 209.277344 166.5625 L 215.203125 166.5625 L 215.203125 160.628906 Z M 209.277344 166.5625 L 209.277344 172.492188 L 215.203125 172.492188 L 215.203125 166.5625 Z M 209.277344 237.742188 L 209.277344 243.675781 L 215.203125 243.675781 L 215.203125 237.742188 Z M 209.277344 243.675781 L 209.277344 249.605469 L 215.203125 249.605469 L 215.203125 243.675781 Z M 209.277344 249.605469 L 209.277344 255.539062 L 215.203125 255.539062 L 215.203125 249.605469 Z M 203.359375 107.246094 L 203.359375 113.175781 L 209.277344 113.175781 L 209.277344 107.246094 Z M 203.359375 113.175781 L 203.359375 119.109375 L 209.277344 119.109375 L 209.277344 113.175781 Z M 203.359375 160.628906 L 203.359375 166.5625 L 209.277344 166.5625 L 209.277344 160.628906 Z M 203.359375 166.5625 L 203.359375 172.492188 L 209.277344 172.492188 L 209.277344 166.5625 Z M 203.359375 237.742188 L 203.359375 243.675781 L 209.277344 243.675781 L 209.277344 237.742188 Z M 203.359375 243.675781 L 203.359375 249.605469 L 209.277344 249.605469 L 209.277344 243.675781 Z M 203.359375 249.605469 L 203.359375 255.539062 L 209.277344 255.539062 L 209.277344 249.605469 Z M 197.433594 113.175781 L 197.433594 119.109375 L 203.359375 119.109375 L 203.359375 113.175781 Z M 197.433594 119.109375 L 197.433594 125.039062 L 203.359375 125.039062 L 203.359375 119.109375 Z M 197.433594 166.5625 L 197.433594 172.492188 L 203.359375 172.492188 L 203.359375 166.5625 Z M 197.433594 172.492188 L 197.433594 178.425781 L 203.359375 178.425781 L 203.359375 172.492188 Z M 197.433594 214.015625 L 197.433594 219.945312 L 203.359375 219.945312 L 203.359375 214.015625 Z M 197.433594 243.675781 L 197.433594 249.605469 L 203.359375 249.605469 L 203.359375 243.675781 Z M 197.433594 249.605469 L 197.433594 255.539062 L 203.359375 255.539062 L 203.359375 249.605469 Z M 191.507812 113.175781 L 191.507812 119.109375 L 197.433594 119.109375 L 197.433594 113.175781 Z M 191.507812 119.109375 L 191.507812 125.039062 L 197.433594 125.039062 L 197.433594 119.109375 Z M 191.507812 166.5625 L 191.507812 172.492188 L 197.433594 172.492188 L 197.433594 166.5625 Z M 191.507812 172.492188 L 191.507812 178.425781 L 197.433594 178.425781 L 197.433594 172.492188 Z M 191.507812 208.082031 L 191.507812 214.015625 L 197.433594 214.015625 L 197.433594 208.082031 Z M 191.507812 243.675781 L 191.507812 249.605469 L 197.433594 249.605469 L 197.433594 243.675781 Z M 191.507812 249.605469 L 191.507812 255.539062 L 197.433594 255.539062 L 197.433594 249.605469 Z M 185.585938 113.175781 L 185.585938 119.109375 L 191.507812 119.109375 L 191.507812 113.175781 Z M 185.585938 119.109375 L 185.585938 125.039062 L 191.507812 125.039062 L 191.507812 119.109375 Z M 185.585938 172.492188 L 185.585938 178.425781 L 191.507812 178.425781 L 191.507812 172.492188 Z M 185.585938 178.425781 L 185.585938 184.359375 L 191.507812 184.359375 L 191.507812 178.425781 Z M 185.585938 184.359375 L 185.585938 190.289062 L 191.507812 190.289062 L 191.507812 184.359375 Z M 185.585938 202.15625 L 185.585938 208.082031 L 191.507812 208.082031 L 191.507812 202.15625 Z M 185.585938 243.675781 L 185.585938 249.605469 L 191.507812 249.605469 L 191.507812 243.675781 Z M 185.585938 249.605469 L 185.585938 255.539062 L 191.507812 255.539062 L 191.507812 249.605469 Z M 179.664062 119.109375 L 179.664062 125.039062 L 185.585938 125.039062 L 185.585938 119.109375 Z M 179.664062 125.039062 L 179.664062 130.972656 L 185.585938 130.972656 L 185.585938 125.039062 Z M 179.664062 172.492188 L 179.664062 178.425781 L 185.585938 178.425781 L 185.585938 172.492188 Z M 179.664062 178.425781 L 179.664062 184.359375 L 185.585938 184.359375 L 185.585938 178.425781 Z M 179.664062 184.359375 L 179.664062 190.289062 L 185.585938 190.289062 L 185.585938 184.359375 Z M 179.664062 190.289062 L 179.664062 196.222656 L 185.585938 196.222656 L 185.585938 190.289062 Z M 179.664062 196.222656 L 179.664062 202.15625 L 185.585938 202.15625 L 185.585938 196.222656 Z M 179.664062 202.15625 L 179.664062 208.082031 L 185.585938 208.082031 L 185.585938 202.15625 Z M 179.664062 243.675781 L 179.664062 249.605469 L 185.585938 249.605469 L 185.585938 243.675781 Z M 179.664062 249.605469 L 179.664062 255.539062 L 185.585938 255.539062 L 185.585938 249.605469 Z M 173.742188 119.109375 L 173.742188 125.039062 L 179.664062 125.039062 L 179.664062 119.109375 Z M 173.742188 125.039062 L 173.742188 130.972656 L 179.664062 130.972656 L 179.664062 125.039062 Z M 173.742188 130.972656 L 173.742188 136.90625 L 179.664062 136.90625 L 179.664062 130.972656 Z M 173.742188 184.359375 L 173.742188 190.289062 L 179.664062 190.289062 L 179.664062 184.359375 Z M 173.742188 190.289062 L 173.742188 196.222656 L 179.664062 196.222656 L 179.664062 190.289062 Z M 173.742188 196.222656 L 173.742188 202.15625 L 179.664062 202.15625 L 179.664062 196.222656 Z M 173.742188 202.15625 L 173.742188 208.082031 L 179.664062 208.082031 L 179.664062 202.15625 Z M 173.742188 243.675781 L 173.742188 249.605469 L 179.664062 249.605469 L 179.664062 243.675781 Z M 173.742188 249.605469 L 173.742188 255.539062 L 179.664062 255.539062 L 179.664062 249.605469 Z M 167.816406 125.039062 L 167.816406 130.972656 L 173.742188 130.972656 L 173.742188 125.039062 Z M 167.816406 130.972656 L 167.816406 136.90625 L 173.742188 136.90625 L 173.742188 130.972656 Z M 167.816406 136.90625 L 167.816406 142.835938 L 173.742188 142.835938 L 173.742188 136.90625 Z M 167.816406 154.699219 L 167.816406 160.628906 L 173.742188 160.628906 L 173.742188 154.699219 Z M 167.816406 160.628906 L 167.816406 166.5625 L 173.742188 166.5625 L 173.742188 160.628906 Z M 167.816406 196.222656 L 167.816406 202.15625 L 173.742188 202.15625 L 173.742188 196.222656 Z M 167.816406 202.15625 L 167.816406 208.082031 L 173.742188 208.082031 L 173.742188 202.15625 Z M 167.816406 243.675781 L 167.816406 249.605469 L 173.742188 249.605469 L 173.742188 243.675781 Z M 167.816406 249.605469 L 167.816406 255.539062 L 173.742188 255.539062 L 173.742188 249.605469 Z M 161.890625 136.90625 L 161.890625 142.835938 L 167.816406 142.835938 L 167.816406 136.90625 Z M 161.890625 142.835938 L 161.890625 148.765625 L 167.816406 148.765625 L 167.816406 142.835938 Z M 161.890625 148.765625 L 161.890625 154.699219 L 167.816406 154.699219 L 167.816406 148.765625 Z M 161.890625 196.222656 L 161.890625 202.15625 L 167.816406 202.15625 L 167.816406 196.222656 Z M 161.890625 202.15625 L 161.890625 208.082031 L 167.816406 208.082031 L 167.816406 202.15625 Z M 161.890625 243.675781 L 161.890625 249.605469 L 167.816406 249.605469 L 167.816406 243.675781 Z M 161.890625 249.605469 L 161.890625 255.539062 L 167.816406 255.539062 L 167.816406 249.605469 Z M 155.96875 142.835938 L 155.96875 148.765625 L 161.890625 148.765625 L 161.890625 142.835938 Z M 155.96875 148.765625 L 155.96875 154.699219 L 161.890625 154.699219 L 161.890625 148.765625 Z M 155.96875 196.222656 L 155.96875 202.15625 L 161.890625 202.15625 L 161.890625 196.222656 Z M 155.96875 202.15625 L 155.96875 208.082031 L 161.890625 208.082031 L 161.890625 202.15625 Z M 155.96875 208.082031 L 155.96875 214.015625 L 161.890625 214.015625 L 161.890625 208.082031 Z M 155.96875 243.675781 L 155.96875 249.605469 L 161.890625 249.605469 L 161.890625 243.675781 Z M 155.96875 249.605469 L 155.96875 255.539062 L 161.890625 255.539062 L 161.890625 249.605469 Z M 150.046875 142.835938 L 150.046875 148.765625 L 155.96875 148.765625 L 155.96875 142.835938 Z M 150.046875 148.765625 L 150.046875 154.699219 L 155.96875 154.699219 L 155.96875 148.765625 Z M 150.046875 202.15625 L 150.046875 208.082031 L 155.96875 208.082031 L 155.96875 202.15625 Z M 150.046875 208.082031 L 150.046875 214.015625 L 155.96875 214.015625 L 155.96875 208.082031 Z M 150.046875 237.742188 L 150.046875 243.675781 L 155.96875 243.675781 L 155.96875 237.742188 Z M 150.046875 243.675781 L 150.046875 249.605469 L 155.96875 249.605469 L 155.96875 243.675781 Z M 150.046875 249.605469 L 150.046875 255.539062 L 155.96875 255.539062 L 155.96875 249.605469 Z M 144.121094 142.835938 L 144.121094 148.765625 L 150.046875 148.765625 L 150.046875 142.835938 Z M 144.121094 148.765625 L 144.121094 154.699219 L 150.046875 154.699219 L 150.046875 148.765625 Z M 144.121094 208.082031 L 144.121094 214.015625 L 150.046875 214.015625 L 150.046875 208.082031 Z M 144.121094 214.015625 L 144.121094 219.945312 L 150.046875 219.945312 L 150.046875 214.015625 Z M 144.121094 237.742188 L 144.121094 243.675781 L 150.046875 243.675781 L 150.046875 237.742188 Z M 144.121094 243.675781 L 144.121094 249.605469 L 150.046875 249.605469 L 150.046875 243.675781 Z M 144.121094 249.605469 L 144.121094 255.539062 L 150.046875 255.539062 L 150.046875 249.605469 Z M 138.199219 142.835938 L 138.199219 148.765625 L 144.121094 148.765625 L 144.121094 142.835938 Z M 138.199219 148.765625 L 138.199219 154.699219 L 144.121094 154.699219 L 144.121094 148.765625 Z M 138.199219 208.082031 L 138.199219 214.015625 L 144.121094 214.015625 L 144.121094 208.082031 Z M 138.199219 214.015625 L 138.199219 219.945312 L 144.121094 219.945312 L 144.121094 214.015625 Z M 138.199219 219.945312 L 138.199219 225.878906 L 144.121094 225.878906 L 144.121094 219.945312 Z M 138.199219 231.8125 L 138.199219 237.742188 L 144.121094 237.742188 L 144.121094 231.8125 Z M 138.199219 237.742188 L 138.199219 243.675781 L 144.121094 243.675781 L 144.121094 237.742188 Z M 138.199219 243.675781 L 138.199219 249.605469 L 144.121094 249.605469 L 144.121094 243.675781 Z M 138.199219 249.605469 L 138.199219 255.539062 L 144.121094 255.539062 L 144.121094 249.605469 Z M 132.277344 148.765625 L 132.277344 154.699219 L 138.199219 154.699219 L 138.199219 148.765625 Z M 132.277344 154.699219 L 132.277344 160.628906 L 138.199219 160.628906 L 138.199219 154.699219 Z M 132.277344 214.015625 L 132.277344 219.945312 L 138.199219 219.945312 L 138.199219 214.015625 Z M 132.277344 219.945312 L 132.277344 225.878906 L 138.199219 225.878906 L 138.199219 219.945312 Z M 132.277344 225.878906 L 132.277344 231.8125 L 138.199219 231.8125 L 138.199219 225.878906 Z M 132.277344 231.8125 L 132.277344 237.742188 L 138.199219 237.742188 L 138.199219 231.8125 Z M 132.277344 237.742188 L 132.277344 243.675781 L 138.199219 243.675781 L 138.199219 237.742188 Z M 132.277344 243.675781 L 132.277344 249.605469 L 138.199219 249.605469 L 138.199219 243.675781 Z M 132.277344 249.605469 L 132.277344 255.539062 L 138.199219 255.539062 L 138.199219 249.605469 Z M 126.351562 148.765625 L 126.351562 154.699219 L 132.277344 154.699219 L 132.277344 148.765625 Z M 126.351562 154.699219 L 126.351562 160.628906 L 132.277344 160.628906 L 132.277344 154.699219 Z M 126.351562 160.628906 L 126.351562 166.5625 L 132.277344 166.5625 L 132.277344 160.628906 Z M 126.351562 214.015625 L 126.351562 219.945312 L 132.277344 219.945312 L 132.277344 214.015625 Z M 126.351562 219.945312 L 126.351562 225.878906 L 132.277344 225.878906 L 132.277344 219.945312 Z M 126.351562 225.878906 L 126.351562 231.8125 L 132.277344 231.8125 L 132.277344 225.878906 Z M 126.351562 231.8125 L 126.351562 237.742188 L 132.277344 237.742188 L 132.277344 231.8125 Z M 126.351562 237.742188 L 126.351562 243.675781 L 132.277344 243.675781 L 132.277344 237.742188 Z M 126.351562 243.675781 L 126.351562 249.605469 L 132.277344 249.605469 L 132.277344 243.675781 Z M 126.351562 249.605469 L 126.351562 255.539062 L 132.277344 255.539062 L 132.277344 249.605469 Z M 120.429688 154.699219 L 120.429688 160.628906 L 126.351562 160.628906 L 126.351562 154.699219 Z M 120.429688 160.628906 L 120.429688 166.5625 L 126.351562 166.5625 L 126.351562 160.628906 Z M 120.429688 166.5625 L 120.429688 172.492188 L 126.351562 172.492188 L 126.351562 166.5625 Z M 120.429688 172.492188 L 120.429688 178.425781 L 126.351562 178.425781 L 126.351562 172.492188 Z M 120.429688 214.015625 L 120.429688 219.945312 L 126.351562 219.945312 L 126.351562 214.015625 Z M 120.429688 219.945312 L 120.429688 225.878906 L 126.351562 225.878906 L 126.351562 219.945312 Z M 120.429688 225.878906 L 120.429688 231.8125 L 126.351562 231.8125 L 126.351562 225.878906 Z M 120.429688 231.8125 L 120.429688 237.742188 L 126.351562 237.742188 L 126.351562 231.8125 Z M 120.429688 237.742188 L 120.429688 243.675781 L 126.351562 243.675781 L 126.351562 237.742188 Z M 120.429688 243.675781 L 120.429688 249.605469 L 126.351562 249.605469 L 126.351562 243.675781 Z M 120.429688 249.605469 L 120.429688 255.539062 L 126.351562 255.539062 L 126.351562 249.605469 Z M 114.503906 166.5625 L 114.503906 172.492188 L 120.429688 172.492188 L 120.429688 166.5625 Z M 114.503906 172.492188 L 114.503906 178.425781 L 120.429688 178.425781 L 120.429688 172.492188 Z M 114.503906 178.425781 L 114.503906 184.359375 L 120.429688 184.359375 L 120.429688 178.425781 Z M 114.503906 214.015625 L 114.503906 219.945312 L 120.429688 219.945312 L 120.429688 214.015625 Z M 114.503906 219.945312 L 114.503906 225.878906 L 120.429688 225.878906 L 120.429688 219.945312 Z M 114.503906 225.878906 L 114.503906 231.8125 L 120.429688 231.8125 L 120.429688 225.878906 Z M 114.503906 231.8125 L 114.503906 237.742188 L 120.429688 237.742188 L 120.429688 231.8125 Z M 114.503906 237.742188 L 114.503906 243.675781 L 120.429688 243.675781 L 120.429688 237.742188 Z M 114.503906 243.675781 L 114.503906 249.605469 L 120.429688 249.605469 L 120.429688 243.675781 Z M 114.503906 249.605469 L 114.503906 255.539062 L 120.429688 255.539062 L 120.429688 249.605469 Z M 108.582031 178.425781 L 108.582031 184.359375 L 114.503906 184.359375 L 114.503906 178.425781 Z M 108.582031 184.359375 L 108.582031 190.289062 L 114.503906 190.289062 L 114.503906 184.359375 Z M 108.582031 190.289062 L 108.582031 196.222656 L 114.503906 196.222656 L 114.503906 190.289062 Z M 108.582031 202.15625 L 108.582031 208.082031 L 114.503906 208.082031 L 114.503906 202.15625 Z M 108.582031 208.082031 L 108.582031 214.015625 L 114.503906 214.015625 L 114.503906 208.082031 Z M 108.582031 214.015625 L 108.582031 219.945312 L 114.503906 219.945312 L 114.503906 214.015625 Z M 108.582031 219.945312 L 108.582031 225.878906 L 114.503906 225.878906 L 114.503906 219.945312 Z M 108.582031 225.878906 L 108.582031 231.8125 L 114.503906 231.8125 L 114.503906 225.878906 Z M 108.582031 231.8125 L 108.582031 237.742188 L 114.503906 237.742188 L 114.503906 231.8125 Z M 108.582031 237.742188 L 108.582031 243.675781 L 114.503906 243.675781 L 114.503906 237.742188 Z M 108.582031 243.675781 L 108.582031 249.605469 L 114.503906 249.605469 L 114.503906 243.675781 Z M 108.582031 249.605469 L 108.582031 255.539062 L 114.503906 255.539062 L 114.503906 249.605469 Z M 102.660156 172.492188 L 102.660156 178.425781 L 108.582031 178.425781 L 108.582031 172.492188 Z M 102.660156 178.425781 L 102.660156 184.359375 L 108.582031 184.359375 L 108.582031 178.425781 Z M 102.660156 184.359375 L 102.660156 190.289062 L 108.582031 190.289062 L 108.582031 184.359375 Z M 102.660156 190.289062 L 102.660156 196.222656 L 108.582031 196.222656 L 108.582031 190.289062 Z M 102.660156 196.222656 L 102.660156 202.15625 L 108.582031 202.15625 L 108.582031 196.222656 Z M 102.660156 202.15625 L 102.660156 208.082031 L 108.582031 208.082031 L 108.582031 202.15625 Z M 102.660156 208.082031 L 102.660156 214.015625 L 108.582031 214.015625 L 108.582031 208.082031 Z M 102.660156 214.015625 L 102.660156 219.945312 L 108.582031 219.945312 L 108.582031 214.015625 Z M 102.660156 237.742188 L 102.660156 243.675781 L 108.582031 243.675781 L 108.582031 237.742188 Z M 102.660156 243.675781 L 102.660156 249.605469 L 108.582031 249.605469 L 108.582031 243.675781 Z M 102.660156 249.605469 L 102.660156 255.539062 L 108.582031 255.539062 L 108.582031 249.605469 Z M 96.734375 172.492188 L 96.734375 178.425781 L 102.660156 178.425781 L 102.660156 172.492188 Z M 96.734375 178.425781 L 96.734375 184.359375 L 102.660156 184.359375 L 102.660156 178.425781 Z M 96.734375 190.289062 L 96.734375 196.222656 L 102.660156 196.222656 L 102.660156 190.289062 Z M 96.734375 196.222656 L 96.734375 202.15625 L 102.660156 202.15625 L 102.660156 196.222656 Z M 96.734375 202.15625 L 96.734375 208.082031 L 102.660156 208.082031 L 102.660156 202.15625 Z M 96.734375 243.675781 L 96.734375 249.605469 L 102.660156 249.605469 L 102.660156 243.675781 Z M 96.734375 249.605469 L 96.734375 255.539062 L 102.660156 255.539062 L 102.660156 249.605469 Z M 90.808594 172.492188 L 90.808594 178.425781 L 96.734375 178.425781 L 96.734375 172.492188 Z M 90.808594 178.425781 L 90.808594 184.359375 L 96.734375 184.359375 L 96.734375 178.425781 Z M 90.808594 243.675781 L 90.808594 249.605469 L 96.734375 249.605469 L 96.734375 243.675781 Z M 90.808594 249.605469 L 90.808594 255.539062 L 96.734375 255.539062 L 96.734375 249.605469 Z M 84.890625 178.425781 L 84.890625 184.359375 L 90.808594 184.359375 L 90.808594 178.425781 Z M 84.890625 184.359375 L 84.890625 190.289062 L 90.808594 190.289062 L 90.808594 184.359375 Z M 84.890625 243.675781 L 84.890625 249.605469 L 90.808594 249.605469 L 90.808594 243.675781 Z M 84.890625 249.605469 L 84.890625 255.539062 L 90.808594 255.539062 L 90.808594 249.605469 Z M 78.964844 178.425781 L 78.964844 184.359375 L 84.890625 184.359375 L 84.890625 178.425781 Z M 78.964844 184.359375 L 78.964844 190.289062 L 84.890625 190.289062 L 84.890625 184.359375 Z M 78.964844 243.675781 L 78.964844 249.605469 L 84.890625 249.605469 L 84.890625 243.675781 Z M 78.964844 249.605469 L 78.964844 255.539062 L 84.890625 255.539062 L 84.890625 249.605469 Z M 73.039062 178.425781 L 73.039062 184.359375 L 78.964844 184.359375 L 78.964844 178.425781 Z M 73.039062 184.359375 L 73.039062 190.289062 L 78.964844 190.289062 L 78.964844 184.359375 Z M 73.039062 190.289062 L 73.039062 196.222656 L 78.964844 196.222656 L 78.964844 190.289062 Z M 73.039062 214.015625 L 73.039062 219.945312 L 78.964844 219.945312 L 78.964844 214.015625 Z M 73.039062 219.945312 L 73.039062 225.878906 L 78.964844 225.878906 L 78.964844 219.945312 Z M 73.039062 225.878906 L 73.039062 231.8125 L 78.964844 231.8125 L 78.964844 225.878906 Z M 73.039062 237.742188 L 73.039062 243.675781 L 78.964844 243.675781 L 78.964844 237.742188 Z M 73.039062 243.675781 L 73.039062 249.605469 L 78.964844 249.605469 L 78.964844 243.675781 Z M 73.039062 249.605469 L 73.039062 255.539062 L 78.964844 255.539062 L 78.964844 249.605469 Z M 67.117188 184.359375 L 67.117188 190.289062 L 73.039062 190.289062 L 73.039062 184.359375 Z M 67.117188 190.289062 L 67.117188 196.222656 L 73.039062 196.222656 L 73.039062 190.289062 Z M 67.117188 196.222656 L 67.117188 202.15625 L 73.039062 202.15625 L 73.039062 196.222656 Z M 67.117188 202.15625 L 67.117188 208.082031 L 73.039062 208.082031 L 73.039062 202.15625 Z M 67.117188 208.082031 L 67.117188 214.015625 L 73.039062 214.015625 L 73.039062 208.082031 Z M 67.117188 214.015625 L 67.117188 219.945312 L 73.039062 219.945312 L 73.039062 214.015625 Z M 67.117188 219.945312 L 67.117188 225.878906 L 73.039062 225.878906 L 73.039062 219.945312 Z M 67.117188 225.878906 L 67.117188 231.8125 L 73.039062 231.8125 L 73.039062 225.878906 Z M 67.117188 231.8125 L 67.117188 237.742188 L 73.039062 237.742188 L 73.039062 231.8125 Z M 67.117188 237.742188 L 67.117188 243.675781 L 73.039062 243.675781 L 73.039062 237.742188 Z M 67.117188 243.675781 L 67.117188 249.605469 L 73.039062 249.605469 L 73.039062 243.675781 Z M 67.117188 249.605469 L 67.117188 255.539062 L 73.039062 255.539062 L 73.039062 249.605469 Z M 61.195312 190.289062 L 61.195312 196.222656 L 67.117188 196.222656 L 67.117188 190.289062 Z M 61.195312 196.222656 L 61.195312 202.15625 L 67.117188 202.15625 L 67.117188 196.222656 Z M 61.195312 202.15625 L 61.195312 208.082031 L 67.117188 208.082031 L 67.117188 202.15625 Z M 61.195312 208.082031 L 61.195312 214.015625 L 67.117188 214.015625 L 67.117188 208.082031 Z M 61.195312 214.015625 L 61.195312 219.945312 L 67.117188 219.945312 L 67.117188 214.015625 Z M 61.195312 219.945312 L 61.195312 225.878906 L 67.117188 225.878906 L 67.117188 219.945312 Z M 61.195312 225.878906 L 61.195312 231.8125 L 67.117188 231.8125 L 67.117188 225.878906 Z M 61.195312 231.8125 L 61.195312 237.742188 L 67.117188 237.742188 L 67.117188 231.8125 Z M 61.195312 237.742188 L 61.195312 243.675781 L 67.117188 243.675781 L 67.117188 237.742188 Z M 61.195312 243.675781 L 61.195312 249.605469 L 67.117188 249.605469 L 67.117188 243.675781 Z M 61.195312 249.605469 L 61.195312 255.539062 L 67.117188 255.539062 L 67.117188 249.605469 Z M 55.273438 196.222656 L 55.273438 202.15625 L 61.195312 202.15625 L 61.195312 196.222656 Z M 55.273438 202.15625 L 55.273438 208.082031 L 61.195312 208.082031 L 61.195312 202.15625 Z M 55.273438 208.082031 L 55.273438 214.015625 L 61.195312 214.015625 L 61.195312 208.082031 Z M 55.273438 214.015625 L 55.273438 219.945312 L 61.195312 219.945312 L 61.195312 214.015625 Z M 55.273438 219.945312 L 55.273438 225.878906 L 61.195312 225.878906 L 61.195312 219.945312 Z M 55.273438 225.878906 L 55.273438 231.8125 L 61.195312 231.8125 L 61.195312 225.878906 Z M 55.273438 231.8125 L 55.273438 237.742188 L 61.195312 237.742188 L 61.195312 231.8125 Z M 55.273438 237.742188 L 55.273438 243.675781 L 61.195312 243.675781 L 61.195312 237.742188 Z M 55.273438 243.675781 L 55.273438 249.605469 L 61.195312 249.605469 L 61.195312 243.675781 Z M 55.273438 249.605469 L 55.273438 255.539062 L 61.195312 255.539062 L 61.195312 249.605469 Z M 49.347656 208.082031 L 49.347656 214.015625 L 55.273438 214.015625 L 55.273438 208.082031 Z M 49.347656 214.015625 L 49.347656 219.945312 L 55.273438 219.945312 L 55.273438 214.015625 Z M 49.347656 219.945312 L 49.347656 225.878906 L 55.273438 225.878906 L 55.273438 219.945312 Z M 49.347656 225.878906 L 49.347656 231.8125 L 55.273438 231.8125 L 55.273438 225.878906 Z M 49.347656 231.8125 L 49.347656 237.742188 L 55.273438 237.742188 L 55.273438 231.8125 Z M 49.347656 237.742188 L 49.347656 243.675781 L 55.273438 243.675781 L 55.273438 237.742188 Z M 49.347656 243.675781 L 49.347656 249.605469 L 55.273438 249.605469 L 55.273438 243.675781 Z M 43.421875 214.015625 L 43.421875 219.945312 L 49.347656 219.945312 L 49.347656 214.015625 Z M 43.421875 219.945312 L 43.421875 225.878906 L 49.347656 225.878906 L 49.347656 219.945312 Z M 43.421875 225.878906 L 43.421875 231.8125 L 49.347656 231.8125 L 49.347656 225.878906 Z M 43.421875 231.8125 L 43.421875 237.742188 L 49.347656 237.742188 L 49.347656 231.8125 Z M 43.421875 237.742188 L 43.421875 243.675781 L 49.347656 243.675781 L 49.347656 237.742188 Z M 37.5 219.945312 L 37.5 225.878906 L 43.421875 225.878906 L 43.421875 219.945312 Z M 37.5 225.878906 L 37.5 231.8125 L 43.421875 231.8125 L 43.421875 225.878906 Z M 43.421875 231.8125 L 43.421875 237.742188 L 37.5 237.742188 L 37.5 231.8125 L 43.421875 231.8125 " fill-opacity="1" fill-rule="nonzero"/></g></svg>