<svg xmlns="http://www.w3.org/2000/svg" xmlns:xlink="http://www.w3.org/1999/xlink" width="500" zoomAndPan="magnify" viewBox="0 0 375 374.999991" height="500" preserveAspectRatio="xMidYMid meet" version="1.0"><defs><clipPath id="2db756e0b2"><path d="M 342 192 L 346.5 192 L 346.5 212 L 342 212 Z M 342 192 " clip-rule="nonzero"/></clipPath><clipPath id="81d50f94ff"><path d="M 214 126.75 L 281 126.75 L 281 164 L 214 164 Z M 214 126.75 " clip-rule="nonzero"/></clipPath><clipPath id="5c4a9fd4d4"><path d="M 131.25 233.304688 L 141.695312 233.304688 L 141.695312 243.75 L 131.25 243.75 Z M 131.25 233.304688 " clip-rule="nonzero"/></clipPath><clipPath id="20f59eb854"><path d="M 136.472656 233.304688 C 133.589844 233.304688 131.25 235.644531 131.25 238.527344 C 131.25 241.410156 133.589844 243.75 136.472656 243.75 C 139.355469 243.75 141.695312 241.410156 141.695312 238.527344 C 141.695312 235.644531 139.355469 233.304688 136.472656 233.304688 Z M 136.472656 233.304688 " clip-rule="nonzero"/></clipPath><clipPath id="6318ed10a2"><path d="M 0.25 0.304688 L 10.695312 0.304688 L 10.695312 10.75 L 0.25 10.75 Z M 0.25 0.304688 " clip-rule="nonzero"/></clipPath><clipPath id="cf2d136098"><path d="M 5.472656 0.304688 C 2.589844 0.304688 0.25 2.644531 0.25 5.527344 C 0.25 8.410156 2.589844 10.75 5.472656 10.75 C 8.355469 10.75 10.695312 8.410156 10.695312 5.527344 C 10.695312 2.644531 8.355469 0.304688 5.472656 0.304688 Z M 5.472656 0.304688 " clip-rule="nonzero"/></clipPath><clipPath id="b889d6ce61"><rect x="0" width="11" y="0" height="11"/></clipPath></defs><path fill="#000000" d="M 210.386719 185.457031 L 214.054688 185.457031 L 214.054688 181.789062 L 210.386719 181.789062 L 210.386719 185.457031 " fill-opacity="1" fill-rule="nonzero"/><path fill="#000000" d="M 206.722656 181.789062 L 210.386719 181.789062 L 210.386719 178.125 L 206.722656 178.125 L 206.722656 181.789062 " fill-opacity="1" fill-rule="nonzero"/><path fill="#ffffff" d="M 217.71875 189.125 L 217.71875 185.457031 L 221.382812 185.457031 L 221.382812 181.789062 L 225.050781 181.789062 L 225.050781 185.457031 L 228.714844 185.457031 L 228.714844 181.789062 L 232.378906 181.789062 L 232.378906 178.125 L 236.042969 178.125 L 236.042969 174.457031 L 243.378906 174.457031 L 243.378906 178.125 L 250.710938 178.125 L 250.710938 174.457031 L 258.039062 174.457031 L 258.039062 178.125 L 261.707031 178.125 L 261.707031 181.789062 L 269.035156 181.789062 L 269.035156 185.457031 L 272.703125 185.457031 L 272.703125 189.125 L 276.367188 189.125 L 276.367188 196.460938 L 280.03125 196.460938 L 280.03125 203.796875 L 276.367188 203.796875 L 276.367188 207.46875 L 272.703125 207.46875 L 272.703125 200.132812 L 265.371094 200.132812 L 265.371094 196.460938 L 261.707031 196.460938 L 261.707031 189.125 L 258.039062 189.125 L 258.039062 185.457031 L 243.378906 185.457031 L 243.378906 181.789062 L 239.710938 181.789062 L 239.710938 185.457031 L 232.378906 185.457031 L 232.378906 192.792969 L 228.714844 192.792969 L 228.714844 189.125 L 221.382812 189.125 L 221.382812 192.792969 L 217.71875 192.792969 L 217.71875 200.132812 L 214.054688 200.132812 L 214.054688 203.796875 L 206.722656 203.796875 L 206.722656 196.460938 L 210.386719 196.460938 L 210.386719 192.792969 L 214.054688 192.792969 L 214.054688 189.125 Z M 309.355469 196.460938 L 309.355469 192.792969 L 302.027344 192.792969 L 302.027344 189.125 L 305.695312 189.125 L 305.695312 185.457031 L 302.027344 185.457031 L 302.027344 178.125 L 298.363281 178.125 L 298.363281 174.457031 L 291.027344 174.457031 L 291.027344 167.117188 L 287.363281 167.117188 L 287.363281 152.445312 L 283.699219 152.445312 L 283.699219 148.773438 L 280.03125 148.773438 L 280.03125 145.105469 L 276.367188 145.105469 L 276.367188 141.4375 L 272.703125 141.4375 L 272.703125 137.769531 L 269.035156 137.769531 L 269.035156 134.101562 L 254.375 134.101562 L 254.375 137.769531 L 250.710938 137.769531 L 250.710938 141.4375 L 247.042969 141.4375 L 247.042969 145.105469 L 243.378906 145.105469 L 243.378906 156.113281 L 239.710938 156.113281 L 239.710938 163.449219 L 236.042969 163.449219 L 236.042969 159.777344 L 221.382812 159.777344 L 221.382812 163.449219 L 214.054688 163.449219 L 214.054688 170.785156 L 210.386719 170.785156 L 210.386719 178.125 L 214.054688 178.125 L 214.054688 185.457031 L 210.386719 185.457031 L 210.386719 181.789062 L 206.722656 181.789062 L 206.722656 178.125 L 188.394531 178.125 L 188.394531 181.789062 L 184.726562 181.789062 L 184.726562 185.457031 L 181.066406 185.457031 L 181.066406 192.792969 L 177.398438 192.792969 L 177.398438 203.796875 L 170.070312 203.796875 L 170.070312 207.46875 L 166.402344 207.46875 L 166.402344 218.472656 L 170.070312 218.472656 L 170.070312 222.140625 L 302.027344 222.140625 L 302.027344 218.472656 L 305.695312 218.472656 L 305.695312 214.804688 L 309.355469 214.804688 L 309.355469 207.46875 L 313.023438 207.46875 L 313.023438 196.460938 L 309.355469 196.460938 " fill-opacity="1" fill-rule="nonzero"/><path fill="#52a6c8" d="M 272.703125 207.46875 L 276.367188 207.46875 L 276.367188 203.796875 L 272.703125 203.796875 L 272.703125 207.46875 " fill-opacity="1" fill-rule="nonzero"/><path fill="#52a6c8" d="M 276.367188 200.132812 L 276.367188 203.796875 L 280.03125 203.796875 L 280.03125 196.460938 L 276.367188 196.460938 L 276.367188 200.132812 " fill-opacity="1" fill-rule="nonzero"/><path fill="#52a6c8" d="M 206.722656 200.132812 L 206.722656 203.796875 L 210.386719 203.796875 L 210.386719 196.460938 L 206.722656 196.460938 L 206.722656 200.132812 " fill-opacity="1" fill-rule="nonzero"/><path fill="#52a6c8" d="M 338.679688 192.792969 L 338.679688 189.125 L 335.015625 189.125 L 335.015625 185.457031 L 327.683594 185.457031 L 327.683594 181.789062 L 324.019531 181.789062 L 324.019531 189.125 L 327.683594 189.125 L 327.683594 192.792969 L 331.347656 192.792969 L 331.347656 200.132812 L 335.015625 200.132812 L 335.015625 207.46875 L 331.347656 207.46875 L 331.347656 214.804688 L 327.683594 214.804688 L 327.683594 218.472656 L 324.019531 218.472656 L 324.019531 222.140625 L 331.347656 222.140625 L 331.347656 218.472656 L 335.015625 218.472656 L 335.015625 214.804688 L 338.679688 214.804688 L 338.679688 211.136719 L 342.34375 211.136719 L 342.34375 192.792969 L 338.679688 192.792969 " fill-opacity="1" fill-rule="nonzero"/><path fill="#52a6c8" d="M 210.386719 196.460938 L 214.054688 196.460938 L 214.054688 192.792969 L 210.386719 192.792969 L 210.386719 196.460938 " fill-opacity="1" fill-rule="nonzero"/><path fill="#52a6c8" d="M 276.367188 189.125 L 272.703125 189.125 L 272.703125 185.457031 L 269.035156 185.457031 L 269.035156 181.789062 L 261.707031 181.789062 L 261.707031 185.457031 L 265.371094 185.457031 L 265.371094 189.125 L 269.035156 189.125 L 269.035156 192.792969 L 272.703125 192.792969 L 272.703125 196.460938 L 276.367188 196.460938 L 276.367188 189.125 " fill-opacity="1" fill-rule="nonzero"/><path fill="#52a6c8" d="M 232.378906 192.792969 L 232.378906 189.125 L 228.714844 189.125 L 228.714844 192.792969 L 232.378906 192.792969 " fill-opacity="1" fill-rule="nonzero"/><path fill="#52a6c8" d="M 214.054688 192.792969 L 217.71875 192.792969 L 217.71875 189.125 L 214.054688 189.125 L 214.054688 192.792969 " fill-opacity="1" fill-rule="nonzero"/><path fill="#52a6c8" d="M 225.050781 189.125 L 228.714844 189.125 L 228.714844 185.457031 L 225.050781 185.457031 L 225.050781 189.125 " fill-opacity="1" fill-rule="nonzero"/><path fill="#52a6c8" d="M 217.71875 189.125 L 221.382812 189.125 L 221.382812 185.457031 L 217.71875 185.457031 L 217.71875 189.125 " fill-opacity="1" fill-rule="nonzero"/><path fill="#52a6c8" d="M 228.714844 185.457031 L 232.378906 185.457031 L 232.378906 181.789062 L 228.714844 181.789062 L 228.714844 185.457031 " fill-opacity="1" fill-rule="nonzero"/><path fill="#52a6c8" d="M 221.382812 181.789062 L 221.382812 185.457031 L 225.050781 185.457031 L 225.050781 181.789062 L 221.382812 181.789062 " fill-opacity="1" fill-rule="nonzero"/><path fill="#52a6c8" d="M 320.351562 178.125 L 320.351562 167.117188 L 316.6875 167.117188 L 316.6875 163.449219 L 313.023438 163.449219 L 313.023438 159.777344 L 298.363281 159.777344 L 298.363281 163.449219 L 305.695312 163.449219 L 305.695312 167.117188 L 309.355469 167.117188 L 309.355469 170.785156 L 313.023438 170.785156 L 313.023438 181.789062 L 309.355469 181.789062 L 309.355469 185.457031 L 305.695312 185.457031 L 305.695312 189.125 L 302.027344 189.125 L 302.027344 192.792969 L 309.355469 192.792969 L 309.355469 189.125 L 313.023438 189.125 L 313.023438 185.457031 L 316.6875 185.457031 L 316.6875 181.789062 L 324.019531 181.789062 L 324.019531 178.125 L 320.351562 178.125 " fill-opacity="1" fill-rule="nonzero"/><path fill="#52a6c8" d="M 258.039062 178.125 L 258.039062 181.789062 L 261.707031 181.789062 L 261.707031 178.125 L 258.039062 178.125 " fill-opacity="1" fill-rule="nonzero"/><path fill="#52a6c8" d="M 243.378906 178.125 L 243.378906 185.457031 L 247.042969 185.457031 L 247.042969 181.789062 L 250.710938 181.789062 L 250.710938 178.125 L 243.378906 178.125 " fill-opacity="1" fill-rule="nonzero"/><path fill="#52a6c8" d="M 232.378906 181.789062 L 236.042969 181.789062 L 236.042969 178.125 L 232.378906 178.125 L 232.378906 181.789062 " fill-opacity="1" fill-rule="nonzero"/><path fill="#52a6c8" d="M 254.375 174.457031 L 250.710938 174.457031 L 250.710938 178.125 L 258.039062 178.125 L 258.039062 174.457031 L 254.375 174.457031 " fill-opacity="1" fill-rule="nonzero"/><path fill="#52a6c8" d="M 239.710938 174.457031 L 236.042969 174.457031 L 236.042969 178.125 L 243.378906 178.125 L 243.378906 174.457031 L 239.710938 174.457031 " fill-opacity="1" fill-rule="nonzero"/><path fill="#52a6c8" d="M 291.027344 170.785156 L 294.695312 170.785156 L 294.695312 167.117188 L 291.027344 167.117188 L 291.027344 170.785156 " fill-opacity="1" fill-rule="nonzero"/><path fill="#52a6c8" d="M 294.695312 167.117188 L 298.363281 167.117188 L 298.363281 163.449219 L 294.695312 163.449219 L 294.695312 167.117188 " fill-opacity="1" fill-rule="nonzero"/><path fill="#52a6c8" d="M 294.695312 156.113281 L 298.363281 156.113281 L 298.363281 148.773438 L 294.695312 148.773438 L 294.695312 156.113281 " fill-opacity="1" fill-rule="nonzero"/><path fill="#52a6c8" d="M 291.027344 145.105469 L 291.027344 148.773438 L 294.695312 148.773438 L 294.695312 141.4375 L 291.027344 141.4375 L 291.027344 137.769531 L 287.363281 137.769531 L 287.363281 134.101562 L 280.03125 134.101562 L 280.03125 130.4375 L 269.035156 130.4375 L 269.035156 134.101562 L 276.367188 134.101562 L 276.367188 137.769531 L 280.03125 137.769531 L 280.03125 141.4375 L 287.363281 141.4375 L 287.363281 145.105469 L 291.027344 145.105469 " fill-opacity="1" fill-rule="nonzero"/><path fill="#ade4f9" d="M 331.347656 200.132812 L 331.347656 192.792969 L 327.683594 192.792969 L 327.683594 189.125 L 324.019531 189.125 L 324.019531 181.789062 L 316.6875 181.789062 L 316.6875 185.457031 L 313.023438 185.457031 L 313.023438 189.125 L 309.355469 189.125 L 309.355469 196.460938 L 313.023438 196.460938 L 313.023438 207.46875 L 309.355469 207.46875 L 309.355469 214.804688 L 305.695312 214.804688 L 305.695312 218.472656 L 302.027344 218.472656 L 302.027344 222.140625 L 324.019531 222.140625 L 324.019531 218.472656 L 327.683594 218.472656 L 327.683594 214.804688 L 331.347656 214.804688 L 331.347656 207.46875 L 335.015625 207.46875 L 335.015625 200.132812 L 331.347656 200.132812 " fill-opacity="1" fill-rule="nonzero"/><path fill="#ade4f9" d="M 272.703125 192.792969 L 269.035156 192.792969 L 269.035156 189.125 L 265.371094 189.125 L 265.371094 185.457031 L 261.707031 185.457031 L 261.707031 181.789062 L 258.039062 181.789062 L 258.039062 178.125 L 250.710938 178.125 L 250.710938 181.789062 L 247.042969 181.789062 L 247.042969 185.457031 L 258.039062 185.457031 L 258.039062 189.125 L 261.707031 189.125 L 261.707031 196.460938 L 265.371094 196.460938 L 265.371094 200.132812 L 272.703125 200.132812 L 272.703125 203.796875 L 276.367188 203.796875 L 276.367188 196.460938 L 272.703125 196.460938 L 272.703125 192.792969 " fill-opacity="1" fill-rule="nonzero"/><path fill="#ade4f9" d="M 214.054688 196.460938 L 210.386719 196.460938 L 210.386719 203.796875 L 214.054688 203.796875 L 214.054688 200.132812 L 217.71875 200.132812 L 217.71875 192.792969 L 214.054688 192.792969 L 214.054688 196.460938 " fill-opacity="1" fill-rule="nonzero"/><path fill="#ade4f9" d="M 217.71875 192.792969 L 221.382812 192.792969 L 221.382812 189.125 L 217.71875 189.125 L 217.71875 192.792969 " fill-opacity="1" fill-rule="nonzero"/><path fill="#ade4f9" d="M 228.714844 189.125 L 232.378906 189.125 L 232.378906 185.457031 L 228.714844 185.457031 L 228.714844 189.125 " fill-opacity="1" fill-rule="nonzero"/><path fill="#ade4f9" d="M 221.382812 189.125 L 225.050781 189.125 L 225.050781 185.457031 L 221.382812 185.457031 L 221.382812 189.125 " fill-opacity="1" fill-rule="nonzero"/><path fill="#ade4f9" d="M 236.042969 178.125 L 236.042969 181.789062 L 232.378906 181.789062 L 232.378906 185.457031 L 239.710938 185.457031 L 239.710938 181.789062 L 243.378906 181.789062 L 243.378906 178.125 L 236.042969 178.125 " fill-opacity="1" fill-rule="nonzero"/><path fill="#ade4f9" d="M 302.027344 178.125 L 302.027344 185.457031 L 309.355469 185.457031 L 309.355469 181.789062 L 313.023438 181.789062 L 313.023438 170.785156 L 309.355469 170.785156 L 309.355469 167.117188 L 305.695312 167.117188 L 305.695312 163.449219 L 298.363281 163.449219 L 298.363281 167.117188 L 294.695312 167.117188 L 294.695312 170.785156 L 291.027344 170.785156 L 291.027344 174.457031 L 298.363281 174.457031 L 298.363281 178.125 L 302.027344 178.125 " fill-opacity="1" fill-rule="nonzero"/><path fill="#ade4f9" d="M 298.363281 163.449219 L 298.363281 156.113281 L 294.695312 156.113281 L 294.695312 148.773438 L 291.027344 148.773438 L 291.027344 145.105469 L 287.363281 145.105469 L 287.363281 141.4375 L 280.03125 141.4375 L 280.03125 137.769531 L 276.367188 137.769531 L 276.367188 134.101562 L 269.035156 134.101562 L 269.035156 137.769531 L 272.703125 137.769531 L 272.703125 141.4375 L 276.367188 141.4375 L 276.367188 145.105469 L 280.03125 145.105469 L 280.03125 148.773438 L 283.699219 148.773438 L 283.699219 152.445312 L 287.363281 152.445312 L 287.363281 167.117188 L 294.695312 167.117188 L 294.695312 163.449219 L 298.363281 163.449219 " fill-opacity="1" fill-rule="nonzero"/><path fill="#ade4f9" d="M 265.371094 130.4375 L 261.707031 130.4375 L 261.707031 134.101562 L 269.035156 134.101562 L 269.035156 130.4375 L 265.371094 130.4375 " fill-opacity="1" fill-rule="nonzero"/><path fill="#040606" d="M 324.019531 222.140625 L 170.070312 222.140625 L 170.070312 225.808594 L 331.347656 225.808594 L 331.347656 222.140625 L 324.019531 222.140625 " fill-opacity="1" fill-rule="nonzero"/><path fill="#040606" d="M 166.402344 218.472656 L 166.402344 222.140625 L 170.070312 222.140625 L 170.070312 218.472656 L 166.402344 218.472656 " fill-opacity="1" fill-rule="nonzero"/><path fill="#040606" d="M 338.679688 214.804688 L 335.015625 214.804688 L 335.015625 218.472656 L 331.347656 218.472656 L 331.347656 222.140625 L 338.679688 222.140625 L 338.679688 218.472656 L 342.34375 218.472656 L 342.34375 211.136719 L 338.679688 211.136719 L 338.679688 214.804688 " fill-opacity="1" fill-rule="nonzero"/><path fill="#040606" d="M 166.402344 211.136719 L 166.402344 207.46875 L 162.738281 207.46875 L 162.738281 218.472656 L 166.402344 218.472656 L 166.402344 211.136719 " fill-opacity="1" fill-rule="nonzero"/><path fill="#040606" d="M 170.070312 203.796875 L 177.398438 203.796875 L 177.398438 192.792969 L 181.066406 192.792969 L 181.066406 185.457031 L 184.726562 185.457031 L 184.726562 181.789062 L 188.394531 181.789062 L 188.394531 178.125 L 210.386719 178.125 L 210.386719 170.785156 L 206.722656 170.785156 L 206.722656 174.457031 L 184.726562 174.457031 L 184.726562 178.125 L 181.066406 178.125 L 181.066406 181.789062 L 177.398438 181.789062 L 177.398438 189.125 L 173.734375 189.125 L 173.734375 200.132812 L 166.402344 200.132812 L 166.402344 207.46875 L 170.070312 207.46875 L 170.070312 203.796875 " fill-opacity="1" fill-rule="nonzero"/><g clip-path="url(#2db756e0b2)"><path fill="#040606" d="M 342.34375 192.792969 L 342.34375 211.136719 L 346.011719 211.136719 L 346.011719 192.792969 L 342.34375 192.792969 " fill-opacity="1" fill-rule="nonzero"/></g><path fill="#040606" d="M 342.34375 192.792969 L 342.34375 189.125 L 338.679688 189.125 L 338.679688 192.792969 L 342.34375 192.792969 " fill-opacity="1" fill-rule="nonzero"/><path fill="#040606" d="M 338.679688 189.125 L 338.679688 185.457031 L 335.015625 185.457031 L 335.015625 189.125 L 338.679688 189.125 " fill-opacity="1" fill-rule="nonzero"/><path fill="#040606" d="M 331.347656 185.457031 L 335.015625 185.457031 L 335.015625 181.789062 L 327.683594 181.789062 L 327.683594 185.457031 L 331.347656 185.457031 " fill-opacity="1" fill-rule="nonzero"/><path fill="#040606" d="M 327.683594 181.789062 L 327.683594 178.125 L 324.019531 178.125 L 324.019531 181.789062 L 327.683594 181.789062 " fill-opacity="1" fill-rule="nonzero"/><path fill="#040606" d="M 214.054688 181.789062 L 214.054688 178.125 L 210.386719 178.125 L 210.386719 181.789062 L 214.054688 181.789062 " fill-opacity="1" fill-rule="nonzero"/><path fill="#040606" d="M 320.351562 174.457031 L 320.351562 178.125 L 324.019531 178.125 L 324.019531 167.117188 L 320.351562 167.117188 L 320.351562 174.457031 " fill-opacity="1" fill-rule="nonzero"/><path fill="#040606" d="M 214.054688 167.117188 L 214.054688 163.449219 L 210.386719 163.449219 L 210.386719 170.785156 L 214.054688 170.785156 L 214.054688 167.117188 " fill-opacity="1" fill-rule="nonzero"/><path fill="#040606" d="M 320.351562 167.117188 L 320.351562 163.449219 L 316.6875 163.449219 L 316.6875 167.117188 L 320.351562 167.117188 " fill-opacity="1" fill-rule="nonzero"/><path fill="#040606" d="M 316.6875 163.449219 L 316.6875 159.777344 L 313.023438 159.777344 L 313.023438 163.449219 L 316.6875 163.449219 " fill-opacity="1" fill-rule="nonzero"/><g clip-path="url(#81d50f94ff)"><path fill="#040606" d="M 221.382812 163.449219 L 221.382812 159.777344 L 236.042969 159.777344 L 236.042969 163.449219 L 239.710938 163.449219 L 239.710938 156.113281 L 243.378906 156.113281 L 243.378906 145.105469 L 247.042969 145.105469 L 247.042969 141.4375 L 250.710938 141.4375 L 250.710938 137.769531 L 254.375 137.769531 L 254.375 134.101562 L 261.707031 134.101562 L 261.707031 130.4375 L 280.03125 130.4375 L 280.03125 126.765625 L 258.039062 126.765625 L 258.039062 130.4375 L 250.710938 130.4375 L 250.710938 134.101562 L 247.042969 134.101562 L 247.042969 137.769531 L 243.378906 137.769531 L 243.378906 141.4375 L 239.710938 141.4375 L 239.710938 152.445312 L 236.042969 152.445312 L 236.042969 156.113281 L 217.71875 156.113281 L 217.71875 159.777344 L 214.054688 159.777344 L 214.054688 163.449219 L 221.382812 163.449219 " fill-opacity="1" fill-rule="nonzero"/></g><path fill="#040606" d="M 294.695312 148.773438 L 298.363281 148.773438 L 298.363281 159.777344 L 313.023438 159.777344 L 313.023438 156.113281 L 302.027344 156.113281 L 302.027344 145.105469 L 298.363281 145.105469 L 298.363281 141.4375 L 294.695312 141.4375 L 294.695312 148.773438 " fill-opacity="1" fill-rule="nonzero"/><path fill="#040606" d="M 294.695312 141.4375 L 294.695312 137.769531 L 291.027344 137.769531 L 291.027344 141.4375 L 294.695312 141.4375 " fill-opacity="1" fill-rule="nonzero"/><path fill="#040606" d="M 291.027344 137.769531 L 291.027344 134.101562 L 287.363281 134.101562 L 287.363281 137.769531 L 291.027344 137.769531 " fill-opacity="1" fill-rule="nonzero"/><path fill="#040606" d="M 283.699219 134.101562 L 287.363281 134.101562 L 287.363281 130.4375 L 280.03125 130.4375 L 280.03125 134.101562 L 283.699219 134.101562 " fill-opacity="1" fill-rule="nonzero"/><path fill="#000000" d="M 94.3125 204.359375 L 98.636719 204.359375 L 98.636719 200.035156 L 94.3125 200.035156 L 94.3125 204.359375 " fill-opacity="1" fill-rule="nonzero"/><path fill="#000000" d="M 89.984375 200.035156 L 94.3125 200.035156 L 94.3125 195.703125 L 89.984375 195.703125 L 89.984375 200.035156 " fill-opacity="1" fill-rule="nonzero"/><path fill="#ffffff" d="M 102.964844 208.691406 L 102.964844 204.359375 L 107.289062 204.359375 L 107.289062 200.035156 L 111.617188 200.035156 L 111.617188 204.359375 L 115.945312 204.359375 L 115.945312 200.035156 L 120.269531 200.035156 L 120.269531 195.703125 L 124.597656 195.703125 L 124.597656 191.375 L 133.246094 191.375 L 133.246094 195.703125 L 141.898438 195.703125 L 141.898438 191.375 L 150.550781 191.375 L 150.550781 195.703125 L 154.875 195.703125 L 154.875 200.035156 L 163.527344 200.035156 L 163.527344 204.359375 L 167.855469 204.359375 L 167.855469 208.691406 L 172.183594 208.691406 L 172.183594 217.351562 L 176.503906 217.351562 L 176.503906 226.011719 L 172.183594 226.011719 L 172.183594 230.335938 L 167.855469 230.335938 L 167.855469 221.679688 L 159.203125 221.679688 L 159.203125 217.351562 L 154.875 217.351562 L 154.875 208.691406 L 150.550781 208.691406 L 150.550781 204.359375 L 133.246094 204.359375 L 133.246094 200.035156 L 128.917969 200.035156 L 128.917969 204.359375 L 120.269531 204.359375 L 120.269531 213.019531 L 115.945312 213.019531 L 115.945312 208.691406 L 107.289062 208.691406 L 107.289062 213.019531 L 102.964844 213.019531 L 102.964844 221.679688 L 98.636719 221.679688 L 98.636719 226.011719 L 89.984375 226.011719 L 89.984375 217.351562 L 94.3125 217.351562 L 94.3125 213.019531 L 98.636719 213.019531 L 98.636719 208.691406 Z M 211.113281 217.351562 L 211.113281 213.019531 L 202.460938 213.019531 L 202.460938 208.691406 L 206.789062 208.691406 L 206.789062 204.359375 L 202.460938 204.359375 L 202.460938 195.703125 L 198.136719 195.703125 L 198.136719 191.375 L 189.488281 191.375 L 189.488281 182.714844 L 185.160156 182.714844 L 185.160156 165.398438 L 180.835938 165.398438 L 180.835938 161.070312 L 176.503906 161.070312 L 176.503906 156.742188 L 172.183594 156.742188 L 172.183594 152.414062 L 167.855469 152.414062 L 167.855469 148.082031 L 163.527344 148.082031 L 163.527344 143.753906 L 146.222656 143.753906 L 146.222656 148.082031 L 141.898438 148.082031 L 141.898438 152.414062 L 137.570312 152.414062 L 137.570312 156.742188 L 133.246094 156.742188 L 133.246094 169.726562 L 128.917969 169.726562 L 128.917969 178.386719 L 124.597656 178.386719 L 124.597656 174.054688 L 107.289062 174.054688 L 107.289062 178.386719 L 98.636719 178.386719 L 98.636719 187.042969 L 94.3125 187.042969 L 94.3125 195.703125 L 98.636719 195.703125 L 98.636719 204.359375 L 94.3125 204.359375 L 94.3125 200.035156 L 89.984375 200.035156 L 89.984375 195.703125 L 68.355469 195.703125 L 68.355469 200.035156 L 64.027344 200.035156 L 64.027344 204.359375 L 59.707031 204.359375 L 59.707031 213.019531 L 55.378906 213.019531 L 55.378906 226.011719 L 46.726562 226.011719 L 46.726562 230.335938 L 42.402344 230.335938 L 42.402344 243.328125 L 46.726562 243.328125 L 46.726562 247.65625 L 202.460938 247.65625 L 202.460938 243.328125 L 206.789062 243.328125 L 206.789062 238.996094 L 211.113281 238.996094 L 211.113281 230.335938 L 215.441406 230.335938 L 215.441406 217.351562 L 211.113281 217.351562 " fill-opacity="1" fill-rule="nonzero"/><path fill="#52a6c8" d="M 167.855469 230.335938 L 172.183594 230.335938 L 172.183594 226.011719 L 167.855469 226.011719 L 167.855469 230.335938 " fill-opacity="1" fill-rule="nonzero"/><path fill="#52a6c8" d="M 172.183594 221.679688 L 172.183594 226.011719 L 176.503906 226.011719 L 176.503906 217.351562 L 172.183594 217.351562 L 172.183594 221.679688 " fill-opacity="1" fill-rule="nonzero"/><path fill="#52a6c8" d="M 89.984375 221.679688 L 89.984375 226.011719 L 94.3125 226.011719 L 94.3125 217.351562 L 89.984375 217.351562 L 89.984375 221.679688 " fill-opacity="1" fill-rule="nonzero"/><path fill="#52a6c8" d="M 245.722656 213.019531 L 245.722656 208.691406 L 241.394531 208.691406 L 241.394531 204.359375 L 232.742188 204.359375 L 232.742188 200.035156 L 228.417969 200.035156 L 228.417969 208.691406 L 232.742188 208.691406 L 232.742188 213.019531 L 237.070312 213.019531 L 237.070312 221.679688 L 241.394531 221.679688 L 241.394531 230.335938 L 237.070312 230.335938 L 237.070312 238.996094 L 232.742188 238.996094 L 232.742188 243.328125 L 228.417969 243.328125 L 228.417969 247.65625 L 237.070312 247.65625 L 237.070312 243.328125 L 241.394531 243.328125 L 241.394531 238.996094 L 245.722656 238.996094 L 245.722656 234.667969 L 250.046875 234.667969 L 250.046875 213.019531 L 245.722656 213.019531 " fill-opacity="1" fill-rule="nonzero"/><path fill="#52a6c8" d="M 94.3125 217.351562 L 98.636719 217.351562 L 98.636719 213.019531 L 94.3125 213.019531 L 94.3125 217.351562 " fill-opacity="1" fill-rule="nonzero"/><path fill="#52a6c8" d="M 172.183594 208.691406 L 167.855469 208.691406 L 167.855469 204.359375 L 163.527344 204.359375 L 163.527344 200.035156 L 154.875 200.035156 L 154.875 204.359375 L 159.203125 204.359375 L 159.203125 208.691406 L 163.527344 208.691406 L 163.527344 213.019531 L 167.855469 213.019531 L 167.855469 217.351562 L 172.183594 217.351562 L 172.183594 208.691406 " fill-opacity="1" fill-rule="nonzero"/><path fill="#52a6c8" d="M 120.269531 213.019531 L 120.269531 208.691406 L 115.945312 208.691406 L 115.945312 213.019531 L 120.269531 213.019531 " fill-opacity="1" fill-rule="nonzero"/><path fill="#52a6c8" d="M 98.636719 213.019531 L 102.964844 213.019531 L 102.964844 208.691406 L 98.636719 208.691406 L 98.636719 213.019531 " fill-opacity="1" fill-rule="nonzero"/><path fill="#52a6c8" d="M 111.617188 208.691406 L 115.945312 208.691406 L 115.945312 204.359375 L 111.617188 204.359375 L 111.617188 208.691406 " fill-opacity="1" fill-rule="nonzero"/><path fill="#52a6c8" d="M 102.964844 208.691406 L 107.289062 208.691406 L 107.289062 204.359375 L 102.964844 204.359375 L 102.964844 208.691406 " fill-opacity="1" fill-rule="nonzero"/><path fill="#52a6c8" d="M 115.945312 204.359375 L 120.269531 204.359375 L 120.269531 200.035156 L 115.945312 200.035156 L 115.945312 204.359375 " fill-opacity="1" fill-rule="nonzero"/><path fill="#52a6c8" d="M 107.289062 200.035156 L 107.289062 204.359375 L 111.617188 204.359375 L 111.617188 200.035156 L 107.289062 200.035156 " fill-opacity="1" fill-rule="nonzero"/><path fill="#52a6c8" d="M 224.09375 195.703125 L 224.09375 182.714844 L 219.765625 182.714844 L 219.765625 178.386719 L 215.441406 178.386719 L 215.441406 174.054688 L 198.136719 174.054688 L 198.136719 178.386719 L 206.789062 178.386719 L 206.789062 182.714844 L 211.113281 182.714844 L 211.113281 187.042969 L 215.441406 187.042969 L 215.441406 200.035156 L 211.113281 200.035156 L 211.113281 204.359375 L 206.789062 204.359375 L 206.789062 208.691406 L 202.460938 208.691406 L 202.460938 213.019531 L 211.113281 213.019531 L 211.113281 208.691406 L 215.441406 208.691406 L 215.441406 204.359375 L 219.765625 204.359375 L 219.765625 200.035156 L 228.417969 200.035156 L 228.417969 195.703125 L 224.09375 195.703125 " fill-opacity="1" fill-rule="nonzero"/><path fill="#52a6c8" d="M 150.550781 195.703125 L 150.550781 200.035156 L 154.875 200.035156 L 154.875 195.703125 L 150.550781 195.703125 " fill-opacity="1" fill-rule="nonzero"/><path fill="#52a6c8" d="M 133.246094 195.703125 L 133.246094 204.359375 L 137.570312 204.359375 L 137.570312 200.035156 L 141.898438 200.035156 L 141.898438 195.703125 L 133.246094 195.703125 " fill-opacity="1" fill-rule="nonzero"/><path fill="#52a6c8" d="M 120.269531 200.035156 L 124.597656 200.035156 L 124.597656 195.703125 L 120.269531 195.703125 L 120.269531 200.035156 " fill-opacity="1" fill-rule="nonzero"/><path fill="#52a6c8" d="M 146.222656 191.375 L 141.898438 191.375 L 141.898438 195.703125 L 150.550781 195.703125 L 150.550781 191.375 L 146.222656 191.375 " fill-opacity="1" fill-rule="nonzero"/><path fill="#52a6c8" d="M 128.917969 191.375 L 124.597656 191.375 L 124.597656 195.703125 L 133.246094 195.703125 L 133.246094 191.375 L 128.917969 191.375 " fill-opacity="1" fill-rule="nonzero"/><path fill="#52a6c8" d="M 189.488281 187.042969 L 193.8125 187.042969 L 193.8125 182.714844 L 189.488281 182.714844 L 189.488281 187.042969 " fill-opacity="1" fill-rule="nonzero"/><path fill="#52a6c8" d="M 193.8125 182.714844 L 198.136719 182.714844 L 198.136719 178.386719 L 193.8125 178.386719 L 193.8125 182.714844 " fill-opacity="1" fill-rule="nonzero"/><path fill="#52a6c8" d="M 193.8125 169.726562 L 198.136719 169.726562 L 198.136719 161.070312 L 193.8125 161.070312 L 193.8125 169.726562 " fill-opacity="1" fill-rule="nonzero"/><path fill="#52a6c8" d="M 189.488281 156.742188 L 189.488281 161.070312 L 193.8125 161.070312 L 193.8125 152.414062 L 189.488281 152.414062 L 189.488281 148.082031 L 185.160156 148.082031 L 185.160156 143.753906 L 176.503906 143.753906 L 176.503906 139.425781 L 163.527344 139.425781 L 163.527344 143.753906 L 172.183594 143.753906 L 172.183594 148.082031 L 176.503906 148.082031 L 176.503906 152.414062 L 185.160156 152.414062 L 185.160156 156.742188 L 189.488281 156.742188 " fill-opacity="1" fill-rule="nonzero"/><path fill="#ade4f9" d="M 237.070312 221.679688 L 237.070312 213.019531 L 232.742188 213.019531 L 232.742188 208.691406 L 228.417969 208.691406 L 228.417969 200.035156 L 219.765625 200.035156 L 219.765625 204.359375 L 215.441406 204.359375 L 215.441406 208.691406 L 211.113281 208.691406 L 211.113281 217.351562 L 215.441406 217.351562 L 215.441406 230.335938 L 211.113281 230.335938 L 211.113281 238.996094 L 206.789062 238.996094 L 206.789062 243.328125 L 202.460938 243.328125 L 202.460938 247.65625 L 228.417969 247.65625 L 228.417969 243.328125 L 232.742188 243.328125 L 232.742188 238.996094 L 237.070312 238.996094 L 237.070312 230.335938 L 241.394531 230.335938 L 241.394531 221.679688 L 237.070312 221.679688 " fill-opacity="1" fill-rule="nonzero"/><path fill="#ade4f9" d="M 167.855469 213.019531 L 163.527344 213.019531 L 163.527344 208.691406 L 159.203125 208.691406 L 159.203125 204.359375 L 154.875 204.359375 L 154.875 200.035156 L 150.550781 200.035156 L 150.550781 195.703125 L 141.898438 195.703125 L 141.898438 200.035156 L 137.570312 200.035156 L 137.570312 204.359375 L 150.550781 204.359375 L 150.550781 208.691406 L 154.875 208.691406 L 154.875 217.351562 L 159.203125 217.351562 L 159.203125 221.679688 L 167.855469 221.679688 L 167.855469 226.011719 L 172.183594 226.011719 L 172.183594 217.351562 L 167.855469 217.351562 L 167.855469 213.019531 " fill-opacity="1" fill-rule="nonzero"/><path fill="#ade4f9" d="M 98.636719 217.351562 L 94.3125 217.351562 L 94.3125 226.011719 L 98.636719 226.011719 L 98.636719 221.679688 L 102.964844 221.679688 L 102.964844 213.019531 L 98.636719 213.019531 L 98.636719 217.351562 " fill-opacity="1" fill-rule="nonzero"/><path fill="#ade4f9" d="M 102.964844 213.019531 L 107.289062 213.019531 L 107.289062 208.691406 L 102.964844 208.691406 L 102.964844 213.019531 " fill-opacity="1" fill-rule="nonzero"/><path fill="#ade4f9" d="M 115.945312 208.691406 L 120.269531 208.691406 L 120.269531 204.359375 L 115.945312 204.359375 L 115.945312 208.691406 " fill-opacity="1" fill-rule="nonzero"/><path fill="#ade4f9" d="M 107.289062 208.691406 L 111.617188 208.691406 L 111.617188 204.359375 L 107.289062 204.359375 L 107.289062 208.691406 " fill-opacity="1" fill-rule="nonzero"/><path fill="#ade4f9" d="M 124.597656 195.703125 L 124.597656 200.035156 L 120.269531 200.035156 L 120.269531 204.359375 L 128.917969 204.359375 L 128.917969 200.035156 L 133.246094 200.035156 L 133.246094 195.703125 L 124.597656 195.703125 " fill-opacity="1" fill-rule="nonzero"/><path fill="#ade4f9" d="M 202.460938 195.703125 L 202.460938 204.359375 L 211.113281 204.359375 L 211.113281 200.035156 L 215.441406 200.035156 L 215.441406 187.042969 L 211.113281 187.042969 L 211.113281 182.714844 L 206.789062 182.714844 L 206.789062 178.386719 L 198.136719 178.386719 L 198.136719 182.714844 L 193.8125 182.714844 L 193.8125 187.042969 L 189.488281 187.042969 L 189.488281 191.375 L 198.136719 191.375 L 198.136719 195.703125 L 202.460938 195.703125 " fill-opacity="1" fill-rule="nonzero"/><path fill="#ade4f9" d="M 198.136719 178.386719 L 198.136719 169.726562 L 193.8125 169.726562 L 193.8125 161.070312 L 189.488281 161.070312 L 189.488281 156.742188 L 185.160156 156.742188 L 185.160156 152.414062 L 176.503906 152.414062 L 176.503906 148.082031 L 172.183594 148.082031 L 172.183594 143.753906 L 163.527344 143.753906 L 163.527344 148.082031 L 167.855469 148.082031 L 167.855469 152.414062 L 172.183594 152.414062 L 172.183594 156.742188 L 176.503906 156.742188 L 176.503906 161.070312 L 180.835938 161.070312 L 180.835938 165.398438 L 185.160156 165.398438 L 185.160156 182.714844 L 193.8125 182.714844 L 193.8125 178.386719 L 198.136719 178.386719 " fill-opacity="1" fill-rule="nonzero"/><path fill="#ade4f9" d="M 159.203125 139.425781 L 154.875 139.425781 L 154.875 143.753906 L 163.527344 143.753906 L 163.527344 139.425781 L 159.203125 139.425781 " fill-opacity="1" fill-rule="nonzero"/><path fill="#040606" d="M 228.417969 247.65625 L 46.726562 247.65625 L 46.726562 251.980469 L 237.070312 251.980469 L 237.070312 247.65625 L 228.417969 247.65625 " fill-opacity="1" fill-rule="nonzero"/><path fill="#040606" d="M 42.402344 243.328125 L 42.402344 247.65625 L 46.726562 247.65625 L 46.726562 243.328125 L 42.402344 243.328125 " fill-opacity="1" fill-rule="nonzero"/><path fill="#040606" d="M 245.722656 238.996094 L 241.394531 238.996094 L 241.394531 243.328125 L 237.070312 243.328125 L 237.070312 247.65625 L 245.722656 247.65625 L 245.722656 243.328125 L 250.046875 243.328125 L 250.046875 234.667969 L 245.722656 234.667969 L 245.722656 238.996094 " fill-opacity="1" fill-rule="nonzero"/><path fill="#040606" d="M 42.402344 234.667969 L 42.402344 230.335938 L 38.074219 230.335938 L 38.074219 243.328125 L 42.402344 243.328125 L 42.402344 234.667969 " fill-opacity="1" fill-rule="nonzero"/><path fill="#040606" d="M 46.726562 226.011719 L 55.378906 226.011719 L 55.378906 213.019531 L 59.707031 213.019531 L 59.707031 204.359375 L 64.027344 204.359375 L 64.027344 200.035156 L 68.355469 200.035156 L 68.355469 195.703125 L 94.3125 195.703125 L 94.3125 187.042969 L 89.984375 187.042969 L 89.984375 191.375 L 64.027344 191.375 L 64.027344 195.703125 L 59.707031 195.703125 L 59.707031 200.035156 L 55.378906 200.035156 L 55.378906 208.691406 L 51.054688 208.691406 L 51.054688 221.679688 L 42.402344 221.679688 L 42.402344 230.335938 L 46.726562 230.335938 L 46.726562 226.011719 " fill-opacity="1" fill-rule="nonzero"/><path fill="#040606" d="M 250.046875 213.019531 L 250.046875 234.667969 L 254.375 234.667969 L 254.375 213.019531 L 250.046875 213.019531 " fill-opacity="1" fill-rule="nonzero"/><path fill="#040606" d="M 250.046875 213.019531 L 250.046875 208.691406 L 245.722656 208.691406 L 245.722656 213.019531 L 250.046875 213.019531 " fill-opacity="1" fill-rule="nonzero"/><path fill="#040606" d="M 245.722656 208.691406 L 245.722656 204.359375 L 241.394531 204.359375 L 241.394531 208.691406 L 245.722656 208.691406 " fill-opacity="1" fill-rule="nonzero"/><path fill="#040606" d="M 237.070312 204.359375 L 241.394531 204.359375 L 241.394531 200.035156 L 232.742188 200.035156 L 232.742188 204.359375 L 237.070312 204.359375 " fill-opacity="1" fill-rule="nonzero"/><path fill="#040606" d="M 232.742188 200.035156 L 232.742188 195.703125 L 228.417969 195.703125 L 228.417969 200.035156 L 232.742188 200.035156 " fill-opacity="1" fill-rule="nonzero"/><path fill="#040606" d="M 98.636719 200.035156 L 98.636719 195.703125 L 94.3125 195.703125 L 94.3125 200.035156 L 98.636719 200.035156 " fill-opacity="1" fill-rule="nonzero"/><path fill="#040606" d="M 224.09375 191.375 L 224.09375 195.703125 L 228.417969 195.703125 L 228.417969 182.714844 L 224.09375 182.714844 L 224.09375 191.375 " fill-opacity="1" fill-rule="nonzero"/><path fill="#040606" d="M 98.636719 182.714844 L 98.636719 178.386719 L 94.3125 178.386719 L 94.3125 187.042969 L 98.636719 187.042969 L 98.636719 182.714844 " fill-opacity="1" fill-rule="nonzero"/><path fill="#040606" d="M 224.09375 182.714844 L 224.09375 178.386719 L 219.765625 178.386719 L 219.765625 182.714844 L 224.09375 182.714844 " fill-opacity="1" fill-rule="nonzero"/><path fill="#040606" d="M 219.765625 178.386719 L 219.765625 174.054688 L 215.441406 174.054688 L 215.441406 178.386719 L 219.765625 178.386719 " fill-opacity="1" fill-rule="nonzero"/><path fill="#040606" d="M 107.289062 178.386719 L 107.289062 174.054688 L 124.597656 174.054688 L 124.597656 178.386719 L 128.917969 178.386719 L 128.917969 169.726562 L 133.246094 169.726562 L 133.246094 156.742188 L 137.570312 156.742188 L 137.570312 152.414062 L 141.898438 152.414062 L 141.898438 148.082031 L 146.222656 148.082031 L 146.222656 143.753906 L 154.875 143.753906 L 154.875 139.425781 L 176.503906 139.425781 L 176.503906 135.09375 L 150.550781 135.09375 L 150.550781 139.425781 L 141.898438 139.425781 L 141.898438 143.753906 L 137.570312 143.753906 L 137.570312 148.082031 L 133.246094 148.082031 L 133.246094 152.414062 L 128.917969 152.414062 L 128.917969 165.398438 L 124.597656 165.398438 L 124.597656 169.726562 L 102.964844 169.726562 L 102.964844 174.054688 L 98.636719 174.054688 L 98.636719 178.386719 L 107.289062 178.386719 " fill-opacity="1" fill-rule="nonzero"/><path fill="#040606" d="M 193.8125 161.070312 L 198.136719 161.070312 L 198.136719 174.054688 L 215.441406 174.054688 L 215.441406 169.726562 L 202.460938 169.726562 L 202.460938 156.742188 L 198.136719 156.742188 L 198.136719 152.414062 L 193.8125 152.414062 L 193.8125 161.070312 " fill-opacity="1" fill-rule="nonzero"/><path fill="#040606" d="M 193.8125 152.414062 L 193.8125 148.082031 L 189.488281 148.082031 L 189.488281 152.414062 L 193.8125 152.414062 " fill-opacity="1" fill-rule="nonzero"/><path fill="#040606" d="M 189.488281 148.082031 L 189.488281 143.753906 L 185.160156 143.753906 L 185.160156 148.082031 L 189.488281 148.082031 " fill-opacity="1" fill-rule="nonzero"/><path fill="#040606" d="M 180.835938 143.753906 L 185.160156 143.753906 L 185.160156 139.425781 L 176.503906 139.425781 L 176.503906 143.753906 L 180.835938 143.753906 " fill-opacity="1" fill-rule="nonzero"/><g clip-path="url(#5c4a9fd4d4)"><g clip-path="url(#20f59eb854)"><g transform="matrix(1, 0, 0, 1, 131, 233)"><g clip-path="url(#b889d6ce61)"><g clip-path="url(#6318ed10a2)"><g clip-path="url(#cf2d136098)"><path fill="#ffffff" d="M 0.25 0.304688 L 10.695312 0.304688 L 10.695312 10.75 L 0.25 10.75 Z M 0.25 0.304688 " fill-opacity="1" fill-rule="nonzero"/></g></g></g></g></g></g></svg>