<svg xmlns="http://www.w3.org/2000/svg" xmlns:xlink="http://www.w3.org/1999/xlink" width="500" zoomAndPan="magnify" viewBox="0 0 375 374.999991" height="500" preserveAspectRatio="xMidYMid meet" version="1.0"><defs><clipPath id="1f57800fc6"><path d="M 131.25 233.304688 L 141.695312 233.304688 L 141.695312 243.75 L 131.25 243.75 Z M 131.25 233.304688 " clip-rule="nonzero"/></clipPath><clipPath id="e2a12bb657"><path d="M 136.472656 233.304688 C 133.589844 233.304688 131.25 235.644531 131.25 238.527344 C 131.25 241.410156 133.589844 243.75 136.472656 243.75 C 139.355469 243.75 141.695312 241.410156 141.695312 238.527344 C 141.695312 235.644531 139.355469 233.304688 136.472656 233.304688 Z M 136.472656 233.304688 " clip-rule="nonzero"/></clipPath><clipPath id="570c599e47"><path d="M 0.25 0.304688 L 10.695312 0.304688 L 10.695312 10.75 L 0.25 10.75 Z M 0.25 0.304688 " clip-rule="nonzero"/></clipPath><clipPath id="3464dbb86d"><path d="M 5.472656 0.304688 C 2.589844 0.304688 0.25 2.644531 0.25 5.527344 C 0.25 8.410156 2.589844 10.75 5.472656 10.75 C 8.355469 10.75 10.695312 8.410156 10.695312 5.527344 C 10.695312 2.644531 8.355469 0.304688 5.472656 0.304688 Z M 5.472656 0.304688 " clip-rule="nonzero"/></clipPath><clipPath id="f1284dcb39"><rect x="0" width="11" y="0" height="11"/></clipPath><clipPath id="fb034bd259"><path d="M 136.472656 229.265625 L 211.472656 229.265625 L 211.472656 258.515625 L 136.472656 258.515625 Z M 136.472656 229.265625 " clip-rule="nonzero"/></clipPath><clipPath id="66726b0de5"><path d="M 0 28 L 375 28 L 375 160 L 0 160 Z M 0 28 " clip-rule="nonzero"/></clipPath><clipPath id="bbcad7c70c"><path d="M 361.097656 385.941406 L 13.285156 385.941406 C -0.441406 385.941406 -11.558594 374.820312 -11.558594 361.097656 L -11.558594 13.285156 C -11.558594 -0.441406 -0.441406 -11.558594 13.285156 -11.558594 L 361.097656 -11.558594 C 374.820312 -11.558594 385.941406 -0.441406 385.941406 13.285156 L 385.941406 361.097656 C 385.941406 374.820312 374.820312 385.941406 361.097656 385.941406 Z M 361.097656 385.941406 " clip-rule="nonzero"/></clipPath><clipPath id="18be1d3d61"><path d="M 0 0 L 375 0 L 375 112 L 0 112 Z M 0 0 " clip-rule="nonzero"/></clipPath><clipPath id="e86c36f33b"><path d="M 361.097656 385.941406 L 13.285156 385.941406 C -0.441406 385.941406 -11.558594 374.820312 -11.558594 361.097656 L -11.558594 13.285156 C -11.558594 -0.441406 -0.441406 -11.558594 13.285156 -11.558594 L 361.097656 -11.558594 C 374.820312 -11.558594 385.941406 -0.441406 385.941406 13.285156 L 385.941406 361.097656 C 385.941406 374.820312 374.820312 385.941406 361.097656 385.941406 Z M 361.097656 385.941406 " clip-rule="nonzero"/></clipPath><clipPath id="7b5b8c3127"><path d="M 7 30 L 94 30 L 94 111.421875 L 7 111.421875 Z M 7 30 " clip-rule="nonzero"/></clipPath><clipPath id="773b976553"><path d="M 361.097656 385.941406 L 13.285156 385.941406 C -0.441406 385.941406 -11.558594 374.820312 -11.558594 361.097656 L -11.558594 13.285156 C -11.558594 -0.441406 -0.441406 -11.558594 13.285156 -11.558594 L 361.097656 -11.558594 C 374.820312 -11.558594 385.941406 -0.441406 385.941406 13.285156 L 385.941406 361.097656 C 385.941406 374.820312 374.820312 385.941406 361.097656 385.941406 Z M 361.097656 385.941406 " clip-rule="nonzero"/></clipPath><clipPath id="13274bf63c"><path d="M -18.234375 111.421875 L 42.773438 111.421875 C 44.277344 111.421875 45.5 110.199219 45.5 108.695312 L 45.5 71.882812 C 45.5 70.378906 46.726562 69.15625 48.226562 69.15625 L 112.78125 69.15625 C 114.28125 69.15625 115.503906 70.378906 115.503906 71.882812 L 115.503906 95.96875 C 115.503906 97.46875 116.730469 98.695312 118.230469 98.695312 L 162.492188 98.695312 C 163.992188 98.695312 165.21875 97.46875 165.21875 95.96875 L 165.21875 71.882812 C 165.21875 70.378906 166.441406 69.15625 167.941406 69.15625 L 227.8125 69.15625 C 229.3125 69.15625 230.539062 70.378906 230.539062 71.882812 L 230.539062 88.765625 C 230.539062 90.265625 231.761719 91.488281 233.265625 91.488281 L 279.683594 91.488281 C 281.1875 91.488281 282.410156 90.265625 282.410156 88.765625 L 282.410156 68.519531 C 282.410156 67.019531 283.636719 65.792969 285.136719 65.792969 L 336.242188 65.792969 C 337.742188 65.792969 338.96875 67.019531 338.96875 68.519531 L 338.96875 108.097656 C 338.96875 109.597656 340.191406 110.824219 341.691406 110.824219 L 386.722656 110.824219 C 388.113281 110.824219 389.277344 109.777344 389.433594 108.398438 L 393.949219 68.097656 C 393.960938 68.003906 393.960938 67.894531 393.960938 67.800781 L 393.960938 -17.214844 C 393.960938 -18.714844 392.738281 -19.941406 391.234375 -19.941406 L -15.59375 -19.941406 C -17.070312 -19.941406 -18.285156 -18.75 -18.320312 -17.273438 L -20.960938 108.636719 C -20.996094 110.160156 -19.761719 111.421875 -18.234375 111.421875 Z M -18.234375 111.421875 " clip-rule="nonzero"/></clipPath><clipPath id="c68fc5917a"><path d="M 160 0 L 248 0 L 248 43 L 160 43 Z M 160 0 " clip-rule="nonzero"/></clipPath><clipPath id="3b291bfbc1"><path d="M 361.097656 385.941406 L 13.285156 385.941406 C -0.441406 385.941406 -11.558594 374.820312 -11.558594 361.097656 L -11.558594 13.285156 C -11.558594 -0.441406 -0.441406 -11.558594 13.285156 -11.558594 L 361.097656 -11.558594 C 374.820312 -11.558594 385.941406 -0.441406 385.941406 13.285156 L 385.941406 361.097656 C 385.941406 374.820312 374.820312 385.941406 361.097656 385.941406 Z M 361.097656 385.941406 " clip-rule="nonzero"/></clipPath><clipPath id="6eab989a03"><path d="M -18.234375 111.421875 L 42.773438 111.421875 C 44.277344 111.421875 45.5 110.199219 45.5 108.695312 L 45.5 71.882812 C 45.5 70.378906 46.726562 69.15625 48.226562 69.15625 L 112.78125 69.15625 C 114.28125 69.15625 115.503906 70.378906 115.503906 71.882812 L 115.503906 95.96875 C 115.503906 97.46875 116.730469 98.695312 118.230469 98.695312 L 162.492188 98.695312 C 163.992188 98.695312 165.21875 97.46875 165.21875 95.96875 L 165.21875 71.882812 C 165.21875 70.378906 166.441406 69.15625 167.941406 69.15625 L 227.8125 69.15625 C 229.3125 69.15625 230.539062 70.378906 230.539062 71.882812 L 230.539062 88.765625 C 230.539062 90.265625 231.761719 91.488281 233.265625 91.488281 L 279.683594 91.488281 C 281.1875 91.488281 282.410156 90.265625 282.410156 88.765625 L 282.410156 68.519531 C 282.410156 67.019531 283.636719 65.792969 285.136719 65.792969 L 336.242188 65.792969 C 337.742188 65.792969 338.96875 67.019531 338.96875 68.519531 L 338.96875 108.097656 C 338.96875 109.597656 340.191406 110.824219 341.691406 110.824219 L 386.722656 110.824219 C 388.113281 110.824219 389.277344 109.777344 389.433594 108.398438 L 393.949219 68.097656 C 393.960938 68.003906 393.960938 67.894531 393.960938 67.800781 L 393.960938 -17.214844 C 393.960938 -18.714844 392.738281 -19.941406 391.234375 -19.941406 L -15.59375 -19.941406 C -17.070312 -19.941406 -18.285156 -18.75 -18.320312 -17.273438 L -20.960938 108.636719 C -20.996094 110.160156 -19.761719 111.421875 -18.234375 111.421875 Z M -18.234375 111.421875 " clip-rule="nonzero"/></clipPath><clipPath id="e5a228cbd7"><path d="M 302 34 L 375 34 L 375 111.421875 L 302 111.421875 Z M 302 34 " clip-rule="nonzero"/></clipPath><clipPath id="1ab6d144c0"><path d="M 361.097656 385.941406 L 13.285156 385.941406 C -0.441406 385.941406 -11.558594 374.820312 -11.558594 361.097656 L -11.558594 13.285156 C -11.558594 -0.441406 -0.441406 -11.558594 13.285156 -11.558594 L 361.097656 -11.558594 C 374.820312 -11.558594 385.941406 -0.441406 385.941406 13.285156 L 385.941406 361.097656 C 385.941406 374.820312 374.820312 385.941406 361.097656 385.941406 Z M 361.097656 385.941406 " clip-rule="nonzero"/></clipPath><clipPath id="b9f940aa36"><path d="M -18.234375 111.421875 L 42.773438 111.421875 C 44.277344 111.421875 45.5 110.199219 45.5 108.695312 L 45.5 71.882812 C 45.5 70.378906 46.726562 69.15625 48.226562 69.15625 L 112.78125 69.15625 C 114.28125 69.15625 115.503906 70.378906 115.503906 71.882812 L 115.503906 95.96875 C 115.503906 97.46875 116.730469 98.695312 118.230469 98.695312 L 162.492188 98.695312 C 163.992188 98.695312 165.21875 97.46875 165.21875 95.96875 L 165.21875 71.882812 C 165.21875 70.378906 166.441406 69.15625 167.941406 69.15625 L 227.8125 69.15625 C 229.3125 69.15625 230.539062 70.378906 230.539062 71.882812 L 230.539062 88.765625 C 230.539062 90.265625 231.761719 91.488281 233.265625 91.488281 L 279.683594 91.488281 C 281.1875 91.488281 282.410156 90.265625 282.410156 88.765625 L 282.410156 68.519531 C 282.410156 67.019531 283.636719 65.792969 285.136719 65.792969 L 336.242188 65.792969 C 337.742188 65.792969 338.96875 67.019531 338.96875 68.519531 L 338.96875 108.097656 C 338.96875 109.597656 340.191406 110.824219 341.691406 110.824219 L 386.722656 110.824219 C 388.113281 110.824219 389.277344 109.777344 389.433594 108.398438 L 393.949219 68.097656 C 393.960938 68.003906 393.960938 67.894531 393.960938 67.800781 L 393.960938 -17.214844 C 393.960938 -18.714844 392.738281 -19.941406 391.234375 -19.941406 L -15.59375 -19.941406 C -17.070312 -19.941406 -18.285156 -18.75 -18.320312 -17.273438 L -20.960938 108.636719 C -20.996094 110.160156 -19.761719 111.421875 -18.234375 111.421875 Z M -18.234375 111.421875 " clip-rule="nonzero"/></clipPath><clipPath id="13e0017002"><path d="M 67 246 L 113 246 L 113 292 L 67 292 Z M 67 246 " clip-rule="nonzero"/></clipPath><clipPath id="27b6100f03"><path d="M 361.097656 385.941406 L 13.285156 385.941406 C -0.441406 385.941406 -11.558594 374.820312 -11.558594 361.097656 L -11.558594 13.285156 C -11.558594 -0.441406 -0.441406 -11.558594 13.285156 -11.558594 L 361.097656 -11.558594 C 374.820312 -11.558594 385.941406 -0.441406 385.941406 13.285156 L 385.941406 361.097656 C 385.941406 374.820312 374.820312 385.941406 361.097656 385.941406 Z M 361.097656 385.941406 " clip-rule="nonzero"/></clipPath><clipPath id="a7ccf7dcb1"><path d="M 184 192 L 230 192 L 230 239 L 184 239 Z M 184 192 " clip-rule="nonzero"/></clipPath><clipPath id="c011612a3d"><path d="M 361.097656 385.941406 L 13.285156 385.941406 C -0.441406 385.941406 -11.558594 374.820312 -11.558594 361.097656 L -11.558594 13.285156 C -11.558594 -0.441406 -0.441406 -11.558594 13.285156 -11.558594 L 361.097656 -11.558594 C 374.820312 -11.558594 385.941406 -0.441406 385.941406 13.285156 L 385.941406 361.097656 C 385.941406 374.820312 374.820312 385.941406 361.097656 385.941406 Z M 361.097656 385.941406 " clip-rule="nonzero"/></clipPath><clipPath id="75e42bbcb0"><path d="M 281 275 L 327 275 L 327 321 L 281 321 Z M 281 275 " clip-rule="nonzero"/></clipPath><clipPath id="a6a2ed0564"><path d="M 361.097656 385.941406 L 13.285156 385.941406 C -0.441406 385.941406 -11.558594 374.820312 -11.558594 361.097656 L -11.558594 13.285156 C -11.558594 -0.441406 -0.441406 -11.558594 13.285156 -11.558594 L 361.097656 -11.558594 C 374.820312 -11.558594 385.941406 -0.441406 385.941406 13.285156 L 385.941406 361.097656 C 385.941406 374.820312 374.820312 385.941406 361.097656 385.941406 Z M 361.097656 385.941406 " clip-rule="nonzero"/></clipPath><clipPath id="1287dc4693"><path d="M 98.972656 173.015625 L 173.972656 173.015625 L 173.972656 202 L 98.972656 202 Z M 98.972656 173.015625 " clip-rule="nonzero"/></clipPath></defs><g clip-path="url(#1f57800fc6)"><g clip-path="url(#e2a12bb657)"><g transform="matrix(1, 0, 0, 1, 131, 233)"><g clip-path="url(#f1284dcb39)"><g clip-path="url(#570c599e47)"><g clip-path="url(#3464dbb86d)"><path fill="#ffffff" d="M 0.25 0.304688 L 10.695312 0.304688 L 10.695312 10.75 L 0.25 10.75 Z M 0.25 0.304688 " fill-opacity="1" fill-rule="nonzero"/></g></g></g></g></g></g><g clip-path="url(#fb034bd259)"><path fill="#fbcc24" d="M 211.472656 243.410156 C 211.472656 247.382812 210.109375 250.835938 207.378906 253.765625 C 204.605469 256.738281 201.273438 258.222656 197.339844 258.222656 C 193.363281 258.222656 189.910156 256.859375 186.980469 254.089844 C 184.011719 251.359375 182.523438 248.027344 182.523438 244.050781 C 182.523438 240.117188 183.890625 236.664062 186.621094 233.691406 C 189.390625 230.761719 192.722656 229.277344 196.65625 229.277344 C 200.632812 229.277344 204.085938 230.640625 207.015625 233.371094 C 209.988281 236.140625 211.472656 239.472656 211.472656 243.410156 Z M 165.421875 243.410156 C 165.421875 247.382812 164.054688 250.835938 161.324219 253.765625 C 158.554688 256.738281 155.222656 258.222656 151.289062 258.222656 C 147.3125 258.222656 143.859375 256.859375 140.929688 254.089844 C 137.957031 251.359375 136.472656 248.027344 136.472656 244.050781 C 136.472656 240.117188 137.835938 236.664062 140.609375 233.691406 C 143.339844 230.761719 146.671875 229.277344 150.605469 229.277344 C 154.582031 229.277344 158.035156 230.640625 160.964844 233.371094 C 163.933594 236.140625 165.421875 239.472656 165.421875 243.410156 Z M 165.421875 243.410156 " fill-opacity="1" fill-rule="nonzero"/></g><path fill="#874c2b" d="M 361.097656 385.941406 L 13.285156 385.941406 C -0.441406 385.941406 -11.558594 374.820312 -11.558594 361.097656 L -11.558594 13.285156 C -11.558594 -0.441406 -0.441406 -11.558594 13.285156 -11.558594 L 361.097656 -11.558594 C 374.820312 -11.558594 385.941406 -0.441406 385.941406 13.285156 L 385.941406 361.097656 C 385.941406 374.820312 374.820312 385.941406 361.097656 385.941406 Z M 361.097656 385.941406 " fill-opacity="1" fill-rule="nonzero"/><g clip-path="url(#66726b0de5)"><g clip-path="url(#bbcad7c70c)"><path fill="#7d4024" d="M -17.515625 159.574219 L 61.386719 159.574219 C 62.886719 159.574219 64.113281 158.347656 64.113281 156.847656 L 64.113281 120.03125 C 64.113281 118.53125 65.335938 117.304688 66.839844 117.304688 L 105.335938 117.304688 C 106.835938 117.304688 108.0625 118.53125 108.0625 120.03125 L 108.0625 144.121094 C 108.0625 145.621094 109.285156 146.84375 110.785156 146.84375 L 178.460938 146.84375 C 179.960938 146.84375 181.1875 145.621094 181.1875 144.121094 L 181.1875 120.03125 C 181.1875 118.53125 182.410156 117.304688 183.914062 117.304688 L 213.285156 117.304688 C 214.785156 117.304688 216.007812 118.53125 216.007812 120.03125 L 216.007812 136.914062 C 216.007812 138.414062 217.234375 139.640625 218.734375 139.640625 L 290.371094 139.640625 C 291.875 139.640625 293.097656 138.414062 293.097656 136.914062 L 293.097656 116.671875 C 293.097656 115.167969 294.324219 113.945312 295.824219 113.945312 L 317.628906 113.945312 C 319.128906 113.945312 320.355469 115.167969 320.355469 116.671875 L 320.355469 156.246094 C 320.355469 157.75 321.578125 158.972656 323.082031 158.972656 L 387.441406 158.972656 C 388.835938 158.972656 390 157.929688 390.15625 156.546875 L 394.671875 116.25 C 394.683594 116.152344 394.683594 116.046875 394.683594 115.949219 L 394.683594 30.9375 C 394.683594 29.433594 393.457031 28.210938 391.957031 28.210938 L -14.875 28.210938 C -16.351562 28.210938 -17.5625 29.398438 -17.597656 30.875 L -20.242188 156.789062 C -20.277344 158.3125 -19.039062 159.574219 -17.515625 159.574219 Z M -17.515625 159.574219 " fill-opacity="1" fill-rule="nonzero"/></g></g><g clip-path="url(#18be1d3d61)"><g clip-path="url(#e86c36f33b)"><path fill="#48a831" d="M -18.234375 111.421875 L 42.773438 111.421875 C 44.277344 111.421875 45.5 110.199219 45.5 108.695312 L 45.5 71.882812 C 45.5 70.378906 46.726562 69.15625 48.226562 69.15625 L 112.78125 69.15625 C 114.28125 69.15625 115.503906 70.378906 115.503906 71.882812 L 115.503906 95.96875 C 115.503906 97.46875 116.730469 98.695312 118.230469 98.695312 L 162.492188 98.695312 C 163.992188 98.695312 165.21875 97.46875 165.21875 95.96875 L 165.21875 71.882812 C 165.21875 70.378906 166.441406 69.15625 167.941406 69.15625 L 227.8125 69.15625 C 229.3125 69.15625 230.539062 70.378906 230.539062 71.882812 L 230.539062 88.765625 C 230.539062 90.265625 231.761719 91.488281 233.265625 91.488281 L 279.683594 91.488281 C 281.1875 91.488281 282.410156 90.265625 282.410156 88.765625 L 282.410156 68.519531 C 282.410156 67.019531 283.636719 65.792969 285.136719 65.792969 L 336.242188 65.792969 C 337.742188 65.792969 338.96875 67.019531 338.96875 68.519531 L 338.96875 108.097656 C 338.96875 109.597656 340.191406 110.824219 341.691406 110.824219 L 386.722656 110.824219 C 388.113281 110.824219 389.277344 109.777344 389.433594 108.398438 L 393.949219 68.097656 C 393.960938 68.003906 393.960938 67.894531 393.960938 67.800781 L 393.960938 -17.214844 C 393.960938 -18.714844 392.738281 -19.941406 391.234375 -19.941406 L -15.59375 -19.941406 C -17.070312 -19.941406 -18.285156 -18.75 -18.320312 -17.273438 L -20.960938 108.636719 C -20.996094 110.160156 -19.761719 111.421875 -18.234375 111.421875 Z M -18.234375 111.421875 " fill-opacity="1" fill-rule="nonzero"/></g></g><g clip-path="url(#7b5b8c3127)"><g clip-path="url(#773b976553)"><g clip-path="url(#13274bf63c)"><path fill="#60bd3f" d="M 92.257812 117.667969 L 8.828125 117.667969 C 7.855469 117.667969 7.078125 116.875 7.078125 115.914062 L 7.078125 32.484375 C 7.078125 31.511719 7.867188 30.730469 8.828125 30.730469 L 92.246094 30.730469 C 93.21875 30.730469 94 31.523438 94 32.484375 L 94 115.902344 C 94.011719 116.875 93.21875 117.667969 92.257812 117.667969 Z M 92.257812 117.667969 " fill-opacity="1" fill-rule="nonzero"/></g></g></g><g clip-path="url(#c68fc5917a)"><g clip-path="url(#3b291bfbc1)"><g clip-path="url(#6eab989a03)"><path fill="#60bd3f" d="M 160.773438 -13.371094 L 160.773438 41.105469 C 160.773438 42.078125 161.566406 42.859375 162.527344 42.859375 L 245.945312 42.859375 C 246.917969 42.859375 247.695312 42.066406 247.695312 41.105469 L 247.695312 -13.371094 Z M 160.773438 -13.371094 " fill-opacity="1" fill-rule="nonzero"/></g></g></g><g clip-path="url(#e5a228cbd7)"><g clip-path="url(#1ab6d144c0)"><g clip-path="url(#b9f940aa36)"><path fill="#60bd3f" d="M 387.644531 121.027344 L 304.230469 121.027344 C 303.257812 121.027344 302.476562 120.238281 302.476562 119.277344 L 302.476562 35.847656 C 302.476562 34.875 303.269531 34.09375 304.230469 34.09375 L 387.644531 34.09375 C 388.617188 34.09375 389.398438 34.886719 389.398438 35.847656 L 389.398438 119.265625 C 389.398438 120.238281 388.605469 121.027344 387.644531 121.027344 Z M 387.644531 121.027344 " fill-opacity="1" fill-rule="nonzero"/></g></g></g><g clip-path="url(#13e0017002)"><g clip-path="url(#27b6100f03)"><path fill="#7d4024" d="M 109.175781 291.898438 L 70.199219 291.898438 C 68.496094 291.898438 67.113281 290.515625 67.113281 288.8125 L 67.113281 249.835938 C 67.113281 248.128906 68.496094 246.75 70.199219 246.75 L 109.175781 246.75 C 110.882812 246.75 112.261719 248.128906 112.261719 249.835938 L 112.261719 288.8125 C 112.261719 290.515625 110.882812 291.898438 109.175781 291.898438 Z M 109.175781 291.898438 " fill-opacity="1" fill-rule="nonzero"/></g></g><g clip-path="url(#a7ccf7dcb1)"><g clip-path="url(#c011612a3d)"><path fill="#7d4024" d="M 226.492188 238.101562 L 187.515625 238.101562 C 185.808594 238.101562 184.429688 236.722656 184.429688 235.015625 L 184.429688 196.039062 C 184.429688 194.335938 185.808594 192.953125 187.515625 192.953125 L 226.492188 192.953125 C 228.195312 192.953125 229.578125 194.335938 229.578125 196.039062 L 229.578125 235.015625 C 229.578125 236.722656 228.195312 238.101562 226.492188 238.101562 Z M 226.492188 238.101562 " fill-opacity="1" fill-rule="nonzero"/></g></g><g clip-path="url(#75e42bbcb0)"><g clip-path="url(#a6a2ed0564)"><path fill="#7d4024" d="M 323.511719 320.476562 L 284.535156 320.476562 C 282.832031 320.476562 281.449219 319.09375 281.449219 317.390625 L 281.449219 278.414062 C 281.449219 276.707031 282.832031 275.328125 284.535156 275.328125 L 323.511719 275.328125 C 325.21875 275.328125 326.597656 276.707031 326.597656 278.414062 L 326.597656 317.390625 C 326.597656 319.09375 325.21875 320.476562 323.511719 320.476562 Z M 323.511719 320.476562 " fill-opacity="1" fill-rule="nonzero"/></g></g><g clip-path="url(#1287dc4693)"><path fill="#874c2b" d="M 173.972656 187.160156 C 173.972656 191.132812 172.609375 194.585938 169.878906 197.515625 C 167.105469 200.488281 163.773438 201.972656 159.839844 201.972656 C 155.863281 201.972656 152.410156 200.609375 149.480469 197.839844 C 146.511719 195.109375 145.023438 191.777344 145.023438 187.800781 C 145.023438 183.867188 146.390625 180.414062 149.121094 177.441406 C 151.890625 174.511719 155.222656 173.027344 159.15625 173.027344 C 163.132812 173.027344 166.585938 174.390625 169.515625 177.121094 C 172.488281 179.890625 173.972656 183.222656 173.972656 187.160156 Z M 127.921875 187.160156 C 127.921875 191.132812 126.554688 194.585938 123.824219 197.515625 C 121.054688 200.488281 117.722656 201.972656 113.789062 201.972656 C 109.8125 201.972656 106.359375 200.609375 103.429688 197.839844 C 100.457031 195.109375 98.972656 191.777344 98.972656 187.800781 C 98.972656 183.867188 100.335938 180.414062 103.109375 177.441406 C 105.839844 174.511719 109.171875 173.027344 113.105469 173.027344 C 117.082031 173.027344 120.535156 174.390625 123.464844 177.121094 C 126.433594 179.890625 127.921875 183.222656 127.921875 187.160156 Z M 127.921875 187.160156 " fill-opacity="1" fill-rule="nonzero"/></g></svg>