<svg xmlns="http://www.w3.org/2000/svg" xmlns:xlink="http://www.w3.org/1999/xlink" width="500" zoomAndPan="magnify" viewBox="0 0 375 374.999991" height="500" preserveAspectRatio="xMidYMid meet" version="1.0"><defs><clipPath id="b94650d86e"><path d="M 141.496094 243.589844 L 165.496094 243.589844 L 165.496094 267.589844 L 141.496094 267.589844 Z M 141.496094 243.589844 " clip-rule="nonzero"/></clipPath><clipPath id="0e14c90272"><path d="M 33.375 29.25 L 341.625 29.25 L 341.625 337.5 L 33.375 337.5 Z M 33.375 29.25 " clip-rule="nonzero"/></clipPath><clipPath id="302ff5a2b3"><path d="M 33.375 60 L 341.625 60 L 341.625 162 L 33.375 162 Z M 33.375 60 " clip-rule="nonzero"/></clipPath><clipPath id="876a54f5d6"><path d="M 322.359375 337.5 L 52.640625 337.5 C 42 337.5 33.375 328.878906 33.375 318.234375 L 33.375 48.515625 C 33.375 37.875 42 29.25 52.640625 29.25 L 322.359375 29.25 C 333.003906 29.25 341.625 37.875 341.625 48.515625 L 341.625 318.234375 C 341.625 328.878906 333.003906 337.5 322.359375 337.5 Z M 322.359375 337.5 " clip-rule="nonzero"/></clipPath><clipPath id="d0a5759fa5"><path d="M 33.375 29.25 L 341.625 29.25 L 341.625 125 L 33.375 125 Z M 33.375 29.25 " clip-rule="nonzero"/></clipPath><clipPath id="6a16887160"><path d="M 322.359375 337.5 L 52.640625 337.5 C 42 337.5 33.375 328.878906 33.375 318.234375 L 33.375 48.515625 C 33.375 37.875 42 29.25 52.640625 29.25 L 322.359375 29.25 C 333.003906 29.25 341.625 37.875 341.625 48.515625 L 341.625 318.234375 C 341.625 328.878906 333.003906 337.5 322.359375 337.5 Z M 322.359375 337.5 " clip-rule="nonzero"/></clipPath><clipPath id="82d370f66d"><path d="M 47 62 L 116 62 L 116 124.621094 L 47 124.621094 Z M 47 62 " clip-rule="nonzero"/></clipPath><clipPath id="91958ebecd"><path d="M 322.359375 337.5 L 52.640625 337.5 C 42 337.5 33.375 328.878906 33.375 318.234375 L 33.375 48.515625 C 33.375 37.875 42 29.25 52.640625 29.25 L 322.359375 29.25 C 333.003906 29.25 341.625 37.875 341.625 48.515625 L 341.625 318.234375 C 341.625 328.878906 333.003906 337.5 322.359375 337.5 Z M 322.359375 337.5 " clip-rule="nonzero"/></clipPath><clipPath id="a728e61224"><path d="M 28.199219 124.621094 L 75.511719 124.621094 C 76.675781 124.621094 77.625 123.671875 77.625 122.507812 L 77.625 93.957031 C 77.625 92.792969 78.574219 91.84375 79.738281 91.84375 L 129.796875 91.84375 C 130.960938 91.84375 131.910156 92.792969 131.910156 93.957031 L 131.910156 112.636719 C 131.910156 113.800781 132.859375 114.75 134.023438 114.75 L 168.347656 114.75 C 169.511719 114.75 170.460938 113.800781 170.460938 112.636719 L 170.460938 93.957031 C 170.460938 92.792969 171.410156 91.84375 172.574219 91.84375 L 219 91.84375 C 220.164062 91.84375 221.117188 92.792969 221.117188 93.957031 L 221.117188 107.050781 C 221.117188 108.214844 222.066406 109.164062 223.230469 109.164062 L 259.226562 109.164062 C 260.390625 109.164062 261.339844 108.214844 261.339844 107.050781 L 261.339844 91.351562 C 261.339844 90.1875 262.292969 89.238281 263.453125 89.238281 L 303.085938 89.238281 C 304.25 89.238281 305.199219 90.1875 305.199219 91.351562 L 305.199219 122.039062 C 305.199219 123.203125 306.148438 124.15625 307.3125 124.15625 L 342.230469 124.15625 C 343.3125 124.15625 344.214844 123.34375 344.335938 122.273438 L 347.835938 91.023438 C 347.847656 90.949219 347.847656 90.867188 347.847656 90.792969 L 347.847656 24.867188 C 347.847656 23.703125 346.894531 22.75 345.730469 22.75 L 30.246094 22.75 C 29.101562 22.75 28.160156 23.671875 28.132812 24.820312 L 26.085938 122.460938 C 26.058594 123.644531 27.015625 124.621094 28.199219 124.621094 Z M 28.199219 124.621094 " clip-rule="nonzero"/></clipPath><clipPath id="977c8eae02"><path d="M 167 29.25 L 235 29.25 L 235 72 L 167 72 Z M 167 29.25 " clip-rule="nonzero"/></clipPath><clipPath id="8908959789"><path d="M 322.359375 337.5 L 52.640625 337.5 C 42 337.5 33.375 328.878906 33.375 318.234375 L 33.375 48.515625 C 33.375 37.875 42 29.25 52.640625 29.25 L 322.359375 29.25 C 333.003906 29.25 341.625 37.875 341.625 48.515625 L 341.625 318.234375 C 341.625 328.878906 333.003906 337.5 322.359375 337.5 Z M 322.359375 337.5 " clip-rule="nonzero"/></clipPath><clipPath id="6e2415616b"><path d="M 28.199219 124.621094 L 75.511719 124.621094 C 76.675781 124.621094 77.625 123.671875 77.625 122.507812 L 77.625 93.957031 C 77.625 92.792969 78.574219 91.84375 79.738281 91.84375 L 129.796875 91.84375 C 130.960938 91.84375 131.910156 92.792969 131.910156 93.957031 L 131.910156 112.636719 C 131.910156 113.800781 132.859375 114.75 134.023438 114.75 L 168.347656 114.75 C 169.511719 114.75 170.460938 113.800781 170.460938 112.636719 L 170.460938 93.957031 C 170.460938 92.792969 171.410156 91.84375 172.574219 91.84375 L 219 91.84375 C 220.164062 91.84375 221.117188 92.792969 221.117188 93.957031 L 221.117188 107.050781 C 221.117188 108.214844 222.066406 109.164062 223.230469 109.164062 L 259.226562 109.164062 C 260.390625 109.164062 261.339844 108.214844 261.339844 107.050781 L 261.339844 91.351562 C 261.339844 90.1875 262.292969 89.238281 263.453125 89.238281 L 303.085938 89.238281 C 304.25 89.238281 305.199219 90.1875 305.199219 91.351562 L 305.199219 122.039062 C 305.199219 123.203125 306.148438 124.15625 307.3125 124.15625 L 342.230469 124.15625 C 343.3125 124.15625 344.214844 123.34375 344.335938 122.273438 L 347.835938 91.023438 C 347.847656 90.949219 347.847656 90.867188 347.847656 90.792969 L 347.847656 24.867188 C 347.847656 23.703125 346.894531 22.75 345.730469 22.75 L 30.246094 22.75 C 29.101562 22.75 28.160156 23.671875 28.132812 24.820312 L 26.085938 122.460938 C 26.058594 123.644531 27.015625 124.621094 28.199219 124.621094 Z M 28.199219 124.621094 " clip-rule="nonzero"/></clipPath><clipPath id="4451e53a6f"><path d="M 276 64 L 341.625 64 L 341.625 124.621094 L 276 124.621094 Z M 276 64 " clip-rule="nonzero"/></clipPath><clipPath id="464cceb0a3"><path d="M 322.359375 337.5 L 52.640625 337.5 C 42 337.5 33.375 328.878906 33.375 318.234375 L 33.375 48.515625 C 33.375 37.875 42 29.25 52.640625 29.25 L 322.359375 29.25 C 333.003906 29.25 341.625 37.875 341.625 48.515625 L 341.625 318.234375 C 341.625 328.878906 333.003906 337.5 322.359375 337.5 Z M 322.359375 337.5 " clip-rule="nonzero"/></clipPath><clipPath id="42d47f8f4b"><path d="M 28.199219 124.621094 L 75.511719 124.621094 C 76.675781 124.621094 77.625 123.671875 77.625 122.507812 L 77.625 93.957031 C 77.625 92.792969 78.574219 91.84375 79.738281 91.84375 L 129.796875 91.84375 C 130.960938 91.84375 131.910156 92.792969 131.910156 93.957031 L 131.910156 112.636719 C 131.910156 113.800781 132.859375 114.75 134.023438 114.75 L 168.347656 114.75 C 169.511719 114.75 170.460938 113.800781 170.460938 112.636719 L 170.460938 93.957031 C 170.460938 92.792969 171.410156 91.84375 172.574219 91.84375 L 219 91.84375 C 220.164062 91.84375 221.117188 92.792969 221.117188 93.957031 L 221.117188 107.050781 C 221.117188 108.214844 222.066406 109.164062 223.230469 109.164062 L 259.226562 109.164062 C 260.390625 109.164062 261.339844 108.214844 261.339844 107.050781 L 261.339844 91.351562 C 261.339844 90.1875 262.292969 89.238281 263.453125 89.238281 L 303.085938 89.238281 C 304.25 89.238281 305.199219 90.1875 305.199219 91.351562 L 305.199219 122.039062 C 305.199219 123.203125 306.148438 124.15625 307.3125 124.15625 L 342.230469 124.15625 C 343.3125 124.15625 344.214844 123.34375 344.335938 122.273438 L 347.835938 91.023438 C 347.847656 90.949219 347.847656 90.867188 347.847656 90.792969 L 347.847656 24.867188 C 347.847656 23.703125 346.894531 22.75 345.730469 22.75 L 30.246094 22.75 C 29.101562 22.75 28.160156 23.671875 28.132812 24.820312 L 26.085938 122.460938 C 26.058594 123.644531 27.015625 124.621094 28.199219 124.621094 Z M 28.199219 124.621094 " clip-rule="nonzero"/></clipPath><clipPath id="320a17efd5"><path d="M 94 229 L 130 229 L 130 265 L 94 265 Z M 94 229 " clip-rule="nonzero"/></clipPath><clipPath id="92eb167dfb"><path d="M 322.359375 337.5 L 52.640625 337.5 C 42 337.5 33.375 328.878906 33.375 318.234375 L 33.375 48.515625 C 33.375 37.875 42 29.25 52.640625 29.25 L 322.359375 29.25 C 333.003906 29.25 341.625 37.875 341.625 48.515625 L 341.625 318.234375 C 341.625 328.878906 333.003906 337.5 322.359375 337.5 Z M 322.359375 337.5 " clip-rule="nonzero"/></clipPath><clipPath id="ab47f5d0ce"><path d="M 185 187 L 221 187 L 221 223 L 185 223 Z M 185 187 " clip-rule="nonzero"/></clipPath><clipPath id="bd0243f228"><path d="M 322.359375 337.5 L 52.640625 337.5 C 42 337.5 33.375 328.878906 33.375 318.234375 L 33.375 48.515625 C 33.375 37.875 42 29.25 52.640625 29.25 L 322.359375 29.25 C 333.003906 29.25 341.625 37.875 341.625 48.515625 L 341.625 318.234375 C 341.625 328.878906 333.003906 337.5 322.359375 337.5 Z M 322.359375 337.5 " clip-rule="nonzero"/></clipPath><clipPath id="80f6526280"><path d="M 260 251 L 296 251 L 296 287 L 260 287 Z M 260 251 " clip-rule="nonzero"/></clipPath><clipPath id="9cb7b0d8ba"><path d="M 322.359375 337.5 L 52.640625 337.5 C 42 337.5 33.375 328.878906 33.375 318.234375 L 33.375 48.515625 C 33.375 37.875 42 29.25 52.640625 29.25 L 322.359375 29.25 C 333.003906 29.25 341.625 37.875 341.625 48.515625 L 341.625 318.234375 C 341.625 328.878906 333.003906 337.5 322.359375 337.5 Z M 322.359375 337.5 " clip-rule="nonzero"/></clipPath></defs><g clip-path="url(#b94650d86e)"><path fill="#696969" d="M 165.542969 255.613281 C 165.542969 256.402344 165.46875 257.1875 165.3125 257.960938 C 165.160156 258.734375 164.929688 259.488281 164.628906 260.214844 C 164.328125 260.945312 163.957031 261.636719 163.519531 262.292969 C 163.078125 262.949219 162.582031 263.558594 162.023438 264.117188 C 161.464844 264.675781 160.855469 265.171875 160.199219 265.613281 C 159.542969 266.050781 158.851562 266.421875 158.121094 266.722656 C 157.394531 267.023438 156.640625 267.253906 155.867188 267.40625 C 155.09375 267.5625 154.308594 267.636719 153.519531 267.636719 C 152.730469 267.636719 151.949219 267.5625 151.175781 267.40625 C 150.402344 267.253906 149.648438 267.023438 148.917969 266.722656 C 148.191406 266.421875 147.496094 266.050781 146.839844 265.613281 C 146.183594 265.171875 145.578125 264.675781 145.019531 264.117188 C 144.460938 263.558594 143.960938 262.949219 143.523438 262.292969 C 143.085938 261.636719 142.714844 260.945312 142.414062 260.214844 C 142.109375 259.488281 141.882812 258.734375 141.726562 257.960938 C 141.574219 257.1875 141.496094 256.402344 141.496094 255.613281 C 141.496094 254.824219 141.574219 254.042969 141.726562 253.269531 C 141.882812 252.496094 142.109375 251.742188 142.414062 251.011719 C 142.714844 250.285156 143.085938 249.589844 143.523438 248.933594 C 143.960938 248.277344 144.460938 247.671875 145.019531 247.113281 C 145.578125 246.554688 146.183594 246.054688 146.839844 245.617188 C 147.496094 245.179688 148.191406 244.808594 148.917969 244.507812 C 149.648438 244.203125 150.402344 243.976562 151.175781 243.824219 C 151.949219 243.667969 152.730469 243.589844 153.519531 243.589844 C 154.308594 243.589844 155.09375 243.667969 155.867188 243.824219 C 156.640625 243.976562 157.394531 244.203125 158.121094 244.507812 C 158.851562 244.808594 159.542969 245.179688 160.199219 245.617188 C 160.855469 246.054688 161.464844 246.554688 162.023438 247.113281 C 162.582031 247.671875 163.078125 248.277344 163.519531 248.933594 C 163.957031 249.589844 164.328125 250.285156 164.628906 251.011719 C 164.929688 251.742188 165.160156 252.496094 165.3125 253.269531 C 165.46875 254.042969 165.542969 254.824219 165.542969 255.613281 Z M 165.542969 255.613281 " fill-opacity="1" fill-rule="nonzero"/></g><g clip-path="url(#0e14c90272)"><path fill="#874c2b" d="M 322.359375 337.5 L 52.640625 337.5 C 42 337.5 33.375 328.878906 33.375 318.234375 L 33.375 48.515625 C 33.375 37.875 42 29.25 52.640625 29.25 L 322.359375 29.25 C 333.003906 29.25 341.625 37.875 341.625 48.515625 L 341.625 318.234375 C 341.625 328.878906 333.003906 337.5 322.359375 337.5 Z M 322.359375 337.5 " fill-opacity="1" fill-rule="nonzero"/></g><g clip-path="url(#302ff5a2b3)"><g clip-path="url(#876a54f5d6)"><path fill="#7d4024" d="M 28.757812 161.960938 L 89.945312 161.960938 C 91.105469 161.960938 92.058594 161.011719 92.058594 159.847656 L 92.058594 131.296875 C 92.058594 130.132812 93.007812 129.183594 94.171875 129.183594 L 124.023438 129.183594 C 125.1875 129.183594 126.136719 130.132812 126.136719 131.296875 L 126.136719 149.976562 C 126.136719 151.140625 127.085938 152.089844 128.25 152.089844 L 180.730469 152.089844 C 181.894531 152.089844 182.84375 151.140625 182.84375 149.976562 L 182.84375 131.296875 C 182.84375 130.132812 183.792969 129.183594 184.957031 129.183594 L 207.734375 129.183594 C 208.898438 129.183594 209.847656 130.132812 209.847656 131.296875 L 209.847656 144.390625 C 209.847656 145.550781 210.796875 146.503906 211.960938 146.503906 L 267.515625 146.503906 C 268.679688 146.503906 269.628906 145.550781 269.628906 144.390625 L 269.628906 128.691406 C 269.628906 127.527344 270.578125 126.574219 271.742188 126.574219 L 288.652344 126.574219 C 289.816406 126.574219 290.765625 127.527344 290.765625 128.691406 L 290.765625 159.378906 C 290.765625 160.542969 291.714844 161.492188 292.878906 161.492188 L 342.789062 161.492188 C 343.871094 161.492188 344.773438 160.683594 344.894531 159.613281 L 348.394531 128.363281 C 348.40625 128.289062 348.40625 128.207031 348.40625 128.128906 L 348.40625 62.203125 C 348.40625 61.039062 347.453125 60.089844 346.289062 60.089844 L 30.804688 60.089844 C 29.660156 60.089844 28.71875 61.011719 28.691406 62.160156 L 26.644531 159.800781 C 26.617188 160.980469 27.574219 161.960938 28.757812 161.960938 Z M 28.757812 161.960938 " fill-opacity="1" fill-rule="nonzero"/></g></g><g clip-path="url(#d0a5759fa5)"><g clip-path="url(#6a16887160)"><path fill="#48a831" d="M 28.199219 124.621094 L 75.511719 124.621094 C 76.675781 124.621094 77.625 123.671875 77.625 122.507812 L 77.625 93.957031 C 77.625 92.792969 78.574219 91.84375 79.738281 91.84375 L 129.796875 91.84375 C 130.960938 91.84375 131.910156 92.792969 131.910156 93.957031 L 131.910156 112.636719 C 131.910156 113.800781 132.859375 114.75 134.023438 114.75 L 168.347656 114.75 C 169.511719 114.75 170.460938 113.800781 170.460938 112.636719 L 170.460938 93.957031 C 170.460938 92.792969 171.410156 91.84375 172.574219 91.84375 L 219 91.84375 C 220.164062 91.84375 221.117188 92.792969 221.117188 93.957031 L 221.117188 107.050781 C 221.117188 108.214844 222.066406 109.164062 223.230469 109.164062 L 259.226562 109.164062 C 260.390625 109.164062 261.339844 108.214844 261.339844 107.050781 L 261.339844 91.351562 C 261.339844 90.1875 262.292969 89.238281 263.453125 89.238281 L 303.085938 89.238281 C 304.25 89.238281 305.199219 90.1875 305.199219 91.351562 L 305.199219 122.039062 C 305.199219 123.203125 306.148438 124.15625 307.3125 124.15625 L 342.230469 124.15625 C 343.3125 124.15625 344.214844 123.34375 344.335938 122.273438 L 347.835938 91.023438 C 347.847656 90.949219 347.847656 90.867188 347.847656 90.792969 L 347.847656 24.867188 C 347.847656 23.703125 346.894531 22.75 345.730469 22.75 L 30.246094 22.75 C 29.101562 22.75 28.160156 23.671875 28.132812 24.820312 L 26.085938 122.460938 C 26.058594 123.644531 27.015625 124.621094 28.199219 124.621094 Z M 28.199219 124.621094 " fill-opacity="1" fill-rule="nonzero"/></g></g><g clip-path="url(#82d370f66d)"><g clip-path="url(#91958ebecd)"><g clip-path="url(#a728e61224)"><path fill="#60bd3f" d="M 113.882812 129.460938 L 49.1875 129.460938 C 48.433594 129.460938 47.828125 128.847656 47.828125 128.101562 L 47.828125 63.40625 C 47.828125 62.652344 48.441406 62.046875 49.1875 62.046875 L 113.875 62.046875 C 114.628906 62.046875 115.234375 62.660156 115.234375 63.40625 L 115.234375 128.09375 C 115.242188 128.847656 114.628906 129.460938 113.882812 129.460938 Z M 113.882812 129.460938 " fill-opacity="1" fill-rule="nonzero"/></g></g></g><g clip-path="url(#977c8eae02)"><g clip-path="url(#8908959789)"><g clip-path="url(#6e2415616b)"><path fill="#60bd3f" d="M 167.015625 27.84375 L 167.015625 70.089844 C 167.015625 70.847656 167.628906 71.453125 168.375 71.453125 L 233.0625 71.453125 C 233.816406 71.453125 234.421875 70.835938 234.421875 70.089844 L 234.421875 27.84375 Z M 167.015625 27.84375 " fill-opacity="1" fill-rule="nonzero"/></g></g></g><g clip-path="url(#4451e53a6f)"><g clip-path="url(#464cceb0a3)"><g clip-path="url(#42d47f8f4b)"><path fill="#60bd3f" d="M 342.949219 132.070312 L 278.261719 132.070312 C 277.507812 132.070312 276.902344 131.453125 276.902344 130.710938 L 276.902344 66.011719 C 276.902344 65.257812 277.515625 64.652344 278.261719 64.652344 L 342.949219 64.652344 C 343.703125 64.652344 344.308594 65.269531 344.308594 66.011719 L 344.308594 130.699219 C 344.308594 131.453125 343.691406 132.070312 342.949219 132.070312 Z M 342.949219 132.070312 " fill-opacity="1" fill-rule="nonzero"/></g></g></g><g clip-path="url(#320a17efd5)"><g clip-path="url(#92eb167dfb)"><path fill="#7d4024" d="M 127.003906 264.574219 L 96.777344 264.574219 C 95.457031 264.574219 94.386719 263.503906 94.386719 262.179688 L 94.386719 231.953125 C 94.386719 230.632812 95.457031 229.5625 96.777344 229.5625 L 127.003906 229.5625 C 128.324219 229.5625 129.394531 230.632812 129.394531 231.953125 L 129.394531 262.179688 C 129.394531 263.503906 128.324219 264.574219 127.003906 264.574219 Z M 127.003906 264.574219 " fill-opacity="1" fill-rule="nonzero"/></g></g><g clip-path="url(#ab47f5d0ce)"><g clip-path="url(#bd0243f228)"><path fill="#7d4024" d="M 217.976562 222.855469 L 187.753906 222.855469 C 186.429688 222.855469 185.359375 221.785156 185.359375 220.464844 L 185.359375 190.238281 C 185.359375 188.917969 186.429688 187.847656 187.753906 187.847656 L 217.976562 187.847656 C 219.300781 187.847656 220.371094 188.917969 220.371094 190.238281 L 220.371094 220.464844 C 220.371094 221.785156 219.300781 222.855469 217.976562 222.855469 Z M 217.976562 222.855469 " fill-opacity="1" fill-rule="nonzero"/></g></g><g clip-path="url(#80f6526280)"><g clip-path="url(#9cb7b0d8ba)"><path fill="#7d4024" d="M 293.214844 286.734375 L 262.988281 286.734375 C 261.667969 286.734375 260.597656 285.664062 260.597656 284.339844 L 260.597656 254.117188 C 260.597656 252.792969 261.667969 251.722656 262.988281 251.722656 L 293.214844 251.722656 C 294.535156 251.722656 295.609375 252.792969 295.609375 254.117188 L 295.609375 284.339844 C 295.609375 285.664062 294.535156 286.734375 293.214844 286.734375 Z M 293.214844 286.734375 " fill-opacity="1" fill-rule="nonzero"/></g></g></svg>